<svg xmlns="http://www.w3.org/2000/svg" width="24" height="24" fill="currentColor" viewBox="0 0 24 24">
  <path d="M22.797 11.813a11.971 11.971 0 0 0-3.67-3.86l-1.108 1.11c1.198.695 2.292 1.658 3.091 2.747-.715.999-1.857 2.019-3.19 2.828-.465.283-.947.537-1.444.76 1.183-1.353 1.632-3.763.857-5.647l-1.198 1.198c.468 2.246-.751 4.812-3.76 5.165v-.005a5.504 5.504 0 0 1-.236.019c-.36.012-.72-.026-1.073-.11L9.53 17.554l.464.108H9.99c4.906 1.053 11.102-2.39 12.811-5.85h-.005ZM6.374 14.767c-1.284-.64-2.27-1.428-3.475-2.957h-.01c.716-.996 1.858-2.016 3.188-2.824.427-.26.87-.497 1.327-.706-1.193 1.354-1.666 4.106-.595 6.053l1.099-1.1a4.209 4.209 0 0 1-.218-.784c-.45-2.825 2.073-5.35 4.907-4.91a4.7 4.7 0 0 1 .79.213l1.574-1.574c-5.044-1.148-10.754.72-13.763 5.635 1.147 1.725 2.304 3.06 4.039 4.092l1.137-1.138Zm4.711-.467 9.941-9.944-1.272-1.272-16.56 16.56 1.275 1.272 5.388-5.39 1.229-1.227Z"/>
</svg>
