<svg width="24" height="24" viewBox="0 0 24 24" fill="none" xmlns="http://www.w3.org/2000/svg">
<path fill-rule="evenodd" clip-rule="evenodd" d="M12 1.80005C6.36671 1.80005 1.79999 6.36677 1.79999 12C1.79999 17.6333 6.36671 22.2 12 22.2C17.6333 22.2 22.2 17.6333 22.2 12C22.2 6.36677 17.6333 1.80005 12 1.80005ZM12 4.20005C12.9941 4.20005 13.8 5.00594 13.8 6.00005C13.8 6.99416 12.9941 7.80005 12 7.80005C11.0059 7.80005 10.2 6.99416 10.2 6.00005C10.2 5.00594 11.0059 4.20005 12 4.20005ZM15 18.6H9.59999V17.9824L9.72688 17.9784C10.1002 17.9664 10.3776 17.8603 10.5517 17.6631C10.6135 17.5918 10.7187 17.3487 10.7187 16.5314V11.0786C10.7187 10.3012 10.6101 10.0082 10.5192 9.89923C10.3906 9.74585 10.1228 9.6557 9.72311 9.63149L9.59999 9.62405V9.00005H13.8V16.5314C13.8 17.3094 14.003 17.6022 14.0937 17.7108C14.2219 17.8642 14.4701 17.9542 14.8767 17.9785L15 17.9857V18.6Z" fill="black"/>
</svg>
