<svg width="24" height="24" viewBox="0 0 24 24" fill="none" xmlns="http://www.w3.org/2000/svg">
<path fill-rule="evenodd" clip-rule="evenodd" d="M12.9001 18.0864C12.6566 18.3085 12.3376 18.4301 12.0082 18.4261C11.6755 18.431 11.3532 18.3109 11.1039 18.0907C10.8465 17.867 10.7176 17.5544 10.7176 17.1525C10.7176 16.8012 10.8407 16.5026 11.0869 16.2561C11.3327 16.0102 11.6344 15.8868 11.9915 15.8868C12.348 15.8868 12.6523 16.0102 12.9046 16.2561C13.1505 16.4889 13.2873 16.814 13.2824 17.1525C13.2824 17.5486 13.1548 17.86 12.9001 18.0864ZM11.0869 5.96388C11.3202 5.71434 11.6262 5.58699 12 5.57419C12.3732 5.58699 12.6792 5.71434 12.9128 5.96388C13.159 6.22683 13.2818 6.59337 13.2821 7.0635C13.2821 7.40871 12.798 13.7569 12.6792 14.0146C12.5606 14.2718 12.348 14.401 12.0424 14.401C12.0268 14.401 12.0146 14.3967 12 14.3958C11.9851 14.3967 11.9726 14.401 11.9573 14.401C11.6514 14.401 11.4394 14.2721 11.3206 14.0146C11.2017 13.7569 10.7176 7.40841 10.7176 7.0635C10.7176 6.59337 10.8407 6.22683 11.0869 5.96388ZM12 2.25C6.61526 2.25 2.25 6.61556 2.25 12C2.25 17.3847 6.61526 21.75 12 21.75C17.3847 21.75 21.75 17.3847 21.75 12C21.75 6.61556 17.3847 2.25 12 2.25Z" fill="#DB0002"/>
</svg>
