<svg width="24" height="24" viewBox="0 0 24 24" fill="none" xmlns="http://www.w3.org/2000/svg">
<path fill-rule="evenodd" clip-rule="evenodd" d="M15.2999 17.1398C15.1285 17.3132 14.9038 17.4 14.6794 17.4C14.4549 17.4 14.2302 17.3132 14.0589 17.1398L12.0001 15.0553L9.94123 17.1398C9.76997 17.3132 9.54536 17.4 9.32084 17.4C9.0962 17.4 8.87162 17.3132 8.70027 17.1398C8.35767 16.7928 8.35767 16.2302 8.70043 15.8832L10.7592 13.7989L8.77359 11.7886C8.43104 11.4416 8.43104 10.8792 8.77359 10.5321C9.1164 10.1853 9.6719 10.1853 10.0147 10.5321L12.0002 12.5425L13.9857 10.5321C14.3285 10.1853 14.8842 10.1853 15.2268 10.5321C15.5694 10.8792 15.5694 11.4417 15.2267 11.7886L13.2411 13.7989L15.2999 15.8832C15.6425 16.2303 15.6425 16.7928 15.2999 17.1398ZM21.3091 17.3918L21.3093 17.3917L13.8426 4.43165L13.8424 4.43178C13.4724 3.79086 12.7861 3.36 11.9999 3.36C11.2138 3.36 10.5274 3.79086 10.1574 4.43178L10.1572 4.43165L2.70884 17.3598C2.70859 17.3602 2.70833 17.3607 2.70805 17.3612L2.69051 17.3917L2.69069 17.3918C2.50614 17.7114 2.3999 18.083 2.3999 18.48C2.3999 19.6729 3.35501 20.64 4.53325 20.64H19.4666C20.6448 20.64 21.5999 19.6729 21.5999 18.48C21.5999 18.083 21.4936 17.7114 21.3091 17.3918Z" fill="black"/>
</svg>
