<svg xmlns="http://www.w3.org/2000/svg" width="24" height="24" fill="none" viewBox="0 0 24 24">
  <path fill="#000" d="M12 2.4A9.6 9.6 0 0 0 2.4 12a9.6 9.6 0 0 0 9.6 9.6 9.6 9.6 0 0 0 9.6-9.6A9.6 9.6 0 0 0 12 2.4Zm4.97 8.148-5.408 5.407c-.09.09-.178.171-.265.245-.04.053-.085.105-.136.156a1.27 1.27 0 0 1-.596.336 1.205 1.205 0 0 1-.266.033 1.206 1.206 0 0 1-.263-.033 1.277 1.277 0 0 1-.597-.337 1.47 1.47 0 0 1-.136-.155 4.53 4.53 0 0 1-.265-.245L7.035 13.95c-.853-.852-.997-1.549-.412-2.134.574-.574 1.282-.44 2.134.412l1.543 1.543 4.947-4.947c.853-.853 1.55-.997 2.134-.412.574.574.44 1.282-.411 2.134Z"/>
</svg>
