<svg width="24" height="24" viewBox="0 0 24 24" fill="none" xmlns="http://www.w3.org/2000/svg">
<path d="M11.3848 1.59255C11.7846 1.46334 12.2154 1.46324 12.6152 1.59255L12.8125 1.66872L12.9561 1.74099C13.2757 1.92338 13.4944 2.19079 13.6523 2.41384C13.8358 2.67289 14.0326 3.01498 14.25 3.3904L22.4746 17.5974L22.7822 18.1345C22.876 18.3032 22.9596 18.4608 23.0264 18.6052C23.1414 18.8539 23.2641 19.1776 23.2627 19.5466L23.2549 19.7078C23.2033 20.2012 22.9701 20.655 22.6055 20.9841L22.4414 21.1179C22.087 21.3756 21.6847 21.4429 21.373 21.4715C21.056 21.5005 20.6601 21.4998 20.2246 21.4998H3.77441C3.33905 21.4998 2.9429 21.5005 2.62597 21.4715C2.35335 21.4464 2.0118 21.3916 1.69336 21.2058L1.55761 21.1179C1.1562 20.826 0.880477 20.3965 0.778316 19.9158L0.745113 19.7078C0.699664 19.2719 0.842179 18.8894 0.973629 18.6052C1.10728 18.3164 1.30627 17.9742 1.52441 17.5974L9.75 3.3904L10.0615 2.85817C10.1608 2.69349 10.256 2.54327 10.3477 2.41384C10.5282 2.15889 10.788 1.84634 11.1875 1.66872L11.3848 1.59255ZM11.9795 3.57009C11.8616 3.73649 11.7175 3.983 11.4805 4.39235L3.25586 18.5994C3.01794 19.0103 2.87507 19.2592 2.78906 19.4451C2.78417 19.4557 2.78046 19.4661 2.77636 19.4754C2.78642 19.4765 2.79703 19.4792 2.80859 19.4802C3.01249 19.499 3.2997 19.4998 3.77441 19.4998H20.2246C20.6995 19.4998 20.9865 19.499 21.1904 19.4802C21.202 19.4792 21.2126 19.4765 21.2227 19.4754C21.2186 19.4661 21.2158 19.4556 21.2109 19.4451C21.1249 19.2592 20.9821 19.0104 20.7441 18.5994L12.5186 4.39235C12.2816 3.98302 12.1374 3.73647 12.0195 3.57009C12.0128 3.5606 12.005 3.55286 11.999 3.5447C11.9932 3.55269 11.986 3.56083 11.9795 3.57009Z" fill="black"/>
<path d="M10.5858 14L9.17157 15.4142C8.78104 15.8048 8.78104 16.4379 9.17157 16.8284C9.56209 17.219 10.1953 17.219 10.5858 16.8284L12 15.4142L13.4142 16.8284C13.8047 17.219 14.4379 17.219 14.8284 16.8284C15.2189 16.4379 15.2189 15.8048 14.8284 15.4142L13.4142 14L14.8284 12.5858C15.2189 12.1953 15.2189 11.5621 14.8284 11.1716C14.4379 10.7811 13.8047 10.7811 13.4142 11.1716L12 12.5858L10.5858 11.1716C10.1953 10.7811 9.56209 10.7811 9.17157 11.1716C8.78104 11.5621 8.78105 12.1953 9.17157 12.5858L10.5858 14Z" fill="black"/>
</svg>
