<svg width="80" height="80" viewBox="0 0 80 80" fill="none" xmlns="http://www.w3.org/2000/svg">
<g id="filter-effects">
<path id="Vector" fill-rule="evenodd" clip-rule="evenodd" d="M39.9999 5.99939C21.2223 5.99939 5.99994 21.2217 5.99994 39.9994C5.99994 58.7771 21.2223 73.9994 39.9999 73.9994C58.7776 73.9994 73.9999 58.7771 73.9999 39.9994C73.9999 21.2217 58.7776 5.99939 39.9999 5.99939ZM39.9999 14.8867L35.4549 10.3416C36.9591 10.1134 38.4785 9.99897 39.9999 9.99939V14.8867ZM38.5073 69.9627L10.0367 41.492C10.0125 40.9975 10.0003 40.4999 9.99994 39.9994C9.99965 38.6805 10.0857 37.363 10.2574 36.0554L39.9999 65.7984V69.9994C39.4995 69.9994 39.0019 69.9871 38.5073 69.9627ZM11.2526 31.3942C11.6715 29.9923 12.1932 28.6233 12.8135 27.2982L39.9999 54.4847V60.1415L11.2526 31.3942ZM14.8347 23.6626C15.5699 22.5324 16.3802 21.4529 17.2602 20.4314L39.9999 43.171V48.8278L14.8347 23.6626ZM20.0658 17.5799C21.0708 16.6856 22.1345 15.8596 23.2498 15.1073L39.9999 31.8572V37.5141L20.0658 17.5799ZM26.835 13.0354C28.1389 12.3974 29.4877 11.8556 30.8707 11.4143L39.9999 20.5434V26.2003L26.835 13.0354ZM11.1535 48.2657L31.7336 68.8458C26.8414 67.4386 22.3866 64.812 18.787 61.2124C15.1873 57.6128 12.5608 53.158 11.1535 48.2657Z" fill="#EEEEEE"/>
</g>
</svg>
