<svg xmlns="http://www.w3.org/2000/svg" width="24" height="24" fill="currentColor" viewBox="0 0 24 24">
  <path fill="#08090D" d="m17.32 11.03-3.19-1.16-1.16-3.19a1.032 1.032 0 0 0-1.94 0L9.87 9.87l-3.19 1.16a1.032 1.032 0 0 0 0 1.94l3.19 1.16 1.16 3.19a1.032 1.032 0 0 0 1.94 0l1.16-3.19 3.19-1.16a1.033 1.033 0 0 0 0-1.94Zm-4.262 1.658a.62.62 0 0 0-.371.37L12 15.982l-.688-2.922a.62.62 0 0 0-.371-.371L8.019 12l2.922-.688a.62.62 0 0 0 .371-.37L12 8.018l.687 2.922a.62.62 0 0 0 .371.371L15.98 12l-2.922.688Z"/>
</svg>
