<svg width="80" height="80" viewBox="0 0 80 80" fill="none" xmlns="http://www.w3.org/2000/svg">
<path fill-rule="evenodd" clip-rule="evenodd" d="M51.9999 58.9687H27.9999L26.514 64.3466C25.2029 69.2418 23.0772 71.6892 20.1368 71.6887C18.1248 71.6887 16.3344 71.2018 14.7656 70.228C13.1953 69.2542 12.2734 67.8538 11.9999 66.0266C11.9999 64.0956 12.1903 62.6087 12.5712 61.566L29.4176 15.6598C30.2858 13.275 31.6532 11.3504 33.5199 9.886C35.3865 8.42163 37.5465 7.6892 39.9999 7.68872C42.4521 7.68872 44.6118 8.41331 46.4788 9.86248C48.3457 11.3117 49.7135 13.2441 50.5821 15.6598L67.4286 61.566C67.809 62.6529 67.9994 64.1398 67.9999 66.0266C67.7853 67.839 66.8899 69.2358 65.3136 70.217C63.7364 71.1977 61.9116 71.6884 59.8392 71.689C58.4822 71.689 57.271 71.1 56.2055 69.9221C55.1453 68.7563 54.3707 67.36 53.9428 65.8434L51.9999 58.9687ZM47.6799 46.2487L40.0918 22.6984L32.4799 46.2487H47.6799Z" fill="white"/>
</svg>
