<svg width="80" height="80" viewBox="0 0 80 80" fill="none" xmlns="http://www.w3.org/2000/svg">
<path fill-rule="evenodd" clip-rule="evenodd" d="M69.3617 60.0534C69.1238 59.3096 68.9957 58.5351 68.9817 57.7544C69.0106 55.1704 69.0265 53.6344 69.0251 50.9544C69.4457 39.6988 60.6338 36.6227 50.7858 38.12L43.9466 17.702C42.2325 12.704 38.9601 10 34.6748 10C29.9998 10 27.039 12.7857 25.0132 18.603C24.5947 20.77 8.96008 62.1692 9.97536 63.5848C9.97536 67.2714 12.469 69.8932 15.9754 69.8932C20.8731 70.3883 22.6378 62.1612 23.9226 58.0945H39.3551C38.3955 67.7698 48.8801 72.32 56.9572 68.824C57.5517 68.5758 58.1329 68.2968 58.6985 67.9883C60.3945 69.6224 62.1298 69.9681 63.2825 69.9674C68.4394 69.803 71.5201 65.1675 69.3617 60.0534ZM65.2294 65.2192C62.8667 67.2238 60.9213 64.8752 59.5851 62.6226C55.4392 66.2546 47.6578 67.8807 44.2293 62.6226C41.7434 58.5644 44.3733 53.5981 49.0799 52.8233C50.3231 52.547 54.2049 51.7779 55.7245 51.4C56.7902 51.1466 57.9466 50.8388 59.1937 50.4765C59.1209 48.9121 58.8055 47.764 58.2475 47.0325C57.2565 45.6014 53.0226 45.672 51.3744 46.5654C50.1584 47.0424 48.897 49.3292 48.2642 50.118C47.6816 50.7546 45.7719 50.6189 45.0886 49.879C44.8527 49.677 44.6648 49.4249 44.5388 49.1411C44.4128 48.8572 44.3517 48.5488 44.3601 48.2384C44.4365 45.6544 46.3041 43.8074 48.9276 42.7628C52.2295 41.401 58.0422 41.5537 60.9338 42.7302C66.6278 45.0974 64.6858 52.7 64.9796 57.7337C64.99 58.9173 65.1769 60.0926 65.534 61.2211C66.0925 63.3641 66.5817 63.848 65.2294 65.2192ZM27.5066 45.8868L34.363 24.256C34.341 24.3983 40.8328 45.7628 40.6928 45.8863L27.5066 45.8868ZM55.3982 55.0502C52.6762 55.7571 51.9143 55.4575 50.1237 56.8102C48.8625 57.8338 49.0186 60.0758 50.2757 61.1343C52.4096 63.0155 56.4266 61.9008 58.053 59.8207C59.0869 58.5987 59.2278 56.3472 59.1934 54.04C58.341 54.3639 56.6504 54.7889 55.3982 55.0502Z" fill="#EEEEEE"/>
</svg>
