<svg width="80" height="80" viewBox="0 0 80 80" fill="none" xmlns="http://www.w3.org/2000/svg">
<g id="layers">
<path id="Vector" fill-rule="evenodd" clip-rule="evenodd" d="M68.9016 49.7995L64.0827 47.0537L43.7742 59.184C42.6206 59.8711 41.3028 60.2338 39.9601 60.2338C38.6174 60.2338 37.2996 59.8711 36.146 59.184L15.8374 47.0536L11.0186 49.7995C10.6934 50.0074 10.427 50.2952 10.2448 50.6354C10.0626 50.9757 9.97074 51.357 9.978 51.7428C9.98526 52.1287 10.0914 52.5063 10.2863 52.8394C10.4811 53.1726 10.7582 53.4501 11.091 53.6456L37.1982 69.24C38.0336 69.7376 38.9878 70.0002 39.9601 70.0002C40.9324 70.0002 41.8866 69.7376 42.7219 69.24L68.8292 53.6456C69.162 53.4501 69.4391 53.1726 69.6339 52.8394C69.8288 52.5063 69.9349 52.1287 69.9422 51.7428C69.9494 51.357 69.8576 50.9757 69.6754 50.6354C69.4932 50.2952 69.2268 50.0074 68.9016 49.7995ZM68.9016 38.0402L63.739 35.0985L55.6374 39.9376L54.6506 40.5271L53.6636 41.1166L43.7742 47.024C42.6206 47.7111 41.3028 48.0738 39.9601 48.0738C38.6174 48.0738 37.2996 47.7111 36.146 47.024L26.2566 41.1166L25.2697 40.5271L24.2827 39.9376L16.1812 35.0985L11.0186 38.04C10.6934 38.2479 10.427 38.5357 10.2448 38.8759C10.0626 39.2162 9.97074 39.5974 9.978 39.9833C9.98526 40.3692 10.0914 40.7468 10.2863 41.0799C10.4811 41.413 10.7582 41.6906 11.091 41.8861L15.8618 44.736L16.8487 45.3255L17.8357 45.915L37.1982 57.4805C38.0336 57.9781 38.9878 58.2407 39.9601 58.2407C40.9324 58.2407 41.8866 57.9781 42.7219 57.4805L62.0845 45.915L63.0714 45.3255L64.0584 44.736L68.8292 41.8863C69.162 41.6909 69.4392 41.4133 69.634 41.0801C69.8289 40.747 69.9351 40.3694 69.9424 39.9834C69.9496 39.5975 69.8578 39.2162 69.6755 38.8759C69.4933 38.5357 69.2268 38.2479 68.9016 38.04V38.0402ZM11.091 29.7258L16.2055 32.7808L17.1925 33.3704L18.1794 33.9598L26.281 38.799L27.2679 39.3885L28.2549 39.978L37.1982 45.32C38.0336 45.8176 38.9878 46.0802 39.9601 46.0802C40.9324 46.0802 41.8866 45.8176 42.7219 45.32L51.6654 39.978L52.6523 39.3885L53.6392 38.799L61.7408 33.9598L62.7281 33.3704L63.715 32.7808L68.8296 29.7258C69.1624 29.5303 69.4394 29.2527 69.6342 28.9196C69.829 28.5864 69.9351 28.2088 69.9424 27.823C69.9496 27.4371 69.8577 27.0558 69.6755 26.7156C69.4933 26.3754 69.2268 26.0876 68.9016 25.8798L42.1854 10.6565C41.5223 10.228 40.7496 10 39.9601 10C39.1706 10 38.3978 10.228 37.7347 10.6565L11.0186 25.88C10.6934 26.0879 10.4271 26.3757 10.2449 26.7159C10.0628 27.0561 9.97093 27.4374 9.9782 27.8232C9.98546 28.209 10.0916 28.5866 10.2864 28.9197C10.4812 29.2528 10.7582 29.5304 11.091 29.7258Z" fill="#EEEEEE"/>
</g>
</svg>
