<svg width="24" height="24" viewBox="0 0 24 24" fill="none" xmlns="http://www.w3.org/2000/svg">
<path d="M12 3.36035C12.7861 3.36035 13.4728 3.79072 13.8428 4.43164L21.3096 17.3916C21.4941 17.7112 21.5996 18.0835 21.5996 18.4805C21.5994 19.6731 20.6448 20.6396 19.4668 20.6396H4.5332C3.35519 20.6396 2.40064 19.6731 2.40039 18.4805C2.40039 18.0835 2.50588 17.7112 2.69043 17.3916L2.70801 17.3613L2.70898 17.3594L10.1572 4.43164C10.5273 3.79072 11.2139 3.36035 12 3.36035ZM12 16.0801C11.6663 16.0801 11.382 16.2008 11.1494 16.4404C10.9166 16.6804 10.7998 16.9604 10.7998 17.2803C10.7998 17.6099 10.9167 17.8925 11.1494 18.127C11.3681 18.3562 11.6777 18.4844 12 18.4795C12.3345 18.4795 12.6176 18.3622 12.8506 18.127C13.0835 17.8925 13.2002 17.6101 13.2002 17.2803C13.2002 16.9602 13.0836 16.6805 12.8506 16.4404C12.6176 16.2008 12.3345 16.0801 12 16.0801ZM12.001 6.48047C11.3582 6.48047 10.83 6.93504 10.7998 7.50488L11.04 14.6396H12.96L13.2002 7.50488C13.17 6.93505 12.6437 6.48048 12.001 6.48047Z" fill="#FFD000"/>
</svg>
