<svg width="107" height="48" viewBox="0 0 107 48" fill="none" xmlns="http://www.w3.org/2000/svg">
<mask id="path-1-inside-1_2145_12273" fill="white">
<path d="M0 0H107V48H0V0Z"/>
</mask>
<path d="M0 0V-1H-1V0H0ZM107 0H108V-1H107V0ZM107 48V49H108V48H107ZM0 48H-1V49H0V48ZM0 1H107V-1H0V1ZM106 0V48H108V0H106ZM107 47H0V49H107V47ZM1 48V0H-1V48H1Z" fill="#EEEEEE" mask="url(#path-1-inside-1_2145_12273)"/>
<path d="M33.3212 18.576H35.8332V27.888H41.4012V30H33.3212V18.576ZM42.6696 24.272C42.7016 23.7387 42.8349 23.296 43.0696 22.944C43.3042 22.592 43.6029 22.3093 43.9656 22.096C44.3282 21.8827 44.7336 21.7333 45.1816 21.648C45.6402 21.552 46.0989 21.504 46.5576 21.504C46.9736 21.504 47.3949 21.536 47.8216 21.6C48.2482 21.6533 48.6376 21.7653 48.9896 21.936C49.3416 22.1067 49.6296 22.3467 49.8536 22.656C50.0776 22.9547 50.1896 23.3547 50.1896 23.856V28.16C50.1896 28.5333 50.2109 28.8907 50.2536 29.232C50.2962 29.5733 50.3709 29.8293 50.4776 30H48.1736C48.1309 29.872 48.0936 29.744 48.0616 29.616C48.0402 29.4773 48.0242 29.3387 48.0136 29.2C47.6509 29.5733 47.2242 29.8347 46.7336 29.984C46.2429 30.1333 45.7416 30.208 45.2296 30.208C44.8349 30.208 44.4669 30.16 44.1256 30.064C43.7842 29.968 43.4856 29.8187 43.2296 29.616C42.9736 29.4133 42.7709 29.1573 42.6216 28.848C42.4829 28.5387 42.4136 28.1707 42.4136 27.744C42.4136 27.2747 42.4936 26.8907 42.6536 26.592C42.8242 26.2827 43.0376 26.0373 43.2936 25.856C43.5602 25.6747 43.8589 25.5413 44.1896 25.456C44.5309 25.36 44.8722 25.2853 45.2136 25.232C45.5549 25.1787 45.8909 25.136 46.2216 25.104C46.5522 25.072 46.8456 25.024 47.1016 24.96C47.3576 24.896 47.5602 24.8053 47.7096 24.688C47.8589 24.56 47.9282 24.3787 47.9176 24.144C47.9176 23.8987 47.8749 23.7067 47.7896 23.568C47.7149 23.4187 47.6082 23.3067 47.4696 23.232C47.3416 23.1467 47.1869 23.0933 47.0056 23.072C46.8349 23.04 46.6482 23.024 46.4456 23.024C45.9976 23.024 45.6456 23.12 45.3896 23.312C45.1336 23.504 44.9842 23.824 44.9416 24.272H42.6696ZM47.9176 25.952C47.8216 26.0373 47.6989 26.1067 47.5496 26.16C47.4109 26.2027 47.2562 26.24 47.0856 26.272C46.9256 26.304 46.7549 26.3307 46.5736 26.352C46.3922 26.3733 46.2109 26.4 46.0296 26.432C45.8589 26.464 45.6882 26.5067 45.5176 26.56C45.3576 26.6133 45.2136 26.688 45.0856 26.784C44.9682 26.8693 44.8722 26.9813 44.7976 27.12C44.7229 27.2587 44.6856 27.4347 44.6856 27.648C44.6856 27.8507 44.7229 28.0213 44.7976 28.16C44.8722 28.2987 44.9736 28.4107 45.1016 28.496C45.2296 28.5707 45.3789 28.624 45.5496 28.656C45.7202 28.688 45.8962 28.704 46.0776 28.704C46.5256 28.704 46.8722 28.6293 47.1176 28.48C47.3629 28.3307 47.5442 28.1547 47.6616 27.952C47.7789 27.7387 47.8482 27.5253 47.8696 27.312C47.9016 27.0987 47.9176 26.928 47.9176 26.8V25.952ZM58.2171 25.872C58.2171 25.52 58.1797 25.184 58.1051 24.864C58.0304 24.544 57.9131 24.2613 57.7531 24.016C57.5931 23.7707 57.3904 23.5787 57.1451 23.44C56.9104 23.2907 56.6224 23.216 56.2811 23.216C55.9504 23.216 55.6624 23.2907 55.4171 23.44C55.1717 23.5787 54.9691 23.7707 54.8091 24.016C54.6491 24.2613 54.5317 24.544 54.4571 24.864C54.3824 25.184 54.3451 25.52 54.3451 25.872C54.3451 26.2133 54.3824 26.544 54.4571 26.864C54.5317 27.184 54.6491 27.4667 54.8091 27.712C54.9691 27.9573 55.1717 28.1547 55.4171 28.304C55.6624 28.4427 55.9504 28.512 56.2811 28.512C56.6224 28.512 56.9104 28.4427 57.1451 28.304C57.3904 28.1547 57.5931 27.9573 57.7531 27.712C57.9131 27.4667 58.0304 27.184 58.1051 26.864C58.1797 26.544 58.2171 26.2133 58.2171 25.872ZM52.1531 18.576H54.4251V22.736H54.4571C54.7344 22.3093 55.1077 22 55.5771 21.808C56.0571 21.6053 56.5531 21.504 57.0651 21.504C57.4811 21.504 57.8917 21.5893 58.2971 21.76C58.7024 21.9307 59.0651 22.192 59.3851 22.544C59.7157 22.896 59.9824 23.3493 60.1851 23.904C60.3877 24.448 60.4891 25.0987 60.4891 25.856C60.4891 26.6133 60.3877 27.2693 60.1851 27.824C59.9824 28.368 59.7157 28.816 59.3851 29.168C59.0651 29.52 58.7024 29.7813 58.2971 29.952C57.8917 30.1227 57.4811 30.208 57.0651 30.208C56.4571 30.208 55.9131 30.112 55.4331 29.92C54.9531 29.728 54.5904 29.4027 54.3451 28.944H54.3131V30H52.1531V18.576ZM67.7023 24.976C67.5956 24.4 67.4036 23.9627 67.1263 23.664C66.8596 23.3653 66.449 23.216 65.8943 23.216C65.5316 23.216 65.2276 23.28 64.9823 23.408C64.7476 23.5253 64.5556 23.6747 64.4063 23.856C64.2676 24.0373 64.1663 24.2293 64.1023 24.432C64.049 24.6347 64.017 24.816 64.0063 24.976H67.7023ZM64.0063 26.416C64.0383 27.152 64.225 27.6853 64.5663 28.016C64.9076 28.3467 65.3983 28.512 66.0383 28.512C66.497 28.512 66.8916 28.4 67.2223 28.176C67.553 27.9413 67.7556 27.696 67.8303 27.44H69.8303C69.5103 28.432 69.0196 29.1413 68.3583 29.568C67.697 29.9947 66.897 30.208 65.9583 30.208C65.3076 30.208 64.721 30.1067 64.1983 29.904C63.6756 29.6907 63.233 29.392 62.8703 29.008C62.5076 28.624 62.225 28.1653 62.0223 27.632C61.8303 27.0987 61.7343 26.512 61.7343 25.872C61.7343 25.2533 61.8356 24.6773 62.0383 24.144C62.241 23.6107 62.529 23.152 62.9023 22.768C63.2756 22.3733 63.7183 22.064 64.2303 21.84C64.753 21.616 65.329 21.504 65.9583 21.504C66.6623 21.504 67.2756 21.6427 67.7983 21.92C68.321 22.1867 68.7476 22.5493 69.0783 23.008C69.4196 23.4667 69.665 23.9893 69.8143 24.576C69.9636 25.1627 70.017 25.776 69.9743 26.416H64.0063ZM71.5858 18.576H73.8578V30H71.5858V18.576Z" fill="#EEEEEE"/>
</svg>
