<svg width="64" height="64" viewBox="0 0 64 64" fill="none" xmlns="http://www.w3.org/2000/svg">
<path d="M48.8457 20.1547C48.1056 19.4153 47.1024 19 46.0564 19C45.0104 19 44.0072 19.4153 43.2672 20.1547L27.9525 35.4745L20.6379 28.1547C19.8896 27.4573 18.9 27.0776 17.8774 27.0956C16.8549 27.1137 15.8792 27.5281 15.1561 28.2515C14.4329 28.9749 14.0187 29.9509 14.0006 30.9738C13.9826 31.9968 14.3621 32.9867 15.0593 33.7352L25.1633 43.8453C25.9033 44.5847 26.9065 45 27.9525 45C28.9985 45 30.0017 44.5847 30.7418 43.8453L48.8457 25.7352C49.5848 24.9949 50 23.9913 50 22.945C50 21.8986 49.5848 20.8951 48.8457 20.1547Z" fill="black"/>
</svg>
