<svg width="64" height="64" viewBox="0 0 64 64" fill="none" xmlns="http://www.w3.org/2000/svg">
<path fill-rule="evenodd" clip-rule="evenodd" d="M26.3126 40.1259C18.684 40.1259 12.5 33.942 12.5 26.3134C12.5 18.684 18.684 12.5 26.3126 12.5C33.9412 12.5 40.1251 18.684 40.1251 26.3134C40.1251 33.942 33.9412 40.1259 26.3126 40.1259ZM57.5265 52.7856L42.8503 38.1101C45.3122 34.6692 46.6325 30.5433 46.6252 26.3134C46.6252 15.0943 37.5316 6 26.3126 6C15.0935 6 6 15.0943 6 26.3134C6 37.5324 15.0935 46.626 26.3126 46.626C30.5433 46.6333 34.67 45.313 38.1101 42.8511L52.7847 57.5257C53.4209 58.1578 54.4471 58.1578 55.0833 57.5257L57.5265 55.0833C58.1578 54.4479 58.1578 53.4209 57.5265 52.7856Z" fill="black"/>
</svg>
