<svg width="80" height="80" viewBox="0 0 80 80" fill="none" xmlns="http://www.w3.org/2000/svg">
<path fill-rule="evenodd" clip-rule="evenodd" d="M40.0001 6.00024C21.2224 6.00024 6.00012 21.2226 6.00012 40.0002C6.00012 58.7779 21.2224 74.0002 40.0001 74.0002C58.7778 74.0002 74.0001 58.7779 74.0001 40.0002C74.0001 21.2226 58.7778 6.00024 40.0001 6.00024ZM40.0001 14.8875L35.4551 10.3425C36.9593 10.1142 38.4787 9.99982 40.0001 10.0002V14.8875ZM38.5075 69.9635L10.0368 41.4929C10.0127 40.9983 10.0004 40.5008 10.0001 40.0002C9.99984 38.6814 10.0858 37.3639 10.2576 36.0562L40.0001 65.7993V70.0002C39.4996 70.0002 39.0021 69.988 38.5075 69.9635ZM11.2528 31.395C11.6717 29.9932 12.1934 28.6241 12.8137 27.299L40.0001 54.4855V60.1424L11.2528 31.395ZM14.8349 23.6634C15.5701 22.5332 16.3804 21.4537 17.2604 20.4322L40.0001 43.1718V48.8286L14.8349 23.6634ZM20.066 17.5807C21.071 16.6864 22.1347 15.8604 23.25 15.1082L40.0001 31.8581V37.515L20.066 17.5807ZM26.8352 13.0362C28.1391 12.3983 29.4879 11.8565 30.8708 11.4151L40.0001 20.5442V26.2011L26.8352 13.0362ZM11.1537 48.2666L31.7338 68.8466C26.8415 67.4394 22.3868 64.8129 18.7871 61.2132C15.1875 57.6136 12.561 53.1588 11.1537 48.2666Z" fill="white"/>
</svg>
