<svg width="64" height="64" viewBox="0 0 64 64" fill="none" xmlns="http://www.w3.org/2000/svg">
<path fill-rule="evenodd" clip-rule="evenodd" d="M34.4001 48.2304C33.7509 48.8227 32.9003 49.1469 32.0219 49.1363C31.1347 49.1493 30.2751 48.8292 29.6105 48.2417C28.9239 47.6454 28.5802 46.8117 28.5802 45.7401C28.5802 44.8032 28.9085 44.007 29.565 43.3497C30.2206 42.694 31.025 42.3649 31.9773 42.3649C32.9279 42.3649 33.7396 42.694 34.4123 43.3497C35.068 43.9704 35.4328 44.8374 35.4198 45.7401C35.4198 46.7963 35.0794 47.6267 34.4001 48.2304ZM29.565 15.9037C30.1873 15.2383 31.0031 14.8986 32 14.8645C32.9953 14.8986 33.8111 15.2383 34.4343 15.9037C35.0908 16.6049 35.4182 17.5823 35.419 18.836C35.419 19.7566 34.128 36.685 33.8111 37.3724C33.495 38.0581 32.9279 38.4026 32.1129 38.4026C32.0715 38.4026 32.039 38.3913 32 38.3888C31.9602 38.3913 31.9269 38.4026 31.8863 38.4026C31.0705 38.4026 30.505 38.0589 30.1881 37.3724C29.8713 36.685 28.5802 19.7558 28.5802 18.836C28.5802 17.5823 28.9085 16.6049 29.565 15.9037ZM32 6C17.6407 6 6 17.6415 6 32C6 46.3593 17.6407 58 32 58C46.3593 58 58 46.3593 58 32C58 17.6415 46.3593 6 32 6Z" fill="black"/>
</svg>
