<svg width="24" height="24" viewBox="0 0 24 24" fill="none" xmlns="http://www.w3.org/2000/svg">
<path fill-rule="evenodd" clip-rule="evenodd" d="M12 1.77002C6.35013 1.77002 1.76999 6.35018 1.76999 12C1.76999 17.6499 6.35013 22.23 12 22.23C17.6499 22.23 22.23 17.6499 22.23 12C22.23 6.35013 17.6499 1.77002 12 1.77002ZM11.0419 5.66642C11.2869 5.40468 11.608 5.27088 12 5.25746C12.3916 5.27088 12.7128 5.40468 12.9577 5.66642C13.2159 5.94252 13.3451 6.32715 13.3453 6.82032C13.3453 7.18243 12.8373 13.8434 12.7127 14.1136C12.5882 14.3837 12.3651 14.519 12.0442 14.519C12.0282 14.519 12.0154 14.5143 12 14.5135C11.9844 14.5143 11.9712 14.519 11.9554 14.519C11.6346 14.519 11.4118 14.3838 11.2872 14.1136C11.1624 13.8434 10.6546 7.18236 10.6546 6.82032C10.6546 6.32716 10.7837 5.94253 11.0419 5.66642ZM12.9444 18.3861C12.6889 18.6191 12.3545 18.7465 12.0087 18.7425C11.6596 18.7474 11.3212 18.6218 11.0598 18.3903C10.7897 18.1558 10.6546 17.8277 10.6546 17.4061C10.6546 17.0377 10.7837 16.7243 11.0419 16.4658C11.3001 16.2073 11.6165 16.0782 11.991 16.0783C12.3651 16.0783 12.6844 16.2074 12.9489 16.4658C13.2071 16.7098 13.351 17.0509 13.3455 17.4061C13.3455 17.8218 13.2118 18.1484 12.9444 18.3861Z" fill="black"/>
</svg>
