<svg xmlns="http://www.w3.org/2000/svg" width="24" height="24" fill="currentColor" viewBox="0 0 24 24">
  <path fill-rule="evenodd" d="M12.25 5c3.11 0 5.733 1.407 7.386 2.587a.704.704 0 0 1-.817 1.144 14.642 14.642 0 0 0-.95-.624 6.619 6.619 0 0 1 1.047 3.573 6.62 6.62 0 0 1-1.021 3.528c1.611-.969 3.026-2.235 4.025-3.524-.1-.127-.207-.26-.324-.398a.703.703 0 1 1 1.074-.907c.273.323.501.616.7.893a.702.702 0 0 1 .001.812c-2.128 3.022-6.517 6.275-11.121 6.275-4.507 0-9.01-3.162-11.129-6.285a.703.703 0 0 1 .012-.805C2.95 8.749 7.41 5 12.25 5Zm0 1.42c-2.9 0-5.26 2.36-5.26 5.26s2.36 5.26 5.26 5.26 5.26-2.36 5.26-5.26-2.36-5.26-5.26-5.26ZM6.58 8.19c-1.692 1.04-3.1 2.366-4.004 3.5.966 1.28 2.396 2.563 4.044 3.542a6.619 6.619 0 0 1-1.036-3.553c0-1.28.369-2.472.996-3.489Z" clip-rule="evenodd"/>
</svg>
