<svg width="96" height="96" viewBox="0 0 96 96" fill="none" xmlns="http://www.w3.org/2000/svg">
<path d="M81.8641 27.707L48.0088 7.3916L14.1123 27.6889L14.1461 68.3081L47.9862 88.6076L63.0354 79.5985V79.6422L66.8391 77.3388V77.3215L81.8676 68.3246V68.2732L81.8879 68.2609V27.6925L81.8641 27.707ZM51.7898 50.3101L55.5109 48.0722V79.6279L51.7898 81.8611V50.3101ZM47.9862 11.9082L74.3094 27.6889L48.0068 43.4972L21.6707 27.7091L47.9862 11.9082ZM59.3142 77.3451V45.7846L63.0353 43.5465V75.1119L59.3142 77.3451ZM66.8389 41.2587L70.5603 39.0209V70.5959L66.8393 72.8291V41.259L66.8389 41.2587ZM74.3636 68.3132V36.7333L78.0847 34.4953V66.0799L74.3636 68.3132Z" fill="black" fill-opacity="0.68"/>
</svg>
