<svg width="64" height="64" viewBox="0 0 64 64" fill="none" xmlns="http://www.w3.org/2000/svg">
<path d="M22.0624 14.0444C21.3821 14.714 21 15.6216 21 16.568C21 17.5144 21.3821 18.422 22.0624 19.0916L35.2366 32.043L22.0624 44.9943C21.4207 45.6713 21.0714 46.5667 21.088 47.4918C21.1046 48.417 21.4858 49.2997 22.1514 49.954C22.8169 50.6083 23.7148 50.9831 24.6559 50.9994C25.597 51.0158 26.5078 50.6723 27.1964 50.0415L42.9376 34.5666C43.6179 33.897 44 32.9893 44 32.043C44 31.0966 43.6179 30.1889 42.9376 29.5194L27.1964 14.0444C26.5153 13.3756 25.592 13 24.6294 13C23.6668 13 22.7435 13.3756 22.0624 14.0444Z" fill="black"/>
</svg>
