<svg width="24" height="24" viewBox="0 0 24 24" fill="none" xmlns="http://www.w3.org/2000/svg">
<path fill-rule="evenodd" clip-rule="evenodd" d="M19.8866 21.0001H4.11326C3.30693 21.0016 2.56148 20.5714 2.15946 19.8724C1.75744 19.1734 1.76036 18.3127 2.16713 17.6165L2.18546 17.5847L2.18633 17.5832L10.0535 4.1164C10.4579 3.42497 11.1989 3 11.9999 3C12.8009 3 13.5417 3.42497 13.9461 4.1164L21.833 17.6164C22.2398 18.3126 22.2425 19.1735 21.8404 19.8724C21.4384 20.5714 20.6929 21.0017 19.8866 21.0001ZM12.0239 18.6001C11.3943 18.6 10.884 18.0896 10.8841 17.46C10.8842 16.8304 11.3946 16.3201 12.0242 16.3201C12.6537 16.3201 13.1641 16.8305 13.1641 17.4601C13.1641 17.7625 13.044 18.0525 12.8301 18.2663C12.6163 18.4801 12.3263 18.6002 12.0239 18.6001ZM13.1608 8.4232L12.784 14.6181C12.7837 15.0377 12.4435 15.1953 12.0239 15.1953C11.6042 15.1953 11.264 15.0377 11.2638 14.6181L10.886 8.40892C10.8846 8.38614 10.8837 8.36332 10.8837 8.34011C10.8837 7.71041 11.3942 7.19994 12.0239 7.19994C12.6536 7.19994 13.1641 7.71041 13.1641 8.34011C13.1641 8.3681 13.1627 8.39572 13.1608 8.4232Z" fill="#FFD000"/>
</svg>
