<svg width="16" height="16" viewBox="0 0 16 16" fill="none" xmlns="http://www.w3.org/2000/svg">
<g id="Symboles/Signal&#195;&#169;tique/Tick">
<path id="Icon" fill-rule="evenodd" clip-rule="evenodd" d="M13.2916 5.04949C13.2917 5.04952 13.2917 5.04958 13.2916 5.04962L7.22281 12.0495C7.22278 12.0495 7.22271 12.0495 7.22266 12.0495C7.22262 12.0495 7.22255 12.0495 7.22252 12.0495C7.04875 12.2496 6.78179 12.3779 6.48227 12.3779C6.18272 12.3779 5.91579 12.2496 5.74199 12.0495C5.74196 12.0495 5.74191 12.0495 5.74187 12.0495C5.74182 12.0495 5.74177 12.0495 5.74174 12.0495L2.70737 8.54961C2.70734 8.54957 2.70735 8.54952 2.70739 8.54949C2.70742 8.54946 2.70743 8.5494 2.7074 8.54937C2.57742 8.3996 2.49951 8.20973 2.49951 8.00293C2.49951 7.7613 2.60564 7.54257 2.77724 7.38422L3.15657 7.03422C3.32817 6.87586 3.56524 6.77793 3.8271 6.77793C4.06272 6.77793 4.27814 6.85742 4.44399 6.9887C4.44403 6.98873 4.4441 6.98872 4.44414 6.98868C4.44418 6.98863 4.44425 6.98863 4.4443 6.98867L5.44017 8.00662C5.91706 8.49408 6.69304 8.52011 7.20152 8.06571L11.9026 3.86467C11.9026 3.86463 11.9027 3.86463 11.9028 3.86467C11.9028 3.86472 11.9029 3.86472 11.9029 3.86467C12.0725 3.71794 12.3004 3.62793 12.5512 3.62793C13.0749 3.62793 13.4995 4.01969 13.4995 4.50295C13.4995 4.7097 13.4216 4.89959 13.2916 5.04936C13.2916 5.0494 13.2916 5.04946 13.2916 5.04949Z" fill="black"/>
</g>
</svg>
