<svg width="64" height="64" viewBox="0 0 64 64" fill="none" xmlns="http://www.w3.org/2000/svg">
<path d="M14.0444 41.9376C14.714 42.6179 15.6216 43 16.568 43C17.5144 43 18.422 42.6179 19.0916 41.9376L32.043 28.7634L44.9943 41.9376C45.6713 42.5793 46.5667 42.9286 47.4918 42.912C48.417 42.8954 49.2997 42.5142 49.954 41.8486C50.6083 41.1831 50.9831 40.2852 50.9994 39.3441C51.0158 38.403 50.6723 37.4922 50.0415 36.8036L34.5666 21.0624C33.897 20.3821 32.9893 20 32.043 20C31.0966 20 30.1889 20.3821 29.5194 21.0624L14.0444 36.8036C13.3756 37.4847 13 38.408 13 39.3706C13 40.3332 13.3756 41.2565 14.0444 41.9376Z" fill="black"/>
</svg>
