<svg xmlns="http://www.w3.org/2000/svg" width="24" height="24" fill="currentColor" viewBox="0 0 24 24">
  <g clip-path="url(#a)">
    <path fill-rule="evenodd" d="M24 0c0-1.988 1.988 0 0 0v24c0 1.988 1.988 0 0 0H0c-1.988 0 0 1.988 0 0V0c-1.988 0 0-1.988 0 0h24Zm-6.773 6.345-7.636 8.46L6.75 11.66c-.366-.39-1.13-.536-1.614.01-.478.543-.402 1.418-.038 1.805L8.78 17.56c.183.195.587.441.827.441s.592-.212.775-.407l8.52-9.42c.364-.389.444-1.29-.043-1.819-.494-.539-1.266-.398-1.632-.009Z" clip-rule="evenodd"/>
  </g>
  <defs>
    <clipPath id="a">
      <path fill="#fff" d="M0 0h24v24H0z"/>
    </clipPath>
  </defs>
</svg>
