<svg width="64" height="64" viewBox="0 0 64 64" fill="none" xmlns="http://www.w3.org/2000/svg">
<g clip-path="url(#clip0_61012_37609)">
<path fill-rule="evenodd" clip-rule="evenodd" d="M54.4 0C59.7019 0 64 4.29807 64 9.6V54.4C64 59.7019 59.7019 64 54.4 64H9.6C4.29807 64 0 59.7019 0 54.4V9.6C0 4.29807 4.29807 0 9.6 0H54.4ZM45.9391 16.92L25.5769 39.4803L17.9977 31.0942C17.0229 30.0551 14.9825 29.6631 13.6946 31.1185C12.4177 32.5679 12.6209 34.9014 13.593 35.9344L23.413 46.8241C23.9018 47.3437 24.9783 48 25.6181 48C26.2579 48 27.1971 47.4349 27.6859 46.9153L50.4042 21.7936C51.3764 20.7575 51.5905 18.3572 50.2916 16.9443C48.9735 15.5071 46.914 15.8839 45.9391 16.92Z" fill="black"/>
</g>
<defs>
<clipPath id="clip0_61012_37609">
<rect width="64" height="64" fill="white"/>
</clipPath>
</defs>
</svg>
