<svg xmlns="http://www.w3.org/2000/svg" width="24" height="24" fill="currentColor" viewBox="0 0 24 24">
  <g clip-path="url(#a)">
    <path fill="#FFD000" d="M12 3.36c.786 0 1.473.43 1.843 1.072l7.467 12.96c.184.32.29.692.29 1.088 0 1.193-.955 2.16-2.133 2.16H4.533c-1.178 0-2.132-.967-2.133-2.16 0-.396.106-.769.29-1.088l.018-.03.001-.003 7.448-12.927A2.127 2.127 0 0 1 12 3.36Zm0 12.72c-.334 0-.618.12-.85.36-.233.24-.35.52-.35.84 0 .33.117.612.35.847.218.23.528.357.85.353.335 0 .618-.118.85-.353.234-.235.35-.517.35-.847 0-.32-.116-.6-.35-.84a1.142 1.142 0 0 0-.85-.36Zm.001-9.6c-.643 0-1.171.455-1.201 1.025l.24 7.135h1.92l.24-7.135c-.03-.57-.556-1.025-1.199-1.025Z"/>
    <path fill="#856A00" d="M10.8 7.505c.03-.57.558-1.025 1.2-1.025.643 0 1.17.455 1.2 1.025l-.24 7.135h-1.92l-.24-7.135Zm2.05 10.622a1.15 1.15 0 0 1-.85.353 1.15 1.15 0 0 1-.85-.353 1.16 1.16 0 0 1-.35-.847c0-.32.116-.6.35-.84.232-.24.516-.36.85-.36.334 0 .618.12.85.36.234.24.35.52.35.84 0 .33-.116.613-.35.847Z"/>
  </g>
  <defs>
    <clipPath id="a">
      <path fill="#fff" d="M0 0h24v24H0z"/>
    </clipPath>
  </defs>
</svg>
