<svg xmlns="http://www.w3.org/2000/svg" width="24" height="24" fill="currentColor" viewBox="0 0 24 24">
  <path fill-rule="evenodd" d="M12.314 6.003c-.097 0-.193-.003-.29-.003-.097 0-.194.003-.29.003C7.232 6.003 2.676 9.176 1.2 12c1.476 2.824 5.984 5.997 10.486 5.997.096 0 .193.003.29.003.097 0 .193-.003.29-.003 4.502 0 9.058-3.173 10.534-5.997-1.476-2.824-5.984-5.997-10.486-5.997Zm-.347 10.317a4.32 4.32 0 1 1 0-8.64 4.32 4.32 0 0 1 0 8.64ZM2.89 12c.715-.997 1.858-2.017 3.19-2.827.433-.263.881-.501 1.342-.712a5.756 5.756 0 0 0 .019 7.102 12.877 12.877 0 0 1-1.381-.734C4.74 14.02 3.603 13.002 2.89 12Zm15.03 2.827c-.466.283-.948.537-1.446.76a5.755 5.755 0 0 0-.018-7.196 12.88 12.88 0 0 1 1.485.78C19.26 9.98 20.396 11 21.11 12c-.715.998-1.857 2.018-3.19 2.828Zm-3.57-3.951a1.158 1.158 0 1 1-1.499-1.359 2.634 2.634 0 1 0 1.5 1.359Z" clip-rule="evenodd"/>
</svg>
