<svg xmlns="http://www.w3.org/2000/svg" width="24" height="24" fill="currentColor" viewBox="0 0 24 24">
  <path d="M3 15.78V8.22c0-.741 0-1.351.04-1.847.04-.506.13-.971.352-1.408l.139-.248a3.601 3.601 0 0 1 1.434-1.325l.165-.077c.389-.167.8-.24 1.243-.275C6.87 3 7.48 3 8.22 3h1.98a.9.9 0 1 1 0 1.8H8.22c-.77 0-1.295 0-1.7.033-.395.033-.597.091-.737.163a1.8 1.8 0 0 0-.787.787c-.072.14-.13.342-.163.737-.033.405-.033.93-.033 1.7v7.56c0 .77 0 1.295.033 1.7.033.395.091.597.163.737l.07.124a1.8 1.8 0 0 0 .717.663l.12.051c.134.048.321.087.617.112.405.033.93.033 1.7.033h7.56c.77 0 1.295 0 1.7-.033.395-.033.597-.091.737-.163l.124-.07a1.79 1.79 0 0 0 .663-.717l.051-.12c.048-.134.087-.321.112-.617.033-.405.033-.93.033-1.7V13.8a.9.9 0 1 1 1.8 0v1.98c0 .741 0 1.351-.04 1.847-.04.506-.13.971-.352 1.408a3.601 3.601 0 0 1-1.573 1.573c-.437.223-.902.311-1.408.352-.496.04-1.106.04-1.847.04H8.22c-.741 0-1.351 0-1.847-.04-.442-.036-.854-.108-1.243-.275l-.165-.077a3.6 3.6 0 0 1-1.434-1.325l-.139-.248c-.223-.437-.311-.902-.352-1.408C3 17.13 3 16.52 3 15.78ZM21 9.3a.9.9 0 0 1-1.8 0V6.073l-6.564 6.563a.9.9 0 1 1-1.272-1.272L17.927 4.8H14.7a.9.9 0 1 1 0-1.8h5.4a.9.9 0 0 1 .9.9v5.4Z"/>
</svg>
