<svg width="328" height="184" viewBox="0 0 328 184" fill="none" xmlns="http://www.w3.org/2000/svg">
<rect width="328" height="184" fill="black" fill-opacity="0.04"/>
<path d="M140.686 86.0625L134.625 92L140.686 97.9375L142.418 96.2419L138.088 92L142.418 87.7598L140.686 86.0625Z" fill="#F15E00"/>
<path d="M156.104 86.576H158.616V95.888H164.184V98H156.104V86.576ZM165.452 92.272C165.484 91.7387 165.618 91.296 165.852 90.944C166.087 90.592 166.386 90.3093 166.748 90.096C167.111 89.8827 167.516 89.7333 167.964 89.648C168.423 89.552 168.882 89.504 169.34 89.504C169.756 89.504 170.178 89.536 170.604 89.6C171.031 89.6533 171.42 89.7653 171.772 89.936C172.124 90.1067 172.412 90.3467 172.636 90.656C172.86 90.9547 172.972 91.3547 172.972 91.856V96.16C172.972 96.5333 172.994 96.8907 173.036 97.232C173.079 97.5733 173.154 97.8293 173.26 98H170.956C170.914 97.872 170.876 97.744 170.844 97.616C170.823 97.4773 170.807 97.3387 170.796 97.2C170.434 97.5733 170.007 97.8347 169.516 97.984C169.026 98.1333 168.524 98.208 168.012 98.208C167.618 98.208 167.25 98.16 166.908 98.064C166.567 97.968 166.268 97.8187 166.012 97.616C165.756 97.4133 165.554 97.1573 165.404 96.848C165.266 96.5387 165.196 96.1707 165.196 95.744C165.196 95.2747 165.276 94.8907 165.436 94.592C165.607 94.2827 165.82 94.0373 166.076 93.856C166.343 93.6747 166.642 93.5413 166.972 93.456C167.314 93.36 167.655 93.2853 167.996 93.232C168.338 93.1787 168.674 93.136 169.004 93.104C169.335 93.072 169.628 93.024 169.884 92.96C170.14 92.896 170.343 92.8053 170.492 92.688C170.642 92.56 170.711 92.3787 170.7 92.144C170.7 91.8987 170.658 91.7067 170.572 91.568C170.498 91.4187 170.391 91.3067 170.252 91.232C170.124 91.1467 169.97 91.0933 169.788 91.072C169.618 91.04 169.431 91.024 169.228 91.024C168.78 91.024 168.428 91.12 168.172 91.312C167.916 91.504 167.767 91.824 167.724 92.272H165.452ZM170.7 93.952C170.604 94.0373 170.482 94.1067 170.332 94.16C170.194 94.2027 170.039 94.24 169.868 94.272C169.708 94.304 169.538 94.3307 169.356 94.352C169.175 94.3733 168.994 94.4 168.812 94.432C168.642 94.464 168.471 94.5067 168.3 94.56C168.14 94.6133 167.996 94.688 167.868 94.784C167.751 94.8693 167.655 94.9813 167.58 95.12C167.506 95.2587 167.468 95.4347 167.468 95.648C167.468 95.8507 167.506 96.0213 167.58 96.16C167.655 96.2987 167.756 96.4107 167.884 96.496C168.012 96.5707 168.162 96.624 168.332 96.656C168.503 96.688 168.679 96.704 168.86 96.704C169.308 96.704 169.655 96.6293 169.9 96.48C170.146 96.3307 170.327 96.1547 170.444 95.952C170.562 95.7387 170.631 95.5253 170.652 95.312C170.684 95.0987 170.7 94.928 170.7 94.8V93.952ZM181 93.872C181 93.52 180.963 93.184 180.888 92.864C180.813 92.544 180.696 92.2613 180.536 92.016C180.376 91.7707 180.173 91.5787 179.928 91.44C179.693 91.2907 179.405 91.216 179.064 91.216C178.733 91.216 178.445 91.2907 178.2 91.44C177.955 91.5787 177.752 91.7707 177.592 92.016C177.432 92.2613 177.315 92.544 177.24 92.864C177.165 93.184 177.128 93.52 177.128 93.872C177.128 94.2133 177.165 94.544 177.24 94.864C177.315 95.184 177.432 95.4667 177.592 95.712C177.752 95.9573 177.955 96.1547 178.2 96.304C178.445 96.4427 178.733 96.512 179.064 96.512C179.405 96.512 179.693 96.4427 179.928 96.304C180.173 96.1547 180.376 95.9573 180.536 95.712C180.696 95.4667 180.813 95.184 180.888 94.864C180.963 94.544 181 94.2133 181 93.872ZM174.936 86.576H177.208V90.736H177.24C177.517 90.3093 177.891 90 178.36 89.808C178.84 89.6053 179.336 89.504 179.848 89.504C180.264 89.504 180.675 89.5893 181.08 89.76C181.485 89.9307 181.848 90.192 182.168 90.544C182.499 90.896 182.765 91.3493 182.968 91.904C183.171 92.448 183.272 93.0987 183.272 93.856C183.272 94.6133 183.171 95.2693 182.968 95.824C182.765 96.368 182.499 96.816 182.168 97.168C181.848 97.52 181.485 97.7813 181.08 97.952C180.675 98.1227 180.264 98.208 179.848 98.208C179.24 98.208 178.696 98.112 178.216 97.92C177.736 97.728 177.373 97.4027 177.128 96.944H177.096V98H174.936V86.576ZM190.485 92.976C190.378 92.4 190.186 91.9627 189.909 91.664C189.642 91.3653 189.232 91.216 188.677 91.216C188.314 91.216 188.01 91.28 187.765 91.408C187.53 91.5253 187.338 91.6747 187.189 91.856C187.05 92.0373 186.949 92.2293 186.885 92.432C186.832 92.6347 186.8 92.816 186.789 92.976H190.485ZM186.789 94.416C186.821 95.152 187.008 95.6853 187.349 96.016C187.69 96.3467 188.181 96.512 188.821 96.512C189.28 96.512 189.674 96.4 190.005 96.176C190.336 95.9413 190.538 95.696 190.613 95.44H192.613C192.293 96.432 191.802 97.1413 191.141 97.568C190.48 97.9947 189.68 98.208 188.741 98.208C188.09 98.208 187.504 98.1067 186.981 97.904C186.458 97.6907 186.016 97.392 185.653 97.008C185.29 96.624 185.008 96.1653 184.805 95.632C184.613 95.0987 184.517 94.512 184.517 93.872C184.517 93.2533 184.618 92.6773 184.821 92.144C185.024 91.6107 185.312 91.152 185.685 90.768C186.058 90.3733 186.501 90.064 187.013 89.84C187.536 89.616 188.112 89.504 188.741 89.504C189.445 89.504 190.058 89.6427 190.581 89.92C191.104 90.1867 191.53 90.5493 191.861 91.008C192.202 91.4667 192.448 91.9893 192.597 92.576C192.746 93.1627 192.8 93.776 192.757 94.416H186.789ZM194.369 86.576H196.641V98H194.369V86.576Z" fill="black"/>
</svg>
