<svg width="328" height="185" viewBox="0 0 328 185" fill="none" xmlns="http://www.w3.org/2000/svg">
<path d="M130.104 87.1473H132.616V96.4593H138.184V98.5713H130.104V87.1473ZM139.452 92.8433C139.484 92.31 139.618 91.8673 139.852 91.5153C140.087 91.1633 140.386 90.8806 140.748 90.6673C141.111 90.454 141.516 90.3046 141.964 90.2193C142.423 90.1233 142.882 90.0753 143.34 90.0753C143.756 90.0753 144.178 90.1073 144.604 90.1713C145.031 90.2246 145.42 90.3366 145.772 90.5073C146.124 90.678 146.412 90.918 146.636 91.2273C146.86 91.526 146.972 91.926 146.972 92.4273V96.7313C146.972 97.1046 146.994 97.462 147.036 97.8033C147.079 98.1446 147.154 98.4006 147.26 98.5713H144.956C144.914 98.4433 144.876 98.3153 144.844 98.1873C144.823 98.0486 144.807 97.91 144.796 97.7713C144.434 98.1446 144.007 98.406 143.516 98.5553C143.026 98.7046 142.524 98.7793 142.012 98.7793C141.618 98.7793 141.25 98.7313 140.908 98.6353C140.567 98.5393 140.268 98.39 140.012 98.1873C139.756 97.9846 139.554 97.7286 139.404 97.4193C139.266 97.11 139.196 96.742 139.196 96.3153C139.196 95.846 139.276 95.462 139.436 95.1633C139.607 94.854 139.82 94.6086 140.076 94.4273C140.343 94.246 140.642 94.1126 140.972 94.0273C141.314 93.9313 141.655 93.8566 141.996 93.8033C142.338 93.75 142.674 93.7073 143.004 93.6753C143.335 93.6433 143.628 93.5953 143.884 93.5313C144.14 93.4673 144.343 93.3766 144.492 93.2593C144.642 93.1313 144.711 92.95 144.7 92.7153C144.7 92.47 144.658 92.278 144.572 92.1393C144.498 91.99 144.391 91.878 144.252 91.8033C144.124 91.718 143.97 91.6646 143.788 91.6433C143.618 91.6113 143.431 91.5953 143.228 91.5953C142.78 91.5953 142.428 91.6913 142.172 91.8833C141.916 92.0753 141.767 92.3953 141.724 92.8433H139.452ZM144.7 94.5233C144.604 94.6086 144.482 94.678 144.332 94.7313C144.194 94.774 144.039 94.8113 143.868 94.8433C143.708 94.8753 143.538 94.902 143.356 94.9233C143.175 94.9446 142.994 94.9713 142.812 95.0033C142.642 95.0353 142.471 95.078 142.3 95.1313C142.14 95.1846 141.996 95.2593 141.868 95.3553C141.751 95.4406 141.655 95.5526 141.58 95.6913C141.506 95.83 141.468 96.006 141.468 96.2193C141.468 96.422 141.506 96.5926 141.58 96.7313C141.655 96.87 141.756 96.982 141.884 97.0673C142.012 97.142 142.162 97.1953 142.332 97.2273C142.503 97.2593 142.679 97.2753 142.86 97.2753C143.308 97.2753 143.655 97.2006 143.9 97.0513C144.146 96.902 144.327 96.726 144.444 96.5233C144.562 96.31 144.631 96.0966 144.652 95.8833C144.684 95.67 144.7 95.4993 144.7 95.3713V94.5233ZM155 94.4433C155 94.0913 154.963 93.7553 154.888 93.4353C154.813 93.1153 154.696 92.8326 154.536 92.5873C154.376 92.342 154.173 92.15 153.928 92.0113C153.693 91.862 153.405 91.7873 153.064 91.7873C152.733 91.7873 152.445 91.862 152.2 92.0113C151.955 92.15 151.752 92.342 151.592 92.5873C151.432 92.8326 151.315 93.1153 151.24 93.4353C151.165 93.7553 151.128 94.0913 151.128 94.4433C151.128 94.7846 151.165 95.1153 151.24 95.4353C151.315 95.7553 151.432 96.038 151.592 96.2833C151.752 96.5286 151.955 96.726 152.2 96.8753C152.445 97.014 152.733 97.0833 153.064 97.0833C153.405 97.0833 153.693 97.014 153.928 96.8753C154.173 96.726 154.376 96.5286 154.536 96.2833C154.696 96.038 154.813 95.7553 154.888 95.4353C154.963 95.1153 155 94.7846 155 94.4433ZM148.936 87.1473H151.208V91.3073H151.24C151.517 90.8806 151.891 90.5713 152.36 90.3793C152.84 90.1766 153.336 90.0753 153.848 90.0753C154.264 90.0753 154.675 90.1606 155.08 90.3313C155.485 90.502 155.848 90.7633 156.168 91.1153C156.499 91.4673 156.765 91.9206 156.968 92.4753C157.171 93.0193 157.272 93.67 157.272 94.4273C157.272 95.1846 157.171 95.8406 156.968 96.3953C156.765 96.9393 156.499 97.3873 156.168 97.7393C155.848 98.0913 155.485 98.3526 155.08 98.5233C154.675 98.694 154.264 98.7793 153.848 98.7793C153.24 98.7793 152.696 98.6833 152.216 98.4913C151.736 98.2993 151.373 97.974 151.128 97.5153H151.096V98.5713H148.936V87.1473ZM164.485 93.5473C164.378 92.9713 164.186 92.534 163.909 92.2353C163.642 91.9366 163.232 91.7873 162.677 91.7873C162.314 91.7873 162.01 91.8513 161.765 91.9793C161.53 92.0966 161.338 92.246 161.189 92.4273C161.05 92.6086 160.949 92.8006 160.885 93.0033C160.832 93.206 160.8 93.3873 160.789 93.5473H164.485ZM160.789 94.9873C160.821 95.7233 161.008 96.2566 161.349 96.5873C161.69 96.918 162.181 97.0833 162.821 97.0833C163.28 97.0833 163.674 96.9713 164.005 96.7473C164.336 96.5126 164.538 96.2673 164.613 96.0113H166.613C166.293 97.0033 165.802 97.7126 165.141 98.1393C164.48 98.566 163.68 98.7793 162.741 98.7793C162.09 98.7793 161.504 98.678 160.981 98.4753C160.458 98.262 160.016 97.9633 159.653 97.5793C159.29 97.1953 159.008 96.7366 158.805 96.2033C158.613 95.67 158.517 95.0833 158.517 94.4433C158.517 93.8246 158.618 93.2486 158.821 92.7153C159.024 92.182 159.312 91.7233 159.685 91.3393C160.058 90.9446 160.501 90.6353 161.013 90.4113C161.536 90.1873 162.112 90.0753 162.741 90.0753C163.445 90.0753 164.058 90.214 164.581 90.4913C165.104 90.758 165.53 91.1206 165.861 91.5793C166.202 92.038 166.448 92.5606 166.597 93.1473C166.746 93.734 166.8 94.3473 166.757 94.9873H160.789ZM168.369 87.1473H170.641V98.5713H168.369V87.1473Z" fill="black"/>
<path d="M186.314 98.5088L192.375 92.5713L186.314 86.6338L184.582 88.3294L188.912 92.5713L184.582 96.8115L186.314 98.5088Z" fill="#F15E00"/>
</svg>
