<svg width="64" height="64" viewBox="0 0 64 64" fill="none" xmlns="http://www.w3.org/2000/svg">
<g clip-path="url(#clip0_61834_130498)">
<path d="M52 0C58.6274 0 64 5.37258 64 12V52C64 58.6274 58.6274 64 52 64H12C5.37258 64 0 58.6274 0 52V12C0 5.37258 5.37258 0 12 0H52ZM17.0713 28C14.8228 28.0001 13 29.7909 13 32C13 34.2091 14.8228 35.9999 17.0713 36H46.9287C49.1772 35.9999 51 34.2091 51 32C51 29.7909 49.1772 28.0001 46.9287 28H17.0713Z" fill="black"/>
</g>
<defs>
<clipPath id="clip0_61834_130498">
<rect width="64" height="64" fill="white"/>
</clipPath>
</defs>
</svg>
