<svg width="24" height="24" viewBox="0 0 24 24" fill="none" xmlns="http://www.w3.org/2000/svg">
<path d="M21 12C21 7.02944 16.9706 3 12 3C7.02944 3 3 7.02944 3 12C3 16.9706 7.02944 21 12 21C16.9706 21 21 16.9706 21 12ZM23 12C23 18.0751 18.0751 23 12 23C5.92487 23 1 18.0751 1 12C1 5.92487 5.92487 1 12 1C18.0751 1 23 5.92487 23 12Z" fill="black"/>
<path d="M15.7068 9.29297C15.3163 8.90245 14.6833 8.90245 14.2928 9.29297L10.9998 12.5859L9.70685 11.293L9.63068 11.2246C9.2379 10.9043 8.6589 10.9269 8.29279 11.293C7.92667 11.6591 7.90408 12.2381 8.22443 12.6309L8.29279 12.707L10.2928 14.707C10.6833 15.0976 11.3163 15.0976 11.7068 14.707L15.7068 10.707C16.0974 10.3165 16.0974 9.6835 15.7068 9.29297Z" fill="black"/>
</svg>
