<svg width="64" height="64" viewBox="0 0 64 64" fill="none" xmlns="http://www.w3.org/2000/svg">
<path fill-rule="evenodd" clip-rule="evenodd" d="M48.8388 22.5492L29.5285 44.9492C28.9756 45.5897 28.1256 46 27.1724 46C26.2192 46 25.3698 45.5894 24.8168 44.9489L15.1612 33.7492C14.7475 33.2699 14.5 32.6618 14.5 32C14.5 31.2268 14.8377 30.5269 15.3837 30.0201L16.5906 28.9001C17.1366 28.3934 17.891 28.08 18.7241 28.08C19.474 28.08 20.1595 28.3344 20.6872 28.7547L26.5689 34.8001L44.4192 18.7573C44.9587 18.2876 45.6845 18 46.4827 18C48.1491 18 49.5 19.2536 49.5 20.8001C49.5 21.4618 49.2525 22.0699 48.8388 22.5492Z" fill="black"/>
</svg>
