<svg width="64" height="64" viewBox="0 0 64 64" fill="none" xmlns="http://www.w3.org/2000/svg">
<path d="M48.0019 31.9999C48.0055 32.4689 47.863 32.9274 47.5941 33.3117C47.3252 33.696 46.9433 33.9869 46.5014 34.144L37.4359 37.4417L34.1406 46.5087C33.9782 46.9464 33.6857 47.3238 33.3025 47.5904C32.9194 47.857 32.4638 47.9999 31.9971 47.9999C31.5303 47.9999 31.0748 47.857 30.6916 47.5904C30.3084 47.3238 30.016 46.9464 29.8536 46.5087L26.5583 37.4403L17.4927 34.144C17.0552 33.9816 16.6778 33.689 16.4113 33.3057C16.1448 32.9225 16.002 32.4668 16.002 31.9999C16.002 31.533 16.1448 31.0773 16.4113 30.694C16.6778 30.3107 17.0552 30.0182 17.4927 29.8557L26.5583 26.5594L29.8536 17.4911C30.016 17.0534 30.3084 16.6759 30.6916 16.4093C31.0748 16.1428 31.5303 15.9999 31.9971 15.9999C32.4638 15.9999 32.9194 16.1428 33.3025 16.4093C33.6857 16.6759 33.9782 17.0534 34.1406 17.4911L37.4373 26.5594L46.5014 29.8557C46.9433 30.0129 47.3252 30.3038 47.5941 30.688C47.863 31.0723 48.0055 31.5308 48.0019 31.9999Z" fill="black"/>
</svg>
