<svg width="64" height="64" viewBox="0 0 64 64" fill="none" xmlns="http://www.w3.org/2000/svg">
<path d="M49.9556 22.0624C49.286 21.3821 48.3784 21 47.432 21C46.4856 21 45.578 21.3821 44.9084 22.0624L31.957 35.2366L19.0057 22.0624C18.3287 21.4207 17.4333 21.0714 16.5082 21.088C15.583 21.1046 14.7003 21.4858 14.046 22.1514C13.3917 22.8169 13.0169 23.7148 13.0006 24.6559C12.9842 25.597 13.3277 26.5078 13.9585 27.1964L29.4334 42.9376C30.103 43.6179 31.0107 44 31.957 44C32.9034 44 33.8111 43.6179 34.4806 42.9376L49.9556 27.1964C50.6244 26.5153 51 25.592 51 24.6294C51 23.6667 50.6244 22.7435 49.9556 22.0624Z" fill="black"/>
</svg>
