<svg xmlns="http://www.w3.org/2000/svg" width="24" height="24" fill="currentColor" viewBox="0 0 24 24">
  <path fill="#08090D" d="M12 4c2.862 0 5.195 1.264 6.924 2.707 1.726 1.44 2.909 3.107 3.502 4.046.105.166.247.378.337.67l.035.13.035.216a2.17 2.17 0 0 1-.035.678c-.083.36-.252.61-.372.8-.593.939-1.776 2.605-3.502 4.046C17.195 18.736 14.862 20 12 20c-2.861 0-5.194-1.265-6.923-2.707-1.726-1.44-2.91-3.107-3.503-4.046-.12-.19-.288-.44-.37-.8a2.163 2.163 0 0 1 0-.894c.082-.36.25-.61.37-.8.593-.939 1.777-2.605 3.503-4.046C6.806 5.264 9.14 4 12 4Zm0 2c-2.243 0-4.138.988-5.642 2.243-1.506 1.257-2.56 2.734-3.092 3.577a9.5 9.5 0 0 0-.11.179c.006.01.015.028.029.05a9.5 9.5 0 0 0 .08.13c.533.844 1.587 2.32 3.093 3.578C7.862 17.012 9.757 18 12 18c2.243 0 4.139-.988 5.643-2.243 1.505-1.257 2.56-2.734 3.092-3.577a3.64 3.64 0 0 0 .08-.13l.029-.05-.029-.05a3.64 3.64 0 0 0-.08-.13c-.532-.843-1.587-2.32-3.092-3.577C16.139 6.988 14.243 6 12 6Zm2 6a2 2 0 1 0-4 0 2 2 0 0 0 4 0Zm-10.843.024v-.003.003ZM16 12a4 4 0 1 1-8 0 4 4 0 0 1 8 0Z"/>
</svg>
