<svg xmlns="http://www.w3.org/2000/svg" width="24" height="24" fill="currentColor" viewBox="0 0 24 24">
  <path fill-rule="evenodd" d="M16.8 19.8h-3V18h-3.6v1.8h-3a.6.6 0 0 0-.6.6v.6h10.8v-.6a.6.6 0 0 0-.6-.6M14.004 6.6H6v5.67c0 .516.445.93.994.93H15V7.511c0-.515-.447-.911-.996-.911m.152 1.981-2.658 2.401h-.002c-.26.243-.613.37-1.003.37-.388 0-.742-.127-1.003-.37h-.007l-2.64-2.399V7.67a568 568 0 0 0 2.982 2.733c.172.169.407.24.666.24a.96.96 0 0 0 .694-.283h.002l2.97-2.703zM20.4 3H3.6a1.2 1.2 0 0 0-1.2 1.2v12a1.2 1.2 0 0 0 1.2 1.2h16.8a1.2 1.2 0 0 0 1.2-1.2v-12A1.2 1.2 0 0 0 20.4 3M12 16.8a.6.6 0 1 1 0-1.2.6.6 0 0 1 0 1.2m8.4-1.8H3.6V4.2h16.8zm-6.396-8.4H6v5.67c0 .516.445.93.994.93H15V7.511c0-.515-.447-.911-.996-.911m.152 1.981-2.658 2.401h-.002c-.26.243-.613.37-1.003.37-.388 0-.742-.127-1.003-.37h-.007l-2.64-2.399V7.67a568 568 0 0 0 2.982 2.733c.172.169.407.24.666.24a.96.96 0 0 0 .694-.283h.002l2.97-2.703zM14.004 6.6H6v5.67c0 .516.445.93.994.93H15V7.511c0-.515-.447-.911-.996-.911m.152 1.981-2.658 2.401h-.002c-.26.243-.613.37-1.003.37-.388 0-.742-.127-1.003-.37h-.007l-2.64-2.399V7.67a568 568 0 0 0 2.982 2.733c.172.169.407.24.666.24a.96.96 0 0 0 .694-.283h.002l2.97-2.703zM18 7.163v.674a.563.563 0 0 1-.563.563h-.675a.563.563 0 0 1-.562-.563v-.674a.563.563 0 0 1 .563-.563h.674a.56.56 0 0 1 .563.563m0 2.4v.674a.563.563 0 0 1-.563.563h-.675a.563.563 0 0 1-.562-.563v-.674A.563.563 0 0 1 16.763 9h.674a.56.56 0 0 1 .563.563m0 2.4v.674a.563.563 0 0 1-.563.563h-.675a.563.563 0 0 1-.562-.563v-.674a.563.563 0 0 1 .563-.563h.674a.563.563 0 0 1 .563.563" clip-rule="evenodd"/>
</svg>
