<svg xmlns="http://www.w3.org/2000/svg" width="24" height="24" fill="currentColor" viewBox="0 0 24 24">
  <path fill-rule="evenodd" d="M6.348 17.385H5.311v-.024a1.11 1.11 0 0 0-1.11-1.104v-1.03a2.14 2.14 0 0 1 2.147 2.134zm1.926 0H7.237v-.024a3 3 0 0 0-.889-2.133 3.03 3.03 0 0 0-2.147-.884v-1.03c2.25 0 4.073 1.812 4.073 4.047zm1.926 0H9.163v-.024a4.9 4.9 0 0 0-1.453-3.487A4.96 4.96 0 0 0 4.2 12.43V11.4c3.314 0 6 2.669 6 5.961zM21 4.2H3a1.2 1.2 0 0 0-1.2 1.2v13.2A1.2 1.2 0 0 0 3 19.8h18a1.2 1.2 0 0 0 1.2-1.2V5.4A1.2 1.2 0 0 0 21 4.2M3.6 5.4a.6.6 0 1 1 0 1.2.6.6 0 0 1 0-1.2M21 18.6H3V7.8h18z" clip-rule="evenodd"/>
</svg>
