<svg width="16" height="16" viewBox="0 0 16 16" fill="none" xmlns="http://www.w3.org/2000/svg">
<g id="Symboles/Signal&#195;&#169;tique/Tick">
<path id="Shape" fill-rule="evenodd" clip-rule="evenodd" d="M13.2917 5.04661L7.22275 12.0466C7.04898 12.2468 6.78183 12.375 6.48227 12.375C6.18269 12.375 5.91573 12.2467 5.74194 12.0465L2.70731 8.54661C2.5773 8.39683 2.49951 8.20683 2.49951 8C2.49951 7.75837 2.60564 7.53964 2.77724 7.38129L3.15657 7.03129C3.32817 6.87293 3.56524 6.775 3.8271 6.775C4.06276 6.775 4.27822 6.85452 4.44407 6.98583L6.29261 8.87502L11.9027 3.86167C12.0723 3.71488 12.3004 3.625 12.5512 3.625C13.0749 3.625 13.4995 4.01676 13.4995 4.50002C13.4995 4.70681 13.4217 4.89683 13.2917 5.04661Z" fill="#F15E00"/>
</g>
</svg>
