<svg width="96" height="96" viewBox="0 0 96 96" fill="none" xmlns="http://www.w3.org/2000/svg">
<path d="M31.2041 86.4286C31.7262 86.4287 32.2432 86.3255 32.7252 86.125C33.2073 85.9245 33.6449 85.6307 34.013 85.2604C34.3811 84.8902 34.6723 84.4508 34.8699 83.9675C35.0675 83.4843 35.1676 82.9667 35.1644 82.4446C35.1544 81.8607 34.9488 81.2969 34.5806 80.8435C33.6278 79.6411 33.0225 78.2007 32.8303 76.6786C32.6381 75.1565 32.8664 73.6108 33.4904 72.2093C34.1144 70.8077 35.1103 69.6038 36.3701 68.7281C37.6298 67.8525 39.1053 67.3385 40.6364 67.242C45.8125 66.9203 50.0828 71.3988 49.517 76.5533C49.3429 78.139 48.7189 79.6418 47.7185 80.8843C47.3645 81.3197 47.1699 81.863 47.167 82.4241C47.1671 83.4861 47.589 84.5046 48.34 85.2555C49.0909 86.0064 50.1095 86.4283 51.1715 86.4283H64.8045C65.4304 86.4458 66.0534 86.3375 66.6367 86.1097C67.2199 85.882 67.7515 85.5394 68.1999 85.1024C68.6482 84.6654 69.0043 84.1427 69.2469 83.5655C69.4895 82.9883 69.6137 82.3682 69.6122 81.7421V62.6093C69.6121 62.2769 69.6776 61.9476 69.8048 61.6405C69.932 61.3333 70.1184 61.0542 70.3535 60.8191C70.5886 60.584 70.8677 60.3976 71.1748 60.2704C71.482 60.1431 71.8112 60.0777 72.1436 60.0777C73.4972 60.0865 74.8209 60.4765 75.9631 61.2028C77.2585 62.0117 78.7499 62.4521 80.2769 62.477C81.8039 62.5018 83.3088 62.1099 84.6299 61.3436C85.9509 60.5773 87.0381 59.4654 87.7746 58.1275C88.5111 56.7896 88.869 55.2763 88.81 53.7502C88.6431 49.3515 84.8089 45.672 80.4067 45.676C78.8357 45.6748 77.2961 46.1163 75.9644 46.95C74.7962 47.6837 73.4451 48.074 72.0656 48.0761C71.7434 48.0761 71.4243 48.0126 71.1266 47.8893C70.829 47.766 70.5585 47.5853 70.3306 47.3575C70.1028 47.1297 69.9221 46.8592 69.7988 46.5615C69.6755 46.2638 69.612 45.9448 69.612 45.6226V31.2272C69.6082 29.9533 69.1005 28.7327 68.1997 27.832C67.2989 26.9312 66.0782 26.4236 64.8043 26.4199H51.1712C50.6453 26.4199 50.1246 26.3164 49.6388 26.1152C49.1529 25.9139 48.7115 25.619 48.3396 25.2472C47.9678 24.8754 47.6728 24.4339 47.4716 23.9481C47.2703 23.4623 47.1667 22.9416 47.1667 22.4157C47.1696 21.8546 47.3642 21.3113 47.7183 20.8759C48.7185 19.6333 49.3425 18.1305 49.5164 16.5449C50.0828 11.3901 45.8122 6.91183 40.6364 7.23362C39.1425 7.3279 37.7008 7.81961 36.4606 8.6579C35.2204 9.49619 34.2267 10.6506 33.5823 12.0017C32.9379 13.3529 32.6662 14.8516 32.7953 16.343C32.9244 17.8343 33.4496 19.2641 34.3166 20.4844C35.4137 22.0254 35.2509 24.1576 33.839 25.4165C33.1143 26.064 32.1762 26.4213 31.2044 26.4199H14.4073C13.1334 26.4236 11.9128 26.9312 11.012 27.832C10.1111 28.7327 9.6034 29.9533 9.59962 31.2272V45.4386C9.59964 45.7608 9.66311 46.0799 9.78642 46.3775C9.90973 46.6752 10.0905 46.9457 10.3183 47.1735C10.5461 47.4013 10.8166 47.582 11.1143 47.7053C11.412 47.8286 11.731 47.892 12.0532 47.892C13.4327 47.8899 14.7838 47.4997 15.952 46.766C17.2836 45.9323 18.8231 45.4907 20.3941 45.4917C24.7963 45.4877 28.6309 49.1673 28.7973 53.566C28.8565 55.0921 28.4986 56.6055 27.7621 57.9434C27.0256 59.2813 25.9384 60.3932 24.6174 61.1596C23.2964 61.926 21.7914 62.3178 20.2644 62.293C18.7374 62.2682 17.246 61.8277 15.9505 61.0189C14.8083 60.2925 13.4845 59.9026 12.131 59.8938C11.4596 59.8938 10.8158 60.1604 10.3411 60.6351C9.86635 61.1098 9.59965 61.7537 9.59962 62.425V81.7422C9.59807 82.3683 9.72227 82.9884 9.96486 83.5657C10.2074 84.143 10.5635 84.6656 11.0119 85.1027C11.4602 85.5397 11.9918 85.8823 12.5751 86.1101C13.1583 86.3379 13.7814 86.4462 14.4073 86.4286H31.2041Z" fill="black" fill-opacity="0.68"/>
</svg>
