<svg width="64" height="64" viewBox="0 0 64 64" fill="none" xmlns="http://www.w3.org/2000/svg">
<path d="M52 0C58.6274 0 64 5.37258 64 12V52C64 58.6274 58.6274 64 52 64H12C5.37258 64 0 58.6274 0 52V12C0 5.37258 5.37258 0 12 0H52ZM46.0566 19C45.0109 19 44.0076 19.4151 43.2676 20.1543L27.9521 35.4746L20.6377 28.1543C19.8895 27.457 18.8994 27.0777 17.877 27.0957C16.8546 27.1139 15.8793 27.5286 15.1562 28.252C14.4332 28.9753 14.0191 29.9508 14.001 30.9736C13.9829 31.9966 14.3624 32.9869 15.0596 33.7354L25.1631 43.8457C25.9031 44.5849 26.9064 44.9999 27.9521 45C28.9981 45 30.0021 44.5851 30.7422 43.8457L48.8457 25.7354C49.5848 24.9951 49.9999 23.9915 50 22.9453C50 21.899 49.5849 20.8946 48.8457 20.1543C48.1057 19.4151 47.1024 19.0001 46.0566 19Z" fill="black"/>
</svg>
