<svg xmlns="http://www.w3.org/2000/svg" width="24" height="24" fill="currentColor" viewBox="0 0 24 24">
  <path fill-rule="evenodd" d="M20.253 3a.492.492 0 0 0-.076.006l-3.187.5a.498.498 0 0 0 .154.986l1.98-.31-5.925 6.113a.5.5 0 0 0 .357.848c.13 0 .26-.05.357-.152l3.033-3.13v9.441a.699.699 0 0 1-.697.7H5.997V7.714c0-.385.312-.699.696-.699h7.148a.499.499 0 0 0 0-.998H6.692A1.698 1.698 0 0 0 5 7.715v10.786c0 .275.223.499.498.499H16.25c.933 0 1.692-.762 1.692-1.698V7.11a.49.49 0 0 0-.053-.22l2.033-2.098-.165 2.116a.499.499 0 1 0 .992.077L21 3.788A.749.749 0 0 0 20.253 3Z" clip-rule="evenodd"/>
</svg>
