<svg width="96" height="96" viewBox="0 0 96 96" fill="none" xmlns="http://www.w3.org/2000/svg">
<path d="M76.8 55.2H67.9617L45.6 77.5617V84H76.8C78.7096 84 80.5409 83.2414 81.8912 81.8912C83.2414 80.5409 84 78.7096 84 76.8V62.4C84 60.4904 83.2414 58.6591 81.8912 57.3088C80.5409 55.9586 78.7096 55.2 76.8 55.2ZM72.2999 44.0736C73.645 42.7206 74.4 40.8903 74.4 38.9824C74.4 37.0746 73.645 35.2443 72.2999 33.8913L62.1176 23.7088C60.7673 22.3586 58.936 21.6 57.0264 21.6C55.1168 21.6 53.2855 22.3586 51.9352 23.7088L45.6 30.0441V70.7734L72.2999 44.0736ZM33.6 12H12V76.8C11.9996 77.7456 12.1855 78.6821 12.5472 79.5558C12.9089 80.4296 13.4392 81.2235 14.1079 81.8921C14.7765 82.5608 15.5704 83.0911 16.4442 83.4528C17.3179 83.8145 18.2544 84.0004 19.2 84H40.8V19.2C40.7944 17.2922 40.0341 15.464 38.685 14.115C37.336 12.7659 35.5078 12.0056 33.6 12ZM26.4 74.4C25.4507 74.4 24.5226 74.1185 23.7333 73.5911C22.9439 73.0636 22.3287 72.314 21.9654 71.4369C21.6021 70.5598 21.507 69.5947 21.6922 68.6636C21.8774 67.7325 22.3346 66.8772 23.0059 66.2059C23.6772 65.5346 24.5325 65.0774 25.4636 64.8922C26.3947 64.707 27.3598 64.8021 28.2369 65.1654C29.114 65.5287 29.8636 66.1439 30.3911 66.9333C30.9185 67.7226 31.2 68.6507 31.2 69.6C31.2 70.873 30.6943 72.0939 29.7941 72.9941C28.8939 73.8943 27.673 74.4 26.4 74.4Z" fill="black" fill-opacity="0.68"/>
</svg>
