<svg width="64" height="64" viewBox="0 0 64 64" fill="none" xmlns="http://www.w3.org/2000/svg">
<path fill-rule="evenodd" clip-rule="evenodd" d="M9.92167 14.9893C12.5592 12.0922 16.3251 10.5 20.7452 10.5C24.7742 10.5 29.0766 12.4037 31.9599 16.1281C34.8258 12.4072 39.1109 10.5 43.1745 10.5C47.5842 10.5 51.3432 12.0853 53.9877 14.9755C56.6044 17.8414 57.9197 21.7666 57.9197 26.1209C57.9197 33.6181 54.0673 39.6512 49.1903 44.3413C44.3271 49.021 38.2179 52.5896 33.154 55.2098C32.7831 55.4016 32.3714 55.5012 31.9538 55.5C31.5362 55.4988 31.1251 55.3969 30.7553 55.2029C25.6914 52.555 19.5822 49.014 14.719 44.3586C9.84206 39.6823 6 33.67 6 26.1244C6 21.7804 7.30838 17.8553 9.92167 14.9893ZM13.7603 18.4853C12.1854 20.2159 11.192 22.8015 11.192 26.1244C11.192 31.7455 14.0164 36.4945 18.3119 40.6065C22.2786 44.407 27.3113 47.4772 31.9668 49.9694C36.5876 47.5118 41.6238 44.4174 45.594 40.5996C49.8964 36.4564 52.7277 31.6867 52.7277 26.1244C52.7277 22.7911 51.7309 20.2055 50.1525 18.4749C48.6018 16.7823 46.2897 15.6954 43.1745 15.6954C39.7963 15.6954 35.93 17.8691 34.4278 22.445C34.2579 22.9656 33.9277 23.4192 33.4844 23.7408C33.0411 24.0625 32.5075 24.2357 31.9599 24.2357C31.4122 24.2357 30.8786 24.0625 30.4353 23.7408C29.992 23.4192 29.6618 22.9656 29.4919 22.445C27.9932 17.8761 24.0854 15.6954 20.7452 15.6954C17.6196 15.6954 15.3109 16.7823 13.7603 18.4853Z" fill="black"/>
</svg>
