<svg width="64" height="64" viewBox="0 0 64 64" fill="none" xmlns="http://www.w3.org/2000/svg">
<path fill-rule="evenodd" clip-rule="evenodd" d="M49.5155 30.4439L31.9996 49.8447L14.4846 30.4439L14.4756 30.4341C11.0834 26.669 11.3865 20.8669 15.1516 17.4747C18.7794 14.2077 24.3304 14.3515 27.7827 17.8038C27.7917 17.8136 27.8006 17.8225 27.8096 17.8314L30.4884 20.3778L31.9996 21.8322L33.5109 20.3786L36.1905 17.8314C36.1986 17.8225 36.2084 17.8136 36.2173 17.8038C37.9349 16.0772 40.2709 15.1104 42.7059 15.1169C47.7735 15.1169 51.8823 19.2241 51.8831 24.2924C51.8831 26.5609 51.043 28.749 49.5244 30.4341L49.5155 30.4439ZM53.5212 13.479C47.5835 7.54203 37.9814 7.5079 31.9998 13.3725C26.0189 7.5079 16.4168 7.54203 10.4791 13.479C4.60471 19.3541 4.50802 28.8198 10.1923 34.8119L31.9998 58.8562L53.808 34.8119C59.4915 28.8198 59.3956 19.3541 53.5212 13.479Z" fill="black"/>
</svg>
