<svg width="64" height="64" viewBox="0 0 64 64" fill="none" xmlns="http://www.w3.org/2000/svg">
<path d="M53.1416 14.0439C53.8644 13.4401 54.9357 13.5251 55.5394 14.248H55.5479C57.7757 16.8929 59 20.1331 59 23.7306C59 27.3281 57.6907 30.7894 55.3099 33.4854L33.2456 57.2556C32.9226 57.6042 32.4718 57.7999 31.9958 57.7999C31.5196 57.7999 31.069 57.6042 30.7458 57.2556L8.71562 33.5193C6.3094 30.7979 5 27.3281 5 23.7306C5 15.6088 11.615 8.99219 19.735 8.99219C24.726 8.99219 29.3089 11.535 31.9958 15.5747C34.6911 11.535 39.274 8.99219 44.2564 8.99219C45.1918 8.99219 45.957 9.7576 45.957 10.6931C45.957 11.6286 45.1918 12.394 44.2564 12.394C39.495 12.394 35.2097 15.4131 33.5942 19.9036C33.3561 20.5753 32.71 21.0261 31.9958 21.0261C31.2816 21.0261 30.6439 20.5753 30.3973 19.9036C28.7817 15.4131 24.4964 12.394 19.735 12.394C13.4856 12.394 8.40104 17.4797 8.40104 23.7306C8.40104 26.5031 9.41286 29.165 11.2409 31.2401L21.3463 42.1351L31.9873 53.6071L42.6504 42.1214L52.776 31.2145C54.5787 29.1735 55.5904 26.4095 55.5904 23.7391C55.5904 21.0687 54.6466 18.4747 52.9376 16.4422C52.334 15.7193 52.419 14.6477 53.1416 14.0439Z" fill="black"/>
</svg>
