<svg xmlns="http://www.w3.org/2000/svg" width="24" height="24" fill="currentColor" viewBox="0 0 24 24">
  <path fill-rule="evenodd" d="M16.2 7.8a2.4 2.4 0 0 1-2.4-2.4V1.8H4.2V21a1.2 1.2 0 0 0 1.2 1.2h14.4V7.8zm.189 5.59a.8.8 0 0 1 .74.271l-4.131.652a1.4 1.4 0 0 0-.141-.393zm-1.31-.59a.8.8 0 0 1 .74.272l-3.226.502a1.4 1.4 0 0 0-.29-.213l-.199-.114zm3.088 2.407-5.65 2.258a1.6 1.6 0 0 1-1.334-.09L7.448 15.18l-1.594.393a.398.398 0 0 1-.463-.393v-2.79c0-.22.178-.398.398-.398h3.053c.173 0 .343.045.494.131l2.788 1.594a.996.996 0 1 1-.988 1.729l-1.807-1.043a.2.2 0 0 0-.191.349l.004.002.004.003 1.769 1.021a1.394 1.394 0 0 0 2.103-1.072l4.825-.753a.65.65 0 0 1 .324 1.253M15 1.8v3.6c0 .663.478 1.2 1.067 1.2H19.8z" clip-rule="evenodd"/>
</svg>
