<svg width="24" height="24" viewBox="0 0 24 24" fill="none" xmlns="http://www.w3.org/2000/svg">
<path d="M11.9999 1.79956C17.6332 1.79956 22.2 6.36654 22.2001 11.9998C22.2001 17.6331 17.6332 22.2 11.9999 22.2C6.36669 22.1999 1.79975 17.633 1.79974 11.9998C1.79985 6.36658 6.36675 1.79962 11.9999 1.79956ZM16.6044 7.19995C16.3631 7.20087 16.1305 7.2936 15.954 7.45874L10.2714 12.9451L8.39838 10.8777C8.01691 10.5519 7.45017 10.5738 7.09467 10.9275L6.71088 11.3103C6.36414 11.6543 6.33301 12.2051 6.63861 12.5857L9.71283 16.4158C10.0467 16.8307 10.653 16.8966 11.0673 16.5623C11.1206 16.519 11.1699 16.4694 11.2128 16.4158L17.3603 8.75464C17.4967 8.58558 17.5712 8.37442 17.5712 8.15698C17.568 7.62516 17.1354 7.19663 16.6044 7.19995Z" fill="black"/>
</svg>
