<svg width="24" height="24" viewBox="0 0 24 24" fill="none" xmlns="http://www.w3.org/2000/svg">
<path fill-rule="evenodd" clip-rule="evenodd" d="M22.1925 6.30604C22.1843 6.1899 22.1477 6.07755 22.0859 5.97888C22.0241 5.88021 21.939 5.79825 21.8381 5.74022L11.9474 0.0930183C11.8406 0.0320611 11.7198 0 11.5969 0C11.474 0 11.3532 0.0320611 11.2464 0.0930183L1.35584 5.74022C1.24805 5.80226 1.15844 5.89152 1.09599 5.99907C1.03354 6.10663 1.00044 6.2287 1 6.35307V17.6475C1.00001 17.772 1.03293 17.8942 1.09543 18.0019C1.15792 18.1095 1.24776 18.1987 1.35584 18.2604L11.2465 23.9077C11.3534 23.9682 11.4741 24 11.597 24C11.7198 24 11.8406 23.9682 11.9475 23.9077L21.8381 18.2604C21.9462 18.1987 22.036 18.1095 22.0985 18.0019C22.161 17.8943 22.1939 17.772 22.1939 17.6476C22.1779 17.5905 22.2076 6.3562 22.1925 6.30604ZM11.597 1.51893L20.0638 6.35312L14.8753 9.31546C13.2373 7.25982 9.95581 7.26063 8.31857 9.31546L3.1304 6.35312L11.597 1.51893ZM14.4228 12.0003C14.4311 13.5672 13.1176 14.8355 11.5969 14.8239C10.0763 14.8354 8.76281 13.5673 8.77108 12.0003C8.75897 10.4733 10.0423 9.16513 11.597 9.17668C13.1515 9.1651 14.4351 10.4733 14.4228 12.0003ZM10.8905 22.0784L2.41281 17.2378V7.56951L7.61657 10.5407C6.67855 12.9921 8.34212 15.7894 10.8905 16.1768V22.0784ZM20.7811 17.2378L12.3034 22.0784V16.1768C14.8521 15.7894 16.5152 12.9917 15.5773 10.5407L20.7811 7.56957V17.2378Z" fill="#F16E00"/>
</svg>
