<svg xmlns="http://www.w3.org/2000/svg" width="24" height="24" fill="currentColor" viewBox="0 0 24 24">
  <path fill-rule="evenodd" d="M13.477 13.881c.39 0 .704.315.704.703v3.513a.703.703 0 0 1-.704.703H9.962a.704.704 0 0 1-.704-.703v-3.513c0-.388.315-.703.704-.703h3.515Zm-2.812 3.513h2.109v-2.107h-2.109v2.107Zm5.928 6.106H6.876A2.879 2.879 0 0 1 4 20.626V17.16a.703.703 0 0 1 1.407 0v3.466c0 .81.659 1.468 1.47 1.468h9.716a1.47 1.47 0 0 0 1.468-1.468v-8.447a1.36 1.36 0 0 0-1.358-1.357H6.765a1.36 1.36 0 0 0-1.358 1.357v1.469a.703.703 0 0 1-1.407 0v-1.469a2.767 2.767 0 0 1 2.74-2.762v-3.44A4.984 4.984 0 0 1 11.72 1a4.984 4.984 0 0 1 4.98 4.977v3.438h.003a2.768 2.768 0 0 1 2.766 2.764v8.447a2.879 2.879 0 0 1-2.876 2.874Zm-1.3-17.523a3.576 3.576 0 0 0-3.573-3.57 3.576 3.576 0 0 0-3.574 3.57v3.438h7.147V5.977Z" clip-rule="evenodd"/>
</svg>
