<svg width="96" height="96" viewBox="0 0 96 96" fill="none" xmlns="http://www.w3.org/2000/svg">
<path d="M84.0444 28.6452C84.0166 28.2505 83.8922 27.8685 83.6822 27.5331C83.4721 27.1977 83.1827 26.9191 82.8397 26.7219L49.2188 7.52562C48.8559 7.31844 48.4452 7.20947 48.0274 7.20947C47.6095 7.20947 47.1988 7.31844 46.8359 7.52562L13.2155 26.7219C12.849 26.9327 12.5444 27.2362 12.3321 27.6018C12.1199 27.9674 12.0073 28.3823 12.0059 28.8051V67.1978C12.0059 67.6208 12.1178 68.0364 12.3302 68.4022C12.5427 68.7681 12.8481 69.0712 13.2155 69.281L46.8361 88.4775C47.1995 88.6833 47.61 88.7915 48.0276 88.7915C48.4452 88.7915 48.8556 88.6833 49.219 88.4775L82.8397 69.2812C83.207 69.0714 83.5124 68.7682 83.7249 68.4024C83.9373 68.0365 84.0492 67.621 84.0493 67.198C83.9949 67.004 84.0956 28.8157 84.0444 28.6452ZM48.0276 12.3727L76.8084 28.8053L59.1716 38.875C53.6036 31.8873 42.4489 31.8901 36.8835 38.875L19.2476 28.8053L48.0276 12.3727ZM57.6334 48.0013C57.6614 53.3277 53.1966 57.6392 48.0275 57.5994C42.8585 57.6388 38.3936 53.328 38.4217 48.0013C38.3805 42.8108 42.7429 38.364 48.0276 38.4033C53.3117 38.3639 57.6752 42.8109 57.6334 48.0013ZM45.626 82.2593L16.8084 65.8049V32.9401L34.4972 43.0399C31.3087 51.3727 36.9636 60.8817 45.626 62.1983V82.2593ZM79.2468 65.8049L50.429 82.2593V62.1985C59.0925 60.8817 64.746 51.3713 61.5578 43.0401L79.2468 32.9403V65.8049Z" fill="#F15E00"/>
</svg>
