<svg width="96" height="96" viewBox="0 0 96 96" fill="none" xmlns="http://www.w3.org/2000/svg">
<path d="M82.6815 59.7594L76.8988 56.4644L52.5285 71.0208C51.1442 71.8453 49.5629 72.2806 47.9516 72.2806C46.3404 72.2806 44.759 71.8453 43.3747 71.0208L19.0045 56.4643L13.2218 59.7594C12.8316 60.0089 12.5119 60.3542 12.2933 60.7625C12.0746 61.1708 11.9644 61.6283 11.9731 62.0914C11.9819 62.5544 12.1092 63.0075 12.343 63.4073C12.5769 63.807 12.9094 64.1401 13.3087 64.3747L44.6374 83.088C45.6398 83.6851 46.7849 84.0003 47.9516 84.0003C49.1184 84.0003 50.2635 83.6851 51.2658 83.088L82.5946 64.3747C82.9939 64.1401 83.3264 63.807 83.5602 63.4073C83.7941 63.0075 83.9214 62.5544 83.9301 62.0914C83.9389 61.6283 83.8286 61.1708 83.61 60.7625C83.3914 60.3542 83.0717 60.0089 82.6815 59.7594ZM82.6815 45.6483L76.4864 42.1182L66.7645 47.9251L65.5802 48.6325L64.3959 49.34L52.5285 56.4288C51.1442 57.2533 49.5629 57.6886 47.9516 57.6886C46.3404 57.6886 44.759 57.2533 43.3747 56.4288L31.5075 49.34L30.3232 48.6325L29.1388 47.9251L19.417 42.1182L13.2218 45.648C12.8316 45.8974 12.5119 46.2428 12.2933 46.6511C12.0746 47.0594 11.9644 47.5169 11.9731 47.98C11.9819 48.443 12.1092 48.8961 12.343 49.2959C12.5769 49.6956 12.9094 50.0287 13.3087 50.2633L19.0338 53.6832L20.218 54.3906L21.4024 55.098L44.6374 68.9766C45.6398 69.5737 46.7849 69.8889 47.9516 69.8889C49.1184 69.8889 50.2635 69.5737 51.2658 68.9766L74.5009 55.098L75.6853 54.3906L76.8696 53.6832L82.5946 50.2636C82.994 50.029 83.3265 49.6959 83.5604 49.2961C83.7943 48.8963 83.9217 48.4432 83.9304 47.9801C83.9391 47.517 83.8288 47.0594 83.6102 46.6511C83.3915 46.2428 83.0717 45.8977 82.6815 45.6483ZM13.3087 35.671L19.4462 39.337L20.6305 40.0445L21.8149 40.7518L31.5367 46.5588L32.721 47.2662L33.9054 47.9736L44.6374 54.384C45.6398 54.9811 46.7849 55.2963 47.9516 55.2963C49.1184 55.2963 50.2635 54.9811 51.2658 54.384L61.998 47.9736L63.1823 47.2662L64.3666 46.5588L74.0885 40.7518L75.2732 40.0445L76.4576 39.337L82.5951 35.671C82.9944 35.4364 83.3268 35.1033 83.5606 34.7035C83.7944 34.3037 83.9217 33.8506 83.9304 33.3875C83.939 32.9245 83.8288 32.467 83.6101 32.0587C83.3914 31.6504 83.0717 31.3051 82.6815 31.0557L50.6221 12.7878C49.8263 12.2735 48.8991 12 47.9516 12C47.0042 12 46.0769 12.2735 45.2812 12.7878L13.2218 31.056C12.8317 31.3054 12.512 31.6508 12.2934 32.0591C12.0749 32.4673 11.9647 32.9248 11.9734 33.3878C11.9821 33.8508 12.1094 34.3038 12.3432 34.7036C12.577 35.1033 12.9094 35.4364 13.3087 35.671Z" fill="#F15E00"/>
</svg>
