<svg width="80" height="80" viewBox="0 0 80 80" fill="none" xmlns="http://www.w3.org/2000/svg">
<g id="menu-grid">
<path id="Vector" fill-rule="evenodd" clip-rule="evenodd" d="M24 26H12C11.4696 26 10.9609 25.7893 10.5858 25.4142C10.2107 25.0391 10 24.5304 10 24V12C10 11.4696 10.2107 10.9609 10.5858 10.5858C10.9609 10.2107 11.4696 10 12 10H24C24.5304 10 25.0391 10.2107 25.4142 10.5858C25.7893 10.9609 26 11.4696 26 12V24C26 24.5304 25.7893 25.0391 25.4142 25.4142C25.0391 25.7893 24.5304 26 24 26ZM46 26H34C33.4696 26 32.9609 25.7893 32.5858 25.4142C32.2107 25.0391 32 24.5304 32 24V12C32 11.4696 32.2107 10.9609 32.5858 10.5858C32.9609 10.2107 33.4696 10 34 10H46C46.5304 10 47.0391 10.2107 47.4142 10.5858C47.7893 10.9609 48 11.4696 48 12V24C48 24.5304 47.7893 25.0391 47.4142 25.4142C47.0391 25.7893 46.5304 26 46 26ZM68 26H56C55.4696 26 54.9609 25.7893 54.5858 25.4142C54.2107 25.0391 54 24.5304 54 24V12C54 11.4696 54.2107 10.9609 54.5858 10.5858C54.9609 10.2107 55.4696 10 56 10H68C68.5304 10 69.0391 10.2107 69.4142 10.5858C69.7893 10.9609 70 11.4696 70 12V24C70 24.5304 69.7893 25.0391 69.4142 25.4142C69.0391 25.7893 68.5304 26 68 26ZM24 48H12C11.4696 48 10.9609 47.7893 10.5858 47.4142C10.2107 47.0391 10 46.5304 10 46V34C10 33.4696 10.2107 32.9609 10.5858 32.5858C10.9609 32.2107 11.4696 32 12 32H24C24.5304 32 25.0391 32.2107 25.4142 32.5858C25.7893 32.9609 26 33.4696 26 34V46C26 46.5304 25.7893 47.0391 25.4142 47.4142C25.0391 47.7893 24.5304 48 24 48ZM46 48H34C33.4696 48 32.9609 47.7893 32.5858 47.4142C32.2107 47.0391 32 46.5304 32 46V34C32 33.4696 32.2107 32.9609 32.5858 32.5858C32.9609 32.2107 33.4696 32 34 32H46C46.5304 32 47.0391 32.2107 47.4142 32.5858C47.7893 32.9609 48 33.4696 48 34V46C48 46.5304 47.7893 47.0391 47.4142 47.4142C47.0391 47.7893 46.5304 48 46 48ZM68 48H56C55.4696 48 54.9609 47.7893 54.5858 47.4142C54.2107 47.0391 54 46.5304 54 46V34C54 33.4696 54.2107 32.9609 54.5858 32.5858C54.9609 32.2107 55.4696 32 56 32H68C68.5304 32 69.0391 32.2107 69.4142 32.5858C69.7893 32.9609 70 33.4696 70 34V46C70 46.5304 69.7893 47.0391 69.4142 47.4142C69.0391 47.7893 68.5304 48 68 48ZM24 70H12C11.4696 70 10.9609 69.7893 10.5858 69.4142C10.2107 69.0391 10 68.5304 10 68V56C10 55.4696 10.2107 54.9609 10.5858 54.5858C10.9609 54.2107 11.4696 54 12 54H24C24.5304 54 25.0391 54.2107 25.4142 54.5858C25.7893 54.9609 26 55.4696 26 56V68C26 68.5304 25.7893 69.0391 25.4142 69.4142C25.0391 69.7893 24.5304 70 24 70ZM46 70H34C33.4696 70 32.9609 69.7893 32.5858 69.4142C32.2107 69.0391 32 68.5304 32 68V56C32 55.4696 32.2107 54.9609 32.5858 54.5858C32.9609 54.2107 33.4696 54 34 54H46C46.5304 54 47.0391 54.2107 47.4142 54.5858C47.7893 54.9609 48 55.4696 48 56V68C48 68.5304 47.7893 69.0391 47.4142 69.4142C47.0391 69.7893 46.5304 70 46 70ZM68 70H56C55.4696 70 54.9609 69.7893 54.5858 69.4142C54.2107 69.0391 54 68.5304 54 68V56C54 55.4696 54.2107 54.9609 54.5858 54.5858C54.9609 54.2107 55.4696 54 56 54H68C68.5304 54 69.0391 54.2107 69.4142 54.5858C69.7893 54.9609 70 55.4696 70 56V68C70 68.5304 69.7893 69.0391 69.4142 69.4142C69.0391 69.7893 68.5304 70 68 70Z" fill="#EEEEEE"/>
</g>
</svg>
