<svg width="80" height="80" viewBox="0 0 80 80" fill="none" xmlns="http://www.w3.org/2000/svg">
<path fill-rule="evenodd" clip-rule="evenodd" d="M68.9017 49.7995L64.0828 47.0537L43.7742 59.184C42.6206 59.8711 41.3029 60.2338 39.9601 60.2338C38.6174 60.2338 37.2997 59.8711 36.1461 59.184L15.8375 47.0536L11.0186 49.7995C10.6934 50.0074 10.427 50.2952 10.2448 50.6354C10.0626 50.9757 9.9708 51.357 9.97806 51.7428C9.98532 52.1287 10.0915 52.5063 10.2863 52.8394C10.4812 53.1726 10.7582 53.4501 11.091 53.6456L37.1983 69.24C38.0336 69.7376 38.9879 70.0002 39.9601 70.0002C40.9324 70.0002 41.8867 69.7376 42.722 69.24L68.8293 53.6456C69.162 53.4501 69.4391 53.1726 69.634 52.8394C69.8288 52.5063 69.935 52.1287 69.9422 51.7428C69.9495 51.357 69.8576 50.9757 69.6755 50.6354C69.4933 50.2952 69.2269 50.0074 68.9017 49.7995ZM68.9017 38.0402L63.7391 35.0985L55.6375 39.9376L54.6506 40.5271L53.6637 41.1166L43.7742 47.024C42.6206 47.7111 41.3029 48.0738 39.9601 48.0738C38.6174 48.0738 37.2997 47.7111 36.1461 47.024L26.2567 41.1166L25.2697 40.5271L24.2828 39.9376L16.1813 35.0985L11.0186 38.04C10.6934 38.2479 10.427 38.5357 10.2448 38.8759C10.0626 39.2162 9.9708 39.5974 9.97806 39.9833C9.98532 40.3692 10.0915 40.7468 10.2863 41.0799C10.4812 41.413 10.7582 41.6906 11.091 41.8861L15.8619 44.736L16.8488 45.3255L17.8357 45.915L37.1983 57.4805C38.0336 57.9781 38.9879 58.2407 39.9601 58.2407C40.9324 58.2407 41.8867 57.9781 42.722 57.4805L62.0845 45.915L63.0715 45.3255L64.0585 44.736L68.8293 41.8863C69.1621 41.6909 69.4392 41.4133 69.6341 41.0801C69.829 40.747 69.9352 40.3694 69.9424 39.9834C69.9497 39.5975 69.8578 39.2162 69.6756 38.8759C69.4934 38.5357 69.2269 38.2479 68.9017 38.04V38.0402ZM11.091 29.7258L16.2056 32.7808L17.1925 33.3704L18.1795 33.9598L26.281 38.799L27.268 39.3885L28.2549 39.978L37.1983 45.32C38.0336 45.8176 38.9879 46.0802 39.9601 46.0802C40.9324 46.0802 41.8867 45.8176 42.722 45.32L51.6654 39.978L52.6524 39.3885L53.6393 38.799L61.7409 33.9598L62.7281 33.3704L63.7151 32.7808L68.8297 29.7258C69.1624 29.5303 69.4395 29.2527 69.6343 28.9196C69.8291 28.5864 69.9352 28.2088 69.9424 27.823C69.9496 27.4371 69.8578 27.0558 69.6755 26.7156C69.4933 26.3754 69.2269 26.0876 68.9017 25.8798L42.1855 10.6565C41.5224 10.228 40.7497 10 39.9601 10C39.1706 10 38.3979 10.228 37.7348 10.6565L11.0186 25.88C10.6935 26.0879 10.4271 26.3757 10.245 26.7159C10.0628 27.0561 9.97099 27.4374 9.97826 27.8232C9.98552 28.209 10.0916 28.5866 10.2865 28.9197C10.4813 29.2528 10.7583 29.5304 11.091 29.7258Z" fill="white"/>
</svg>
