<svg xmlns="http://www.w3.org/2000/svg" width="24" height="24" fill="currentColor" viewBox="0 0 24 24">
  <path fill-rule="evenodd" d="M2.406 12.224c.942-1.13 2.409-2.452 4.171-3.49a6.388 6.388 0 0 0-1.038 3.478c0 1.308.402 2.525 1.086 3.554a15.815 15.815 0 0 1-1.951-1.31 13.696 13.696 0 0 1-2.268-2.232Zm15.117.141c0 2.844-2.362 5.158-5.267 5.158a5.31 5.31 0 0 1-2.819-.808l1.853-2.053c.297.12.624.188.966.188 1.401 0 2.537-1.113 2.537-2.485 0-.444-.12-.86-.33-1.222l1.856-2.057a5.072 5.072 0 0 1 1.204 3.28Zm-5.188-5.388a5.39 5.39 0 0 1 3.08.962l-1.86 2.066a2.61 2.61 0 0 0-1.22-.302c-1.426 0-2.581 1.134-2.581 2.534 0 .546.177 1.05.476 1.464l-1.858 2.065a5.18 5.18 0 0 1-1.395-3.529c0-2.9 2.403-5.26 5.358-5.26Zm11.034 4.92c-.731-1.026-1.687-2.04-2.763-2.934a.703.703 0 0 0-.899 1.081c.84.698 1.598 1.474 2.214 2.263-1 1.291-2.414 2.557-4.026 3.526a6.617 6.617 0 0 0-.653-7.93l5.066-5.734a.703.703 0 0 0-1.054-.931l-4.64 5.252a11.554 11.554 0 0 0-4.364-.865c-4.84 0-9.3 3.75-11.117 6.269a.703.703 0 0 0-.012.806c.692 1.019 1.639 2.036 2.74 2.94a16.39 16.39 0 0 0 2.957 1.94l-4.197 4.75a.704.704 0 0 0 1.054.931l4.49-5.082c1.385.532 2.757.805 4.085.805 4.605 0 8.993-3.253 11.122-6.275a.702.702 0 0 0-.003-.814Z" clip-rule="evenodd"/>
</svg>
