<svg width="24" height="24" viewBox="0 0 24 24" fill="none" xmlns="http://www.w3.org/2000/svg">
<path fill-rule="evenodd" clip-rule="evenodd" d="M12.0239 18.6001C11.3943 18.6 10.884 18.0896 10.8841 17.46C10.8841 16.8304 11.3946 16.3201 12.0241 16.3201C12.6537 16.3202 13.1641 16.8305 13.1641 17.4601C13.1641 17.7625 13.044 18.0525 12.8301 18.2663C12.6163 18.4801 12.3263 18.6002 12.0239 18.6001ZM13.1608 8.42321L12.784 14.6181C12.7837 15.0377 12.4435 15.1953 12.0238 15.1953C11.6042 15.1953 11.264 15.0377 11.2637 14.6181L10.886 8.40893C10.8846 8.38615 10.8837 8.36333 10.8837 8.34012C10.8837 7.71042 11.3942 7.19995 12.0239 7.19995C12.6536 7.19995 13.1641 7.71042 13.1641 8.34012C13.1641 8.3681 13.1627 8.39573 13.1608 8.42321Z" fill="#856A00"/>
</svg>
