<svg width="272" height="48" viewBox="0 0 272 48" fill="none" xmlns="http://www.w3.org/2000/svg">
<path fill-rule="evenodd" clip-rule="evenodd" d="M13.8743 13.875H34.1243V34.125H13.8743V13.875ZM14.8868 14.8875H33.1118V33.1125H14.8868V14.8875ZM23.2843 27.7461L28.8705 21.266L28.8703 21.2659C28.99 21.1273 29.0618 20.9515 29.0618 20.76C29.0618 20.3127 28.671 19.95 28.1889 19.95C27.958 19.95 27.7482 20.0334 27.5921 20.1693L27.592 20.1691L22.4281 24.81L20.7268 23.061L20.7266 23.0612C20.574 22.9396 20.3757 22.866 20.1588 22.866C19.9177 22.866 19.6995 22.9567 19.5416 23.1033L19.1924 23.4273C19.0345 23.5739 18.9368 23.7763 18.9368 24C18.9368 24.1915 19.0085 24.3673 19.1282 24.5059L19.128 24.506L21.9211 27.746L21.9213 27.7459C22.0812 27.9312 22.327 28.05 22.6027 28.05C22.8784 28.05 23.1242 27.9312 23.2841 27.7459L23.2843 27.7461Z" fill="#F15E00"/>
<rect width="48" height="48" transform="translate(56)" fill="black" fill-opacity="0.08"/>
<path fill-rule="evenodd" clip-rule="evenodd" d="M69.8743 13.875H90.1243V34.125H69.8743V13.875ZM71.8991 15.8999H88.0991V32.0999H71.8991V15.8999ZM79.2843 27.7461L84.8705 21.266L84.8703 21.2659C84.99 21.1273 85.0618 20.9515 85.0618 20.76C85.0618 20.3127 84.671 19.95 84.1889 19.95C83.958 19.95 83.7482 20.0334 83.5921 20.1693L83.592 20.1691L78.4281 24.81L76.7268 23.061L76.7266 23.0612C76.574 22.9396 76.3757 22.866 76.1588 22.866C75.9177 22.866 75.6995 22.9567 75.5416 23.1033L75.1924 23.4273C75.0345 23.5739 74.9368 23.7763 74.9368 24C74.9368 24.1915 75.0085 24.3673 75.1282 24.5059L75.128 24.506L77.9211 27.746L77.9213 27.7459C78.0812 27.9312 78.327 28.05 78.6027 28.05C78.8784 28.05 79.1242 27.9312 79.2841 27.7459L79.2843 27.7461Z" fill="black" fill-opacity="0.68"/>
<rect width="48" height="48" transform="translate(112)" fill="black" fill-opacity="0.08"/>
<path fill-rule="evenodd" clip-rule="evenodd" d="M125.874 13.875H146.124V34.125H125.874V13.875ZM127.899 15.8999H144.099V32.0999H127.899V15.8999ZM135.284 27.7461L140.87 21.266L140.87 21.2659C140.99 21.1273 141.062 20.9515 141.062 20.76C141.062 20.3127 140.671 19.95 140.189 19.95C139.958 19.95 139.748 20.0334 139.592 20.1693L139.592 20.1691L134.428 24.81L132.727 23.061L132.727 23.0612C132.574 22.9396 132.376 22.866 132.159 22.866C131.918 22.866 131.7 22.9567 131.542 23.1033L131.192 23.4273C131.034 23.5739 130.937 23.7763 130.937 24C130.937 24.1915 131.009 24.3673 131.128 24.5059L131.128 24.506L133.921 27.746L133.921 27.7459C134.081 27.9312 134.327 28.05 134.603 28.05C134.878 28.05 135.124 27.9312 135.284 27.7459L135.284 27.7461Z" fill="#F15E00"/>
<path fill-rule="evenodd" clip-rule="evenodd" d="M181.874 13.875H202.124V34.125H181.874V13.875ZM182.887 14.8875H201.112V33.1125H182.887V14.8875ZM191.284 27.7461L196.87 21.266L196.87 21.2659C196.99 21.1273 197.062 20.9515 197.062 20.76C197.062 20.3127 196.671 19.95 196.189 19.95C195.958 19.95 195.748 20.0334 195.592 20.1693L195.592 20.1691L190.428 24.81L188.727 23.061L188.727 23.0612C188.574 22.9396 188.376 22.866 188.159 22.866C187.918 22.866 187.7 22.9567 187.542 23.1033L187.192 23.4273C187.034 23.5739 186.937 23.7763 186.937 24C186.937 24.1915 187.009 24.3673 187.128 24.5059L187.128 24.506L189.921 27.746L189.921 27.7459C190.081 27.9312 190.327 28.05 190.603 28.05C190.878 28.05 191.124 27.9312 191.284 27.7459L191.284 27.7461Z" fill="black" fill-opacity="0.2"/>
<mask id="path-9-inside-1_2663_25813" fill="white">
<path d="M224 0H272V48H224V0Z"/>
</mask>
<path d="M224 0H272V48H224V0Z" fill="black" fill-opacity="0.08"/>
<path d="M224 0V-2H222V0H224ZM272 0H274V-2H272V0ZM272 48V50H274V48H272ZM224 48H222V50H224V48ZM224 2H272V-2H224V2ZM270 0V48H274V0H270ZM272 46H224V50H272V46ZM226 48V0H222V48H226Z" fill="black" mask="url(#path-9-inside-1_2663_25813)"/>
<path fill-rule="evenodd" clip-rule="evenodd" d="M237.874 13.875H258.124V34.125H237.874V13.875ZM239.899 15.8999H256.099V32.0999H239.899V15.8999ZM247.284 27.7461L252.87 21.266L252.87 21.2659C252.99 21.1273 253.062 20.9515 253.062 20.76C253.062 20.3127 252.671 19.95 252.189 19.95C251.958 19.95 251.748 20.0334 251.592 20.1693L251.592 20.1691L246.428 24.81L244.727 23.061L244.727 23.0612C244.574 22.9396 244.376 22.866 244.159 22.866C243.918 22.866 243.7 22.9567 243.542 23.1033L243.192 23.4273C243.034 23.5739 242.937 23.7763 242.937 24C242.937 24.1915 243.009 24.3673 243.128 24.5059L243.128 24.506L245.921 27.746L245.921 27.7459C246.081 27.9312 246.327 28.05 246.603 28.05C246.878 28.05 247.124 27.9312 247.284 27.7459L247.284 27.7461Z" fill="black" fill-opacity="0.68"/>
</svg>
