<svg width="224" height="44" viewBox="0 0 224 44" fill="none" xmlns="http://www.w3.org/2000/svg">
<g clip-path="url(#clip0_1375_10341)">
<path fill-rule="evenodd" clip-rule="evenodd" d="M12 12H32V32H12V12ZM13 13H31V31H13V13ZM21.2939 25.6998L26.8111 19.2998L26.8109 19.2997C26.9291 19.1628 27 18.9891 27 18.8001C27 18.3582 26.614 18 26.1379 18C25.9099 18 25.7026 18.0824 25.5485 18.2166L25.5483 18.2164L20.4483 22.8001L18.7679 21.0726L18.7678 21.0728C18.617 20.9527 18.4211 20.88 18.2069 20.88C17.9688 20.88 17.7533 20.9696 17.5973 21.1144L17.2525 21.4344C17.0965 21.5791 17 21.7791 17 22C17 22.1891 17.0708 22.3628 17.189 22.4997L17.1889 22.4998L19.9475 25.6998L19.9477 25.6997C20.1057 25.8827 20.3483 26 20.6207 26C20.893 26 21.1357 25.8827 21.2937 25.6997L21.2939 25.6998Z" fill="#FF7900"/>
</g>
<rect width="44" height="44" transform="translate(60)" fill="#333333"/>
<g clip-path="url(#clip1_1375_10341)">
<path fill-rule="evenodd" clip-rule="evenodd" d="M72 12H92V32H72V12ZM73.9999 13.9999H89.9999V29.9999H73.9999V13.9999ZM81.2939 25.6998L86.8111 19.2998L86.8109 19.2997C86.9291 19.1628 87 18.9891 87 18.8001C87 18.3582 86.614 18 86.1379 18C85.9099 18 85.7026 18.0824 85.5485 18.2166L85.5483 18.2164L80.4483 22.8001L78.7679 21.0726L78.7678 21.0728C78.617 20.9527 78.4211 20.88 78.2069 20.88C77.9688 20.88 77.7533 20.9696 77.5973 21.1144L77.2525 21.4344C77.0965 21.5791 77 21.7791 77 22C77 22.1891 77.0708 22.3628 77.189 22.4997L77.1889 22.4998L79.9475 25.6998L79.9477 25.6997C80.1057 25.8827 80.3483 26 80.6207 26C80.893 26 81.1357 25.8827 81.2937 25.6997L81.2939 25.6998Z" fill="#BBBBBB"/>
</g>
<rect width="44" height="44" transform="translate(120)" fill="#333333"/>
<g clip-path="url(#clip2_1375_10341)">
<path fill-rule="evenodd" clip-rule="evenodd" d="M132 12H152V32H132V12ZM134 13.9999H150V29.9999H134V13.9999ZM141.294 25.6998L146.811 19.2998L146.811 19.2997C146.929 19.1628 147 18.9891 147 18.8001C147 18.3582 146.614 18 146.138 18C145.91 18 145.703 18.0824 145.548 18.2166L145.548 18.2164L140.448 22.8001L138.768 21.0726L138.768 21.0728C138.617 20.9527 138.421 20.88 138.207 20.88C137.969 20.88 137.753 20.9696 137.597 21.1144L137.252 21.4344C137.096 21.5791 137 21.7791 137 22C137 22.1891 137.071 22.3628 137.189 22.4997L137.189 22.4998L139.948 25.6998L139.948 25.6997C140.106 25.8827 140.348 26 140.621 26C140.893 26 141.136 25.8827 141.294 25.6997L141.294 25.6998Z" fill="#FF7900"/>
</g>
<g clip-path="url(#clip3_1375_10341)">
<path fill-rule="evenodd" clip-rule="evenodd" d="M192 12H212V32H192V12ZM193 13H211V31H193V13ZM201.294 25.6998L206.811 19.2998L206.811 19.2997C206.929 19.1628 207 18.9891 207 18.8001C207 18.3582 206.614 18 206.138 18C205.91 18 205.703 18.0824 205.548 18.2166L205.548 18.2164L200.448 22.8001L198.768 21.0726L198.768 21.0728C198.617 20.9527 198.421 20.88 198.207 20.88C197.969 20.88 197.753 20.9696 197.597 21.1144L197.252 21.4344C197.096 21.5791 197 21.7791 197 22C197 22.1891 197.071 22.3628 197.189 22.4997L197.189 22.4998L199.948 25.6998L199.948 25.6997C200.106 25.8827 200.348 26 200.621 26C200.893 26 201.136 25.8827 201.294 25.6997L201.294 25.6998Z" fill="#555555"/>
</g>
<defs>
<clipPath id="clip0_1375_10341">
<rect x="12" y="12" width="20" height="20" fill="white"/>
</clipPath>
<clipPath id="clip1_1375_10341">
<rect x="72" y="12" width="20" height="20" fill="white"/>
</clipPath>
<clipPath id="clip2_1375_10341">
<rect x="132" y="12" width="20" height="20" fill="white"/>
</clipPath>
<clipPath id="clip3_1375_10341">
<rect x="192" y="12" width="20" height="20" fill="white"/>
</clipPath>
</defs>
</svg>
