<svg width="64" height="64" viewBox="0 0 64 64" fill="none" xmlns="http://www.w3.org/2000/svg">
<path fill-rule="evenodd" clip-rule="evenodd" d="M46.4333 23.8993L29.8816 43.0993C29.4076 43.6483 28.6791 44 27.8621 44C27.045 44 26.317 43.648 25.843 43.099L17.5667 33.4993C17.2122 33.0885 17 32.5673 17 32C17 31.3372 17.2894 30.7373 17.7574 30.303L18.792 29.343C19.26 28.9086 19.9065 28.64 20.6207 28.64C21.2634 28.64 21.851 28.8581 22.3033 29.2183L27.3448 34.4001L42.645 20.6491C43.1075 20.2465 43.7296 20 44.4137 20C45.8421 20 47 21.0745 47 22.4001C47 22.9672 46.7878 23.4885 46.4333 23.8993Z" fill="black"/>
</svg>
