<svg width="328" height="185" viewBox="0 0 328 185" fill="none" xmlns="http://www.w3.org/2000/svg">
<path d="M136 68.5713C136 59.7347 143.163 52.5713 152 52.5713H176C184.837 52.5713 192 59.7347 192 68.5713C192 77.4078 184.837 84.5713 176 84.5713H152C143.163 84.5713 136 77.4078 136 68.5713Z" fill="#1ECD3C"/>
<g filter="url(#filter0_d_3328_10366)">
<path d="M164 68.5713C164 61.9439 169.373 56.5713 176 56.5713C182.627 56.5713 188 61.9439 188 68.5713C188 75.1987 182.627 80.5713 176 80.5713C169.373 80.5713 164 75.1987 164 68.5713Z" fill="#141414" shape-rendering="crispEdges"/>
<path fill-rule="evenodd" clip-rule="evenodd" d="M181.292 65.6178C181.292 65.6179 181.292 65.6179 181.292 65.618L175.223 72.6178C175.223 72.6179 175.223 72.6179 175.223 72.6179C175.223 72.6178 175.223 72.6178 175.223 72.6179C175.049 72.818 174.782 72.9463 174.482 72.9463C174.183 72.9463 173.916 72.818 173.742 72.6179C173.742 72.6178 173.742 72.6178 173.742 72.6179C173.742 72.6179 173.742 72.6179 173.742 72.6178L170.707 69.118C170.707 69.1179 170.707 69.1179 170.707 69.1178C170.707 69.1178 170.707 69.1178 170.707 69.1177C170.577 68.968 170.5 68.7781 170.5 68.5713C170.5 68.3297 170.606 68.1109 170.777 67.9526L171.157 67.6026C171.328 67.4442 171.565 67.3463 171.827 67.3463C172.063 67.3463 172.278 67.4258 172.444 67.5571C172.444 67.5571 172.444 67.5571 172.444 67.557C172.444 67.557 172.444 67.557 172.444 67.557L173.44 68.575C173.917 69.0624 174.693 69.0885 175.202 68.6341L179.903 64.433C179.903 64.433 179.903 64.433 179.903 64.433C179.903 64.4331 179.903 64.4331 179.903 64.433C180.072 64.2863 180.3 64.1963 180.551 64.1963C181.075 64.1963 181.5 64.588 181.5 65.0713C181.5 65.2781 181.422 65.468 181.292 65.6177C181.292 65.6178 181.292 65.6178 181.292 65.6178Z" fill="#EEEEEE"/>
</g>
<path d="M136 116.571C136 107.735 143.163 100.571 152 100.571H176C184.837 100.571 192 107.735 192 116.571C192 125.408 184.837 132.571 176 132.571H152C143.163 132.571 136 125.408 136 116.571Z" fill="white" fill-opacity="0.64"/>
<g filter="url(#filter1_d_3328_10366)">
<path d="M144 116.571C144 112.153 147.582 108.571 152 108.571C156.418 108.571 160 112.153 160 116.571C160 120.99 156.418 124.571 152 124.571C147.582 124.571 144 120.99 144 116.571Z" fill="#141414" shape-rendering="crispEdges"/>
</g>
<defs>
<filter id="filter0_d_3328_10366" x="162" y="55.5713" width="28" height="28" filterUnits="userSpaceOnUse" color-interpolation-filters="sRGB">
<feFlood flood-opacity="0" result="BackgroundImageFix"/>
<feColorMatrix in="SourceAlpha" type="matrix" values="0 0 0 0 0 0 0 0 0 0 0 0 0 0 0 0 0 0 127 0" result="hardAlpha"/>
<feOffset dy="1"/>
<feGaussianBlur stdDeviation="1"/>
<feComposite in2="hardAlpha" operator="out"/>
<feColorMatrix type="matrix" values="0 0 0 0 0 0 0 0 0 0 0 0 0 0 0 0 0 0 0.32 0"/>
<feBlend mode="normal" in2="BackgroundImageFix" result="effect1_dropShadow_3328_10366"/>
<feBlend mode="normal" in="SourceGraphic" in2="effect1_dropShadow_3328_10366" result="shape"/>
</filter>
<filter id="filter1_d_3328_10366" x="142" y="107.571" width="20" height="20" filterUnits="userSpaceOnUse" color-interpolation-filters="sRGB">
<feFlood flood-opacity="0" result="BackgroundImageFix"/>
<feColorMatrix in="SourceAlpha" type="matrix" values="0 0 0 0 0 0 0 0 0 0 0 0 0 0 0 0 0 0 127 0" result="hardAlpha"/>
<feOffset dy="1"/>
<feGaussianBlur stdDeviation="1"/>
<feComposite in2="hardAlpha" operator="out"/>
<feColorMatrix type="matrix" values="0 0 0 0 0 0 0 0 0 0 0 0 0 0 0 0 0 0 0.32 0"/>
<feBlend mode="normal" in2="BackgroundImageFix" result="effect1_dropShadow_3328_10366"/>
<feBlend mode="normal" in="SourceGraphic" in2="effect1_dropShadow_3328_10366" result="shape"/>
</filter>
</defs>
</svg>
