<svg width="21" height="20" viewBox="0 0 21 20" fill="none" xmlns="http://www.w3.org/2000/svg">
<path fill-rule="evenodd" clip-rule="evenodd" d="M15.9736 9.51371L10.4999 15.5765L5.02643 9.51371L5.02363 9.51066C3.96358 8.33406 4.05828 6.52092 5.23488 5.46086C6.36857 4.4399 8.10326 4.48484 9.1821 5.56369C9.1849 5.56674 9.18769 5.56953 9.19048 5.57232L10.0276 6.36807L10.4999 6.82256L10.9721 6.36832L11.8095 5.57232C11.8121 5.56953 11.8151 5.56674 11.8179 5.56369C12.3547 5.02414 13.0846 4.72199 13.8456 4.72402C15.4292 4.72402 16.7132 6.00752 16.7135 7.59138C16.7135 8.30029 16.4509 8.98406 15.9764 9.51066L15.9736 9.51371ZM17.2254 4.21217C15.3698 2.35688 12.3692 2.34622 10.4999 4.17891C8.63091 2.34622 5.63026 2.35688 3.77471 4.21217C1.93897 6.04817 1.90876 9.00617 3.68508 10.8787L10.4999 18.3926V18.3923V18.3926L17.315 10.8787C19.0911 9.00617 19.0611 6.04817 17.2254 4.21217Z" fill="black"/>
</svg>
