<svg width="20" height="20" viewBox="0 0 20 20" fill="none" xmlns="http://www.w3.org/2000/svg">
<g id="Icon">
<path id="Shape" fill-rule="evenodd" clip-rule="evenodd" d="M15.4736 9.51371L9.99988 15.5765L4.52643 9.51371L4.52363 9.51066C3.46358 8.33406 3.55828 6.52092 4.73488 5.46086C5.86857 4.4399 7.60326 4.48484 8.6821 5.56369C8.6849 5.56674 8.68769 5.56953 8.69048 5.57232L9.52761 6.36807L9.99988 6.82256L10.4721 6.36832L11.3095 5.57232C11.3121 5.56953 11.3151 5.56674 11.3179 5.56369C11.8547 5.02414 12.5846 4.72199 13.3456 4.72402C14.9292 4.72402 16.2132 6.00752 16.2135 7.59138C16.2135 8.30029 15.9509 8.98406 15.4764 9.51066L15.4736 9.51371ZM16.7254 4.21217C14.8698 2.35688 11.8692 2.34622 9.99992 4.17891C8.13091 2.34622 5.13026 2.35688 3.27471 4.21217C1.43897 6.04817 1.40876 9.00617 3.18508 10.8787L9.99992 18.3926V18.3923V18.3926L16.815 10.8787C18.5911 9.00617 18.5611 6.04817 16.7254 4.21217Z" fill="black"/>
</g>
</svg>
