<svg width="64" height="64" viewBox="0 0 64 64" fill="none" xmlns="http://www.w3.org/2000/svg">
<path fill-rule="evenodd" clip-rule="evenodd" d="M49.0584 14.9495C50.3139 16.205 50.3139 18.2428 49.0584 19.4983L36.5493 32.005L49.0584 44.5173C50.3139 45.7728 50.3139 47.8107 49.0584 49.0662C47.8029 50.3217 45.765 50.3217 44.5095 49.0662L32 36.5543L19.4905 49.0662C18.235 50.3217 16.1971 50.3217 14.9416 49.0662C13.6861 47.8107 13.6861 45.7728 14.9416 44.5173L27.4507 32.005L14.9416 19.4983C13.6861 18.2428 13.6861 16.205 14.9416 14.9495C16.1971 13.694 18.235 13.694 19.4905 14.9495L32 27.4556L44.5095 14.9494C45.765 13.6939 47.8029 13.694 49.0584 14.9495Z" fill="black"/>
</svg>
