<svg width="272" height="48" viewBox="0 0 272 48" fill="none" xmlns="http://www.w3.org/2000/svg">
<g clip-path="url(#clip0_2672_20046)">
<path fill-rule="evenodd" clip-rule="evenodd" d="M36 24C36 30.6274 30.6274 36 24 36C17.3726 36 12 30.6274 12 24C12 17.3726 17.3726 12 24 12C30.6274 12 36 17.3726 36 24ZM33.5999 23.9999C33.5999 29.3018 29.3018 33.5999 23.9999 33.5999C18.6979 33.5999 14.3999 29.3018 14.3999 23.9999C14.3999 18.6979 18.6979 14.3999 23.9999 14.3999C29.3018 14.3999 33.5999 18.6979 33.5999 23.9999ZM19.2 24C19.2 21.312 21.312 19.2 24 19.2C26.688 19.2 28.8 21.312 28.8 24C28.8 26.688 26.688 28.8 24 28.8C21.312 28.8 19.2 26.688 19.2 24Z" fill="#FF7900"/>
</g>
<rect width="48" height="48" transform="translate(56)" fill="white" fill-opacity="0.08"/>
<g clip-path="url(#clip1_2672_20046)">
<path fill-rule="evenodd" clip-rule="evenodd" d="M92 24C92 30.6274 86.6274 36 80 36C73.3726 36 68 30.6274 68 24C68 17.3726 73.3726 12 80 12C86.6274 12 92 17.3726 92 24ZM89.5999 23.9999C89.5999 29.3018 85.3018 33.5999 79.9999 33.5999C74.6979 33.5999 70.3999 29.3018 70.3999 23.9999C70.3999 18.6979 74.6979 14.3999 79.9999 14.3999C85.3018 14.3999 89.5999 18.6979 89.5999 23.9999ZM75.2 24C75.2 21.312 77.312 19.2 80 19.2C82.688 19.2 84.8 21.312 84.8 24C84.8 26.688 82.688 28.8 80 28.8C77.312 28.8 75.2 26.688 75.2 24Z" fill="white" fill-opacity="0.64"/>
</g>
<rect width="48" height="48" transform="translate(112)" fill="white" fill-opacity="0.08"/>
<g clip-path="url(#clip2_2672_20046)">
<path fill-rule="evenodd" clip-rule="evenodd" d="M148 24C148 30.6274 142.627 36 136 36C129.373 36 124 30.6274 124 24C124 17.3726 129.373 12 136 12C142.627 12 148 17.3726 148 24ZM145.6 23.9999C145.6 29.3018 141.302 33.5999 136 33.5999C130.698 33.5999 126.4 29.3018 126.4 23.9999C126.4 18.6979 130.698 14.3999 136 14.3999C141.302 14.3999 145.6 18.6979 145.6 23.9999ZM131.2 24C131.2 21.312 133.312 19.2 136 19.2C138.688 19.2 140.8 21.312 140.8 24C140.8 26.688 138.688 28.8 136 28.8C133.312 28.8 131.2 26.688 131.2 24Z" fill="#FF7900"/>
</g>
<g clip-path="url(#clip3_2672_20046)">
<path fill-rule="evenodd" clip-rule="evenodd" d="M204 24C204 30.6274 198.627 36 192 36C185.373 36 180 30.6274 180 24C180 17.3726 185.373 12 192 12C198.627 12 204 17.3726 204 24ZM201.6 23.9999C201.6 29.3018 197.302 33.5999 192 33.5999C186.698 33.5999 182.4 29.3018 182.4 23.9999C182.4 18.6979 186.698 14.3999 192 14.3999C197.302 14.3999 201.6 18.6979 201.6 23.9999ZM187.2 24C187.2 21.312 189.312 19.2 192 19.2C194.688 19.2 196.8 21.312 196.8 24C196.8 26.688 194.688 28.8 192 28.8C189.312 28.8 187.2 26.688 187.2 24Z" fill="white" fill-opacity="0.2"/>
</g>
<mask id="path-9-inside-1_2672_20046" fill="white">
<path d="M224 0H272V48H224V0Z"/>
</mask>
<path d="M224 0H272V48H224V0Z" fill="white" fill-opacity="0.08"/>
<path d="M224 0V-2H222V0H224ZM272 0H274V-2H272V0ZM272 48V50H274V48H272ZM224 48H222V50H224V48ZM224 2H272V-2H224V2ZM270 0V48H274V0H270ZM272 46H224V50H272V46ZM226 48V0H222V48H226Z" fill="#EEEEEE" mask="url(#path-9-inside-1_2672_20046)"/>
<g clip-path="url(#clip4_2672_20046)">
<path fill-rule="evenodd" clip-rule="evenodd" d="M260 24C260 30.6274 254.627 36 248 36C241.373 36 236 30.6274 236 24C236 17.3726 241.373 12 248 12C254.627 12 260 17.3726 260 24ZM257.6 23.9999C257.6 29.3018 253.302 33.5999 248 33.5999C242.698 33.5999 238.4 29.3018 238.4 23.9999C238.4 18.6979 242.698 14.3999 248 14.3999C253.302 14.3999 257.6 18.6979 257.6 23.9999ZM243.2 24C243.2 21.312 245.312 19.2 248 19.2C250.688 19.2 252.8 21.312 252.8 24C252.8 26.688 250.688 28.8 248 28.8C245.312 28.8 243.2 26.688 243.2 24Z" fill="white" fill-opacity="0.64"/>
</g>
<defs>
<clipPath id="clip0_2672_20046">
<rect x="12" y="12" width="24" height="24" fill="white"/>
</clipPath>
<clipPath id="clip1_2672_20046">
<rect x="68" y="12" width="24" height="24" fill="white"/>
</clipPath>
<clipPath id="clip2_2672_20046">
<rect x="124" y="12" width="24" height="24" fill="white"/>
</clipPath>
<clipPath id="clip3_2672_20046">
<rect x="180" y="12" width="24" height="24" fill="white"/>
</clipPath>
<clipPath id="clip4_2672_20046">
<rect x="236" y="12" width="24" height="24" fill="white"/>
</clipPath>
</defs>
</svg>
