<svg width="64" height="64" viewBox="0 0 64 64" fill="none" xmlns="http://www.w3.org/2000/svg">
<path fill-rule="evenodd" clip-rule="evenodd" d="M32.5721 32.5832C34.8152 30.342 36.0497 27.3608 36.0497 24.1887C36.0497 23.2919 35.3223 22.5641 34.4251 22.5641C33.5271 22.5641 32.7997 23.2919 32.7997 24.1887C32.7997 26.4924 31.9025 28.6581 30.2738 30.2851C28.646 31.9146 26.4801 32.8106 24.1769 32.8106C23.2789 32.8106 22.5515 33.5384 22.5515 34.436C22.5515 35.3337 23.2789 36.0607 24.1769 36.0607C27.3489 36.0607 30.3307 34.826 32.5721 32.5832ZM11.3175 37.0444C14.8633 40.5894 19.5201 42.3618 24.1769 42.3618C28.3233 42.3618 32.4657 40.9468 35.827 38.1362L55.2278 57.5318C55.5448 57.8494 55.9609 58.0078 56.377 58.0078C56.7931 58.0078 57.2084 57.8494 57.5262 57.5318C58.1609 56.8974 58.1609 55.8682 57.5262 55.2338L38.1278 35.8406C40.8649 32.5759 42.3611 28.4997 42.3611 24.1888C42.3611 19.3328 40.47 14.7676 37.0347 11.3339C33.4929 7.79304 28.7931 5.89222 23.7771 6.01326C22.879 6.03275 22.1679 6.77602 22.1874 7.67281C22.2069 8.56961 22.9115 9.28282 23.8478 9.26251C27.9454 9.17478 31.8277 10.7239 34.7364 13.6319C37.5572 16.4523 39.1111 20.2019 39.1111 24.1888C39.1111 28.178 37.5572 31.9269 34.7364 34.7472C28.9133 40.5674 19.4397 40.5691 13.6158 34.7472C7.79445 28.9262 7.79445 19.453 13.6158 13.6319C14.3335 12.9155 15.1234 12.2705 15.9613 11.7173C16.7098 11.2226 16.9162 10.2145 16.4213 9.46559C15.9264 8.71664 14.9202 8.51112 14.1693 9.00501C13.1493 9.67842 12.1904 10.4615 11.3175 11.3331C4.2275 18.423 4.2275 29.9562 11.3175 37.0444Z" fill="black"/>
</svg>
