<svg width="135" height="160" viewBox="0 0 135 160" fill="none" xmlns="http://www.w3.org/2000/svg">
<g id="Illustrations/empty-screen" clip-path="url(#clip0_283_7435)">
<path id="Stroke 1" fill-rule="evenodd" clip-rule="evenodd" d="M116.138 87.1741C116.138 113.54 94.8778 134.914 68.6509 134.914C42.4245 134.914 21.1641 113.54 21.1641 87.1741C21.1641 60.8084 42.4245 39.4343 68.6509 39.4343C94.8778 39.4343 116.138 60.8084 116.138 87.1741Z" stroke="#FF7900" stroke-width="0.75"/>
<path id="Stroke 3" d="M16.4094 98.9951C12.3016 81.3991 17.3333 63.7934 28.4008 51.2118" stroke="#FFB4E6" stroke-width="2.25" stroke-linecap="round"/>
<path id="Stroke 5" d="M120.71 74.5059C123.151 84.9661 122.364 95.4293 118.998 104.839" stroke="#4BB4E6" stroke-width="2.25" stroke-linecap="round"/>
<path id="Stroke 7" d="M0.304688 140.983H134.053" stroke="#FF7900" stroke-width="2.25" stroke-linecap="round"/>
<path id="Fill 9" fill-rule="evenodd" clip-rule="evenodd" d="M115.176 154.784C115.176 157.456 95.5212 159.621 71.2754 159.621C47.0301 159.621 27.375 157.456 27.375 154.784C27.375 152.113 47.0301 149.948 71.2754 149.948C95.5212 149.948 115.176 152.113 115.176 154.784Z" fill="black"/>
<path id="Fill 11" fill-rule="evenodd" clip-rule="evenodd" d="M64.5523 144.803C60.8825 145.711 55.5646 146.452 52.8253 147.649C50.086 148.846 47.7504 151.05 44.8059 152.313C43.474 152.884 42.0282 153.066 40.9776 152.649C39.7566 152.165 39.1189 151.34 38.4746 149.197C37.5855 146.24 42.8333 142.253 44.6962 140.424C46.5598 138.595 51.251 136.932 54.3563 137.659C57.4623 138.385 63.5554 137.688 64.5523 137.538C65.5493 137.387 64.5523 144.803 64.5523 144.803Z" fill="white"/>
<path id="Stroke 13" fill-rule="evenodd" clip-rule="evenodd" d="M64.5523 144.803C60.8825 145.711 55.5646 146.452 52.8253 147.649C50.086 148.846 47.7504 151.05 44.8059 152.313C43.474 152.884 42.0282 153.066 40.9776 152.649C39.7566 152.165 39.1189 151.34 38.4746 149.197C37.5855 146.24 42.8333 142.253 44.6962 140.424C46.5598 138.595 51.251 136.932 54.3563 137.659C57.4623 138.385 63.5554 137.688 64.5523 137.538C65.5493 137.387 64.5523 144.803 64.5523 144.803Z" stroke="black" stroke-width="0.75"/>
<path id="Fill 15" fill-rule="evenodd" clip-rule="evenodd" d="M50.003 115.552H87.5301L107.544 117.003L99.776 125.361C99.776 125.361 68.92 136.084 68.4158 135.687C67.9109 135.289 41.4324 121.126 40.7144 120.596C39.9958 120.066 37.3643 116.228 37.3643 116.228L50.003 115.552Z" fill="black"/>
<path id="Stroke 17" fill-rule="evenodd" clip-rule="evenodd" d="M50.003 115.552H87.5301L107.544 117.003L99.776 125.361C99.776 125.361 68.92 136.084 68.4158 135.687C67.9109 135.289 41.4324 121.126 40.7144 120.596C39.9958 120.066 37.3643 116.228 37.3643 116.228L50.003 115.552Z" stroke="white" stroke-width="0.75"/>
<path id="Fill 19" fill-rule="evenodd" clip-rule="evenodd" d="M97.4737 153.183C96.6467 153.183 95.735 152.979 94.8367 152.595C93.2996 151.935 91.9269 151.024 90.598 150.143C89.3264 149.299 88.1248 148.502 86.8161 147.93C85.0335 147.151 82.1091 146.562 79.2802 145.993C77.7918 145.693 76.3862 145.41 75.1371 145.101L74.9362 145.051L74.9081 144.844C74.7017 143.309 74.0835 138.234 74.7985 137.412C74.9008 137.294 75.0366 137.229 75.1804 137.229L75.2553 137.235C75.8351 137.323 78.7936 137.678 81.6322 137.678C83.1907 137.678 84.4373 137.571 85.3368 137.361C85.8539 137.239 86.4306 137.178 87.0493 137.178C89.8873 137.178 93.5785 138.536 95.2789 140.205C95.5852 140.506 95.9841 140.866 96.4323 141.27C98.7995 143.405 102.377 146.633 101.579 149.286C100.92 151.48 100.242 152.4 98.8964 152.934C98.4804 153.099 98.0024 153.183 97.4737 153.183Z" fill="white"/>
<path id="Fill 21" fill-rule="evenodd" clip-rule="evenodd" d="M87.0497 136.872V137.484V136.872C86.4078 136.872 85.8086 136.936 85.2684 137.062C84.3914 137.268 83.1679 137.372 81.6326 137.372C78.8141 137.372 75.8769 137.02 75.3013 136.933L75.2563 136.925L75.1808 136.923C74.9475 136.923 74.7307 137.025 74.5699 137.211C73.8574 138.03 74.1972 141.836 74.6071 144.885L74.6625 145.298L75.065 145.398C76.3202 145.709 77.7295 145.992 79.2215 146.293C82.0339 146.859 84.9426 147.445 86.6947 148.211C87.9797 148.772 89.1703 149.562 90.4309 150.398C91.7701 151.287 93.1556 152.206 94.7177 152.876C95.6532 153.277 96.6063 153.489 97.4741 153.489C98.0411 153.489 98.5569 153.398 99.0088 153.219C100.439 152.651 101.188 151.646 101.871 149.375C102.724 146.535 99.0606 143.23 96.6361 141.043C96.183 140.634 95.7914 140.28 95.4918 139.986C93.7135 138.24 90.0058 136.872 87.0497 136.872ZM87.0497 137.484C89.9803 137.484 93.5101 138.896 95.0667 140.424C96.9297 142.254 102.177 146.24 101.288 149.197C100.644 151.339 100.006 152.165 98.7853 152.65C98.3937 152.805 97.9485 152.877 97.4741 152.877C96.6745 152.877 95.7933 152.672 94.9571 152.313C92.0119 151.05 89.677 148.846 86.9377 147.649C84.1983 146.452 78.8805 145.712 75.2106 144.804C75.2106 144.804 74.2331 137.535 75.1808 137.535C75.1905 137.535 75.2002 137.536 75.2106 137.538C75.8775 137.639 78.8245 137.984 81.6326 137.984C83.0223 137.984 84.378 137.899 85.406 137.659C85.9176 137.539 86.4718 137.484 87.0497 137.484Z" fill="black"/>
<path id="Fill 23" fill-rule="evenodd" clip-rule="evenodd" d="M95.0658 140.424C93.2022 138.595 88.511 136.932 85.4057 137.659C82.2998 138.385 76.2066 137.689 75.2097 137.538C74.2127 137.387 75.2097 144.804 75.2097 144.804C78.2706 145.561 82.4721 146.203 85.3734 147.088L95.5079 140.842C95.3472 140.694 95.1961 140.552 95.0658 140.424Z" fill="#4BB4E6"/>
<path id="Fill 25" fill-rule="evenodd" clip-rule="evenodd" d="M44.4363 141.021C46.2992 139.191 50.7578 137.144 53.8631 137.87C56.9691 138.596 62.2924 137.689 63.2894 137.538C64.2863 137.387 63.2894 144.803 63.2894 144.803C60.2285 145.561 56.139 146.241 53.2377 147.128L43.9941 141.439C44.1549 141.29 44.3053 141.149 44.4363 141.021Z" fill="#4BB4E6"/>
<path id="Fill 27" fill-rule="evenodd" clip-rule="evenodd" d="M128.651 117.333C128.154 117.4 126.244 114.084 126.324 114.047C126.404 114.011 127.82 113.77 127.82 113.77C127.82 113.77 130.905 114.591 131.276 114.698C130.843 115.116 130.511 116.596 130.055 116.976C129.699 117.273 128.871 117.303 128.651 117.333ZM134.319 119.754C133.799 119.846 131.902 120.215 131.566 120.185C131.229 120.154 129.435 119.631 129.435 119.631C129.435 119.631 132.116 118.8 132.331 118.248C132.544 117.693 132.997 115.756 133.256 115.025C133.514 114.294 132.626 114.398 132.626 114.398C132.626 114.398 133.412 113.461 132.626 113.137C131.84 112.811 129.708 111.795 128.301 111.401C126.893 111.008 125.106 111.545 123.245 111.682C121.385 111.818 118.937 112.414 117.786 111.305C116.635 110.196 103.155 98.3183 100.044 97.5628L97.7188 95.0496C97.7188 95.0496 87.1817 91.9479 89.0301 98.6232C90.879 105.299 93.8266 105.643 97.3826 107.227C100.938 108.811 115.43 114.919 116.854 115.497C118.279 116.075 119.256 116.748 119.853 117.531C120.449 118.315 124.348 124.216 124.817 124.918C125.284 125.62 128.049 126.927 128.926 127.432C129.802 127.936 130.098 126.526 129.624 126.284C129.148 126.043 127.899 125.345 127.874 125.269C127.849 125.194 126.856 123.271 126.856 123.271C126.856 123.271 129.395 124.923 129.714 124.973C130.033 125.023 132.352 125.127 133.15 125.044C133.949 124.96 133.861 123.862 133.346 123.837C132.832 123.813 130.873 123.321 130.603 123.173C130.334 123.025 128.883 121.998 128.883 121.998C128.883 121.998 131.451 122.21 131.835 122.184C132.218 122.157 134.227 121.085 134.686 120.831C135.144 120.576 134.839 119.662 134.319 119.754Z" fill="white"/>
<path id="Stroke 29" d="M128.651 117.333L128.601 116.961L128.601 116.961L128.651 117.333ZM126.324 114.047L126.17 113.705L126.167 113.706L126.324 114.047ZM127.82 113.77L127.917 113.407L127.838 113.386L127.757 113.4L127.82 113.77ZM131.276 114.698L131.536 114.968L132.002 114.518L131.38 114.338L131.276 114.698ZM130.055 116.976L129.815 116.688L129.815 116.688L130.055 116.976ZM134.319 119.754L134.384 120.124L134.385 120.123L134.319 119.754ZM131.566 120.185L131.6 119.811L131.6 119.811L131.566 120.185ZM129.435 119.631L129.324 119.273L128.133 119.642L129.33 119.991L129.435 119.631ZM132.331 118.248L132.68 118.383L132.68 118.382L132.331 118.248ZM133.256 115.025L132.902 114.9L132.902 114.9L133.256 115.025ZM132.626 114.398L132.339 114.157L131.732 114.881L132.67 114.771L132.626 114.398ZM132.626 113.137L132.483 113.483L132.483 113.483L132.626 113.137ZM128.301 111.401L128.402 111.04L128.402 111.04L128.301 111.401ZM123.245 111.682L123.273 112.056L123.273 112.056L123.245 111.682ZM117.786 111.305L117.525 111.575L117.525 111.575L117.786 111.305ZM100.044 97.5628L99.7687 97.8175L99.8455 97.9005L99.9555 97.9272L100.044 97.5628ZM97.7188 95.0496L97.994 94.7949L97.9238 94.719L97.8247 94.6898L97.7188 95.0496ZM89.0301 98.6232L88.6686 98.7233L88.6687 98.7233L89.0301 98.6232ZM97.3826 107.227L97.5352 106.884L97.5352 106.884L97.3826 107.227ZM124.817 124.918L125.129 124.71L125.129 124.71L124.817 124.918ZM128.926 127.432L128.738 127.757L128.739 127.757L128.926 127.432ZM129.624 126.284L129.793 125.95L129.793 125.95L129.624 126.284ZM126.856 123.271L127.061 122.957L125.872 122.184L126.523 123.443L126.856 123.271ZM129.714 124.973L129.656 125.343L129.657 125.344L129.714 124.973ZM133.15 125.044L133.189 125.417L133.189 125.417L133.15 125.044ZM133.346 123.837L133.365 123.463L133.364 123.463L133.346 123.837ZM130.603 123.173L130.423 123.502L130.423 123.502L130.603 123.173ZM128.883 121.998L128.914 121.624L127.546 121.512L128.666 122.304L128.883 121.998ZM134.686 120.831L134.867 121.159L134.868 121.158L134.686 120.831ZM128.601 116.961C128.676 116.951 128.719 116.977 128.71 116.972C128.705 116.97 128.685 116.958 128.647 116.926C128.573 116.863 128.475 116.759 128.356 116.615C128.122 116.329 127.849 115.934 127.587 115.526C127.326 115.12 127.083 114.711 126.911 114.403C126.825 114.248 126.759 114.123 126.718 114.038C126.697 113.994 126.686 113.969 126.683 113.96C126.68 113.953 126.687 113.968 126.692 113.995C126.693 114.005 126.701 114.047 126.693 114.101C126.687 114.146 126.654 114.308 126.481 114.388L126.167 113.706C125.991 113.787 125.957 113.952 125.95 114.001C125.942 114.06 125.95 114.107 125.953 114.125C125.96 114.166 125.973 114.202 125.98 114.221C125.996 114.264 126.019 114.315 126.043 114.365C126.093 114.468 126.167 114.608 126.256 114.768C126.436 115.09 126.687 115.512 126.956 115.931C127.223 116.348 127.515 116.772 127.776 117.091C127.906 117.248 128.038 117.393 128.163 117.498C128.225 117.551 128.296 117.604 128.374 117.643C128.448 117.679 128.564 117.723 128.701 117.704L128.601 116.961ZM126.478 114.389C126.448 114.402 126.426 114.406 126.446 114.401C126.455 114.399 126.469 114.396 126.491 114.391C126.533 114.382 126.591 114.37 126.662 114.357C126.804 114.329 126.986 114.296 127.168 114.264C127.349 114.232 127.528 114.2 127.662 114.177C127.728 114.166 127.784 114.156 127.823 114.15C127.842 114.146 127.857 114.144 127.867 114.142C127.873 114.141 127.877 114.14 127.879 114.14C127.881 114.14 127.882 114.14 127.882 114.139C127.883 114.139 127.883 114.139 127.883 114.139C127.883 114.139 127.883 114.139 127.883 114.139C127.883 114.139 127.883 114.139 127.883 114.139C127.883 114.139 127.883 114.139 127.82 113.77C127.757 113.4 127.757 113.4 127.757 113.4C127.757 113.4 127.757 113.4 127.757 113.4C127.757 113.4 127.757 113.4 127.757 113.4C127.757 113.4 127.757 113.4 127.756 113.4C127.755 113.4 127.754 113.4 127.753 113.401C127.75 113.401 127.746 113.402 127.741 113.403C127.731 113.404 127.715 113.407 127.696 113.41C127.657 113.417 127.601 113.427 127.534 113.438C127.399 113.462 127.219 113.493 127.036 113.525C126.854 113.558 126.667 113.592 126.521 113.62C126.448 113.634 126.383 113.647 126.332 113.658C126.307 113.664 126.283 113.669 126.262 113.674C126.252 113.677 126.21 113.687 126.17 113.705L126.478 114.389ZM127.82 113.77C127.724 114.132 127.724 114.132 127.724 114.132C127.724 114.132 127.724 114.132 127.724 114.132C127.724 114.132 127.724 114.132 127.724 114.132C127.725 114.132 127.725 114.132 127.726 114.133C127.727 114.133 127.73 114.134 127.733 114.134C127.738 114.136 127.747 114.138 127.758 114.141C127.781 114.147 127.814 114.156 127.857 114.167C127.942 114.19 128.064 114.223 128.211 114.262C128.506 114.341 128.904 114.447 129.312 114.556C130.133 114.776 130.991 115.006 131.172 115.059L131.38 114.338C131.19 114.283 130.321 114.05 129.506 113.832C129.097 113.722 128.7 113.616 128.405 113.537C128.257 113.498 128.135 113.465 128.05 113.443C128.008 113.431 127.974 113.423 127.952 113.416C127.94 113.413 127.931 113.411 127.926 113.41C127.923 113.409 127.92 113.408 127.919 113.408C127.918 113.408 127.918 113.407 127.917 113.407C127.917 113.407 127.917 113.407 127.917 113.407C127.917 113.407 127.917 113.407 127.917 113.407C127.917 113.407 127.917 113.407 127.82 113.77ZM131.015 114.429C130.856 114.582 130.731 114.804 130.63 115.013C130.524 115.229 130.423 115.478 130.328 115.708C130.23 115.945 130.138 116.165 130.044 116.347C129.946 116.539 129.868 116.644 129.815 116.688L130.295 117.264C130.471 117.118 130.606 116.895 130.711 116.69C130.821 116.475 130.925 116.227 131.021 115.995C131.12 115.755 131.211 115.532 131.304 115.341C131.401 115.143 131.479 115.024 131.536 114.968L131.015 114.429ZM129.815 116.688C129.72 116.767 129.514 116.837 129.238 116.885C128.956 116.934 128.764 116.939 128.601 116.961L128.701 117.705C128.758 117.697 129.09 117.672 129.366 117.624C129.648 117.575 130.034 117.482 130.295 117.264L129.815 116.688ZM134.254 119.385C133.981 119.433 133.395 119.545 132.81 119.646C132.521 119.696 132.241 119.741 132.014 119.772C131.9 119.787 131.803 119.799 131.727 119.805C131.689 119.808 131.658 119.81 131.634 119.811C131.609 119.812 131.599 119.811 131.6 119.811L131.532 120.558C131.667 120.57 131.895 120.545 132.115 120.515C132.355 120.482 132.645 120.435 132.937 120.385C133.514 120.286 134.137 120.167 134.384 120.124L134.254 119.385ZM131.6 119.811C131.55 119.807 131.404 119.777 131.181 119.721C130.97 119.669 130.717 119.602 130.473 119.535C130.23 119.468 129.996 119.402 129.824 119.353C129.737 119.328 129.666 119.308 129.617 119.293C129.592 119.286 129.573 119.281 129.56 119.277C129.554 119.275 129.549 119.274 129.545 119.273C129.544 119.272 129.542 119.272 129.541 119.272C129.541 119.271 129.541 119.271 129.541 119.271C129.54 119.271 129.54 119.271 129.54 119.271C129.54 119.271 129.54 119.271 129.54 119.271C129.54 119.271 129.54 119.271 129.435 119.631C129.33 119.991 129.33 119.991 129.33 119.991C129.33 119.991 129.33 119.991 129.33 119.991C129.331 119.991 129.331 119.991 129.331 119.991C129.331 119.991 129.331 119.991 129.332 119.992C129.333 119.992 129.334 119.992 129.336 119.993C129.339 119.994 129.344 119.995 129.351 119.997C129.364 120.001 129.384 120.007 129.409 120.014C129.459 120.028 129.531 120.049 129.618 120.074C129.792 120.124 130.028 120.19 130.275 120.258C130.521 120.326 130.781 120.395 131.001 120.449C131.208 120.501 131.413 120.547 131.532 120.558L131.6 119.811ZM129.435 119.631C129.546 119.989 129.546 119.989 129.546 119.989C129.546 119.989 129.547 119.989 129.547 119.989C129.547 119.989 129.547 119.989 129.547 119.989C129.547 119.989 129.548 119.989 129.549 119.989C129.55 119.988 129.552 119.988 129.555 119.987C129.56 119.985 129.568 119.983 129.578 119.979C129.599 119.973 129.628 119.963 129.666 119.951C129.741 119.927 129.849 119.892 129.978 119.848C130.237 119.76 130.585 119.637 130.941 119.495C131.295 119.355 131.667 119.192 131.969 119.025C132.12 118.942 132.263 118.852 132.38 118.758C132.488 118.671 132.617 118.546 132.68 118.383L131.981 118.112C131.991 118.087 131.989 118.109 131.909 118.174C131.839 118.23 131.737 118.296 131.606 118.369C131.345 118.513 131.007 118.662 130.664 118.798C130.323 118.933 129.988 119.052 129.737 119.138C129.612 119.18 129.508 119.214 129.436 119.238C129.4 119.249 129.372 119.258 129.353 119.264C129.343 119.267 129.336 119.269 129.331 119.271C129.329 119.272 129.327 119.272 129.326 119.273C129.325 119.273 129.325 119.273 129.325 119.273C129.324 119.273 129.324 119.273 129.324 119.273C129.324 119.273 129.324 119.273 129.324 119.273C129.324 119.273 129.324 119.273 129.435 119.631ZM132.68 118.382C132.797 118.081 132.97 117.432 133.139 116.799C133.313 116.146 133.486 115.498 133.609 115.149L132.902 114.9C132.767 115.283 132.584 115.969 132.414 116.606C132.238 117.264 132.078 117.86 131.981 118.113L132.68 118.382ZM133.609 115.15C133.694 114.909 133.71 114.665 133.601 114.449C133.494 114.237 133.306 114.133 133.16 114.083C133.013 114.032 132.867 114.02 132.768 114.018C132.717 114.017 132.673 114.019 132.641 114.021C132.625 114.022 132.612 114.023 132.602 114.024C132.597 114.024 132.593 114.025 132.589 114.025C132.588 114.025 132.586 114.025 132.585 114.026C132.584 114.026 132.584 114.026 132.583 114.026C132.583 114.026 132.583 114.026 132.583 114.026C132.583 114.026 132.582 114.026 132.582 114.026C132.582 114.026 132.582 114.026 132.626 114.398C132.67 114.771 132.67 114.771 132.67 114.771C132.67 114.771 132.669 114.771 132.669 114.771C132.669 114.771 132.669 114.771 132.669 114.771C132.669 114.771 132.668 114.771 132.668 114.771C132.668 114.771 132.668 114.771 132.668 114.771C132.668 114.771 132.668 114.771 132.67 114.771C132.673 114.771 132.678 114.77 132.686 114.77C132.702 114.769 132.725 114.768 132.753 114.768C132.813 114.77 132.873 114.777 132.916 114.792C132.959 114.807 132.945 114.814 132.931 114.787C132.916 114.758 132.946 114.774 132.902 114.9L133.609 115.15ZM132.626 114.398C132.913 114.639 132.913 114.639 132.913 114.639C132.914 114.639 132.914 114.639 132.914 114.639C132.914 114.639 132.914 114.638 132.914 114.638C132.914 114.638 132.915 114.638 132.915 114.637C132.916 114.636 132.917 114.635 132.918 114.633C132.92 114.631 132.924 114.627 132.927 114.622C132.935 114.613 132.945 114.6 132.957 114.584C132.981 114.553 133.013 114.508 133.049 114.453C133.12 114.347 133.211 114.192 133.274 114.015C133.335 113.844 133.385 113.611 133.319 113.371C133.246 113.108 133.054 112.908 132.769 112.79L132.483 113.483C132.59 113.528 132.595 113.566 132.596 113.57C132.603 113.598 132.604 113.659 132.567 113.763C132.532 113.861 132.476 113.961 132.423 114.04C132.398 114.079 132.375 114.11 132.36 114.131C132.352 114.141 132.346 114.149 132.342 114.153C132.34 114.156 132.339 114.157 132.338 114.158C132.338 114.158 132.338 114.158 132.338 114.158C132.338 114.158 132.338 114.158 132.338 114.158C132.338 114.158 132.338 114.158 132.338 114.158C132.338 114.158 132.338 114.158 132.338 114.158C132.338 114.158 132.339 114.157 132.626 114.398ZM132.769 112.79C132.021 112.481 129.837 111.442 128.402 111.04L128.2 111.763C129.579 112.148 131.658 113.142 132.483 113.483L132.769 112.79ZM128.402 111.04C127.622 110.823 126.761 110.867 125.899 110.97C125.007 111.077 124.142 111.24 123.218 111.308L123.273 112.056C124.21 111.987 125.169 111.813 125.987 111.715C126.835 111.614 127.571 111.587 128.2 111.763L128.402 111.04ZM123.218 111.308C122.743 111.343 122.229 111.407 121.727 111.464C121.219 111.521 120.716 111.572 120.239 111.586C119.262 111.613 118.503 111.476 118.046 111.035L117.525 111.575C118.219 112.243 119.259 112.363 120.26 112.335C120.771 112.321 121.301 112.267 121.811 112.209C122.327 112.151 122.817 112.089 123.273 112.056L123.218 111.308ZM118.046 111.035C117.46 110.47 113.793 107.216 109.888 104.011C107.934 102.408 105.914 100.812 104.186 99.5684C103.322 98.9467 102.526 98.4097 101.845 98.0028C101.173 97.6018 100.581 97.3072 100.132 97.1984L99.9555 97.9272C100.285 98.0073 100.795 98.2492 101.46 98.6467C102.116 99.0383 102.893 99.5618 103.748 100.177C105.458 101.408 107.463 102.992 109.412 104.591C113.312 107.792 116.961 111.031 117.525 111.575L118.046 111.035ZM100.319 97.3082L97.994 94.7949L97.4435 95.3042L99.7687 97.8175L100.319 97.3082ZM97.7188 95.0496C97.8247 94.6898 97.8245 94.6898 97.8244 94.6897C97.8242 94.6897 97.824 94.6896 97.8238 94.6896C97.8234 94.6894 97.8228 94.6893 97.822 94.689C97.8205 94.6886 97.8183 94.688 97.8155 94.6872C97.8099 94.6855 97.8018 94.6832 97.7914 94.6802C97.7704 94.6743 97.7398 94.6656 97.7003 94.6548C97.6212 94.633 97.5064 94.6023 97.3613 94.5657C97.0714 94.4926 96.6602 94.3959 96.1728 94.3011C95.2016 94.1123 93.9123 93.9278 92.6721 93.9583C91.4482 93.9883 90.1896 94.2289 89.3586 94.9686C88.4878 95.7437 88.1833 96.9705 88.6686 98.7233L89.3915 98.5232C88.9526 96.9383 89.2722 96.0496 89.8572 95.5288C90.482 94.9727 91.5111 94.737 92.6905 94.708C93.8535 94.6795 95.083 94.8533 96.0297 95.0373C96.5012 95.129 96.8988 95.2225 97.1779 95.2929C97.3174 95.3281 97.4271 95.3575 97.5015 95.378C97.5387 95.3882 97.567 95.3962 97.5858 95.4015C97.5952 95.4042 97.6023 95.4062 97.6068 95.4075C97.6091 95.4082 97.6107 95.4087 97.6117 95.409C97.6122 95.4091 97.6126 95.4092 97.6128 95.4093C97.6129 95.4093 97.6129 95.4093 97.613 95.4093C97.6129 95.4093 97.6129 95.4093 97.7188 95.0496ZM88.6687 98.7233C89.6069 102.111 90.8397 103.946 92.3334 105.128C93.0743 105.715 93.8655 106.13 94.6846 106.495C95.0934 106.678 95.513 106.849 95.9364 107.023C96.3614 107.197 96.7914 107.374 97.23 107.569L97.5352 106.884C97.0848 106.683 96.6448 106.503 96.2208 106.329C95.7951 106.154 95.3865 105.987 94.9901 105.81C94.1986 105.457 93.4706 105.072 92.799 104.54C91.4676 103.486 90.3021 101.811 89.3914 98.5231L88.6687 98.7233ZM97.23 107.569C100.79 109.156 115.286 115.266 116.713 115.845L116.995 115.15C115.574 114.573 101.086 108.466 97.5352 106.884L97.23 107.569ZM116.713 115.845C118.105 116.409 119.014 117.049 119.554 117.758L120.151 117.304C119.498 116.446 118.453 115.741 116.995 115.15L116.713 115.845ZM119.554 117.758C120.142 118.53 124.028 124.411 124.505 125.126L125.129 124.71C124.669 124.021 120.757 118.1 120.151 117.304L119.554 117.758ZM124.505 125.126C124.667 125.37 124.986 125.619 125.323 125.846C125.675 126.085 126.103 126.336 126.536 126.577C126.97 126.818 127.416 127.053 127.805 127.257C128.199 127.463 128.527 127.635 128.738 127.757L129.113 127.107C128.886 126.976 128.54 126.795 128.154 126.593C127.764 126.388 127.325 126.157 126.9 125.921C126.474 125.684 126.068 125.445 125.743 125.225C125.402 124.994 125.2 124.817 125.129 124.71L124.505 125.126ZM128.739 127.757C129.035 127.928 129.347 127.967 129.626 127.841C129.888 127.722 130.046 127.49 130.131 127.273C130.216 127.054 130.244 126.804 130.208 126.577C130.174 126.36 130.064 126.087 129.793 125.95L129.454 126.619C129.421 126.602 129.452 126.596 129.468 126.696C129.482 126.785 129.471 126.901 129.432 127.002C129.391 127.105 129.342 127.146 129.316 127.157C129.308 127.161 129.254 127.188 129.112 127.107L128.739 127.757ZM129.793 125.95C129.563 125.833 129.138 125.602 128.766 125.389C128.58 125.283 128.412 125.184 128.29 125.108C128.228 125.069 128.183 125.04 128.155 125.02C128.141 125.009 128.137 125.006 128.14 125.008C128.141 125.009 128.15 125.017 128.162 125.031C128.167 125.036 128.207 125.079 128.23 125.151L127.518 125.387C127.544 125.464 127.588 125.514 127.599 125.526C127.617 125.546 127.634 125.562 127.646 125.573C127.67 125.594 127.696 125.614 127.719 125.63C127.766 125.663 127.827 125.703 127.893 125.744C128.027 125.828 128.205 125.932 128.394 126.04C128.772 126.256 129.209 126.494 129.454 126.619L129.793 125.95ZM128.23 125.151C128.22 125.119 128.202 125.083 128.198 125.074C128.188 125.053 128.175 125.026 128.16 124.996C128.129 124.934 128.088 124.852 128.039 124.756C127.942 124.564 127.815 124.316 127.69 124.071C127.564 123.825 127.439 123.582 127.345 123.401C127.298 123.31 127.259 123.235 127.232 123.182C127.219 123.155 127.208 123.135 127.201 123.121C127.197 123.114 127.194 123.108 127.192 123.104C127.191 123.103 127.191 123.101 127.19 123.1C127.19 123.1 127.19 123.099 127.19 123.099C127.189 123.099 127.189 123.099 127.189 123.099C127.189 123.099 127.189 123.099 127.189 123.099C127.189 123.099 127.189 123.099 126.856 123.271C126.523 123.443 126.523 123.443 126.523 123.443C126.523 123.443 126.523 123.443 126.523 123.443C126.523 123.443 126.523 123.443 126.523 123.443C126.523 123.444 126.523 123.444 126.524 123.444C126.524 123.445 126.525 123.447 126.526 123.449C126.528 123.452 126.53 123.458 126.534 123.465C126.541 123.479 126.552 123.499 126.566 123.526C126.593 123.578 126.632 123.654 126.678 123.744C126.772 123.926 126.897 124.168 127.022 124.413C127.148 124.658 127.274 124.905 127.37 125.095C127.418 125.19 127.459 125.27 127.487 125.328C127.502 125.357 127.513 125.38 127.52 125.395C127.533 125.422 127.526 125.41 127.518 125.387L128.23 125.151ZM126.856 123.271C126.652 123.585 126.652 123.585 126.652 123.585C126.652 123.585 126.652 123.585 126.652 123.585C126.652 123.585 126.652 123.586 126.652 123.586C126.653 123.586 126.653 123.586 126.654 123.587C126.655 123.587 126.657 123.589 126.659 123.59C126.664 123.593 126.671 123.598 126.681 123.604C126.7 123.616 126.727 123.634 126.762 123.657C126.833 123.703 126.934 123.768 127.056 123.846C127.299 124.002 127.628 124.211 127.968 124.422C128.306 124.632 128.658 124.846 128.947 125.011C129.091 125.094 129.223 125.166 129.332 125.221C129.387 125.248 129.439 125.273 129.487 125.292C129.528 125.309 129.59 125.333 129.656 125.343L129.773 124.603C129.798 124.607 129.804 124.612 129.772 124.599C129.748 124.589 129.713 124.573 129.667 124.55C129.577 124.505 129.458 124.44 129.319 124.36C129.042 124.202 128.7 123.994 128.363 123.785C128.028 123.576 127.702 123.369 127.46 123.214C127.339 123.137 127.239 123.072 127.169 123.027C127.135 123.005 127.107 122.987 127.089 122.975C127.08 122.969 127.072 122.964 127.068 122.961C127.065 122.96 127.064 122.959 127.062 122.958C127.062 122.957 127.061 122.957 127.061 122.957C127.061 122.957 127.061 122.957 127.061 122.957C127.061 122.957 127.061 122.957 127.061 122.957C127.061 122.957 127.061 122.957 126.856 123.271ZM129.657 125.344C129.844 125.373 130.529 125.411 131.241 125.433C131.956 125.455 132.761 125.462 133.189 125.417L133.111 124.671C132.741 124.71 131.987 124.706 131.264 124.684C130.536 124.661 129.903 124.623 129.772 124.602L129.657 125.344ZM133.189 125.417C133.481 125.386 133.717 125.258 133.878 125.064C134.035 124.876 134.106 124.648 134.116 124.436C134.125 124.226 134.077 124.006 133.962 123.824C133.844 123.638 133.641 123.476 133.365 123.463L133.328 124.212C133.309 124.211 133.31 124.196 133.328 124.225C133.35 124.259 133.37 124.323 133.366 124.401C133.363 124.477 133.338 124.541 133.302 124.583C133.272 124.62 133.219 124.66 133.111 124.671L133.189 125.417ZM133.364 123.463C133.151 123.453 132.569 123.334 131.973 123.187C131.683 123.116 131.402 123.041 131.179 122.976C131.067 122.943 130.972 122.913 130.899 122.888C130.863 122.876 130.834 122.865 130.812 122.856C130.789 122.847 130.781 122.843 130.784 122.844L130.423 123.502C130.488 123.537 130.575 123.57 130.656 123.598C130.743 123.628 130.85 123.661 130.968 123.696C131.204 123.765 131.496 123.842 131.794 123.915C132.372 124.058 133.028 124.198 133.329 124.212L133.364 123.463ZM130.784 122.845C130.671 122.782 130.263 122.504 129.856 122.222C129.659 122.085 129.469 121.952 129.33 121.854C129.26 121.805 129.202 121.764 129.162 121.736C129.142 121.722 129.126 121.711 129.116 121.703C129.11 121.7 129.106 121.697 129.104 121.695C129.102 121.694 129.101 121.693 129.101 121.693C129.1 121.692 129.1 121.692 129.1 121.692C129.1 121.692 129.1 121.692 129.1 121.692C129.1 121.692 129.1 121.692 129.1 121.692C129.1 121.692 129.1 121.692 128.883 121.998C128.666 122.304 128.666 122.304 128.666 122.304C128.666 122.304 128.666 122.304 128.666 122.304C128.666 122.304 128.667 122.304 128.667 122.304C128.667 122.305 128.667 122.305 128.667 122.305C128.668 122.306 128.669 122.306 128.671 122.307C128.673 122.309 128.678 122.312 128.683 122.316C128.694 122.324 128.709 122.335 128.73 122.349C128.77 122.377 128.828 122.418 128.898 122.468C129.039 122.567 129.229 122.7 129.428 122.838C129.814 123.106 130.266 123.415 130.423 123.502L130.784 122.845ZM128.883 121.998C128.852 122.372 128.852 122.372 128.852 122.372C128.852 122.372 128.852 122.372 128.852 122.372C128.852 122.372 128.852 122.372 128.853 122.372C128.853 122.372 128.853 122.372 128.854 122.372C128.855 122.372 128.857 122.372 128.86 122.372C128.865 122.373 128.872 122.373 128.881 122.374C128.9 122.376 128.928 122.378 128.964 122.381C129.035 122.387 129.137 122.395 129.261 122.405C129.508 122.424 129.842 122.45 130.188 122.475C130.534 122.5 130.893 122.524 131.191 122.54C131.477 122.556 131.736 122.566 131.86 122.558L131.809 121.81C131.742 121.814 131.536 121.808 131.232 121.791C130.941 121.775 130.586 121.752 130.242 121.727C129.898 121.702 129.566 121.676 129.32 121.657C129.197 121.647 129.095 121.639 129.024 121.633C128.989 121.631 128.961 121.628 128.942 121.627C128.933 121.626 128.926 121.625 128.921 121.625C128.919 121.625 128.917 121.625 128.916 121.625C128.915 121.625 128.915 121.624 128.914 121.624C128.914 121.624 128.914 121.624 128.914 121.624C128.914 121.624 128.914 121.624 128.914 121.624C128.914 121.624 128.914 121.624 128.883 121.998ZM131.86 122.558C131.963 122.551 132.078 122.515 132.172 122.482C132.277 122.446 132.398 122.397 132.527 122.341C132.785 122.229 133.093 122.081 133.4 121.928C134.012 121.622 134.634 121.288 134.867 121.159L134.504 120.503C134.279 120.627 133.667 120.957 133.065 121.257C132.763 121.407 132.469 121.549 132.228 121.653C132.108 121.705 132.005 121.746 131.925 121.774C131.834 121.806 131.802 121.81 131.809 121.81L131.86 122.558ZM134.868 121.158C135.329 120.902 135.334 120.368 135.225 120.042C135.115 119.717 134.783 119.291 134.253 119.385L134.385 120.123C134.392 120.122 134.401 120.12 134.424 120.139C134.454 120.163 134.49 120.212 134.514 120.282C134.538 120.352 134.539 120.416 134.53 120.457C134.521 120.493 134.51 120.499 134.504 120.503L134.868 121.158Z" fill="black"/>
<path id="Fill 31" fill-rule="evenodd" clip-rule="evenodd" d="M6.89676 116.976C6.44062 116.596 6.10871 115.116 5.67692 114.698C6.04659 114.591 9.13182 113.77 9.13182 113.77C9.13182 113.77 10.5484 114.011 10.6282 114.047C10.7079 114.084 8.7987 117.4 8.30114 117.333C8.08129 117.303 7.25303 117.273 6.89676 116.976ZM2.26647 120.831C2.72506 121.085 4.73357 122.157 5.11724 122.184C5.50092 122.21 8.06911 121.998 8.06911 121.998C8.06911 121.998 6.61784 123.025 6.34866 123.173C6.07947 123.321 4.11969 123.813 3.60568 123.837C3.09107 123.862 3.00276 124.961 3.80178 125.044C4.60019 125.127 6.91991 125.023 7.23842 124.973C7.55693 124.923 10.0959 123.271 10.0959 123.271C10.0959 123.271 9.1032 125.194 9.07823 125.269C9.05326 125.345 7.80358 126.043 7.32855 126.284C6.85413 126.526 7.15011 127.936 8.02647 127.432C8.90284 126.927 11.6677 125.62 12.1361 124.918C12.6038 124.216 16.5027 118.315 17.0995 117.531C17.6963 116.748 18.6732 116.075 20.0976 115.497C21.5221 114.919 36.0141 108.811 39.5695 107.227C43.1255 105.643 46.0737 105.299 47.922 98.6232C49.7703 91.9479 39.2333 95.0496 39.2333 95.0496L36.9081 97.5628C33.7973 98.3183 20.3181 110.196 19.1665 111.305C18.0154 112.414 15.5672 111.818 13.7067 111.682C11.8456 111.545 10.0593 111.008 8.65132 111.401C7.2439 111.795 5.11237 112.811 4.32614 113.137C3.54052 113.461 4.32614 114.398 4.32614 114.398C4.32614 114.398 3.43821 114.294 3.69643 115.025C3.95464 115.756 4.40775 117.693 4.62212 118.248C4.83588 118.8 7.51674 119.631 7.51674 119.631C7.51674 119.631 5.72321 120.154 5.38703 120.185C5.05025 120.215 3.1538 119.846 2.6331 119.754C2.113 119.662 1.80789 120.576 2.26647 120.831Z" fill="white"/>
<path id="Stroke 33" d="M6.89676 116.976L7.13686 116.688L7.13664 116.688L6.89676 116.976ZM5.67692 114.698L5.57253 114.338L4.95123 114.518L5.41624 114.968L5.67692 114.698ZM9.13182 113.77L9.19478 113.4L9.11425 113.386L9.03532 113.407L9.13182 113.77ZM10.6282 114.047L10.785 113.706L10.7828 113.705L10.6282 114.047ZM8.30114 117.333L8.35099 116.961L8.35082 116.961L8.30114 117.333ZM2.26647 120.831L2.0844 121.158L2.08473 121.159L2.26647 120.831ZM8.06911 121.998L8.28569 122.304L9.40614 121.512L8.03828 121.624L8.06911 121.998ZM6.34866 123.173L6.52891 123.502L6.52948 123.502L6.34866 123.173ZM3.60568 123.837L3.58784 123.463L3.58741 123.463L3.60568 123.837ZM3.80178 125.044L3.84068 124.671L3.84065 124.671L3.80178 125.044ZM7.23842 124.973L7.29611 125.344L7.2968 125.343L7.23842 124.973ZM10.0959 123.271L10.4291 123.443L11.079 122.184L9.89138 122.957L10.0959 123.271ZM7.32855 126.284L7.15876 125.95L7.15859 125.95L7.32855 126.284ZM8.02647 127.432L8.21339 127.757L8.21356 127.757L8.02647 127.432ZM12.1361 124.918L12.448 125.126L12.4481 125.126L12.1361 124.918ZM39.5695 107.227L39.4169 106.884L39.4168 106.884L39.5695 107.227ZM47.922 98.6232L47.5606 98.5232L47.5606 98.5232L47.922 98.6232ZM39.2333 95.0496L39.1274 94.6898L39.0282 94.719L38.958 94.7949L39.2333 95.0496ZM36.9081 97.5628L36.9966 97.9272L37.1065 97.9005L37.1834 97.8175L36.9081 97.5628ZM19.1665 111.305L19.4266 111.575L19.4266 111.575L19.1665 111.305ZM13.7067 111.682L13.6791 112.056L13.6793 112.056L13.7067 111.682ZM8.65132 111.401L8.55049 111.04L8.5503 111.04L8.65132 111.401ZM4.32614 113.137L4.4693 113.483L4.46943 113.483L4.32614 113.137ZM4.32614 114.398L4.28223 114.771L5.22027 114.881L4.61354 114.157L4.32614 114.398ZM3.69643 115.025L4.05005 114.9L4.05001 114.9L3.69643 115.025ZM4.62212 118.248L4.97188 118.112L4.97185 118.112L4.62212 118.248ZM7.51674 119.631L7.62169 119.991L8.81897 119.642L7.62774 119.273L7.51674 119.631ZM5.38703 120.185L5.42098 120.558L5.42104 120.558L5.38703 120.185ZM2.6331 119.754L2.56747 120.123L2.56796 120.124L2.6331 119.754ZM7.13664 116.688C7.08449 116.644 7.00655 116.539 6.90805 116.347C6.81426 116.165 6.72217 115.945 6.62432 115.708C6.52915 115.478 6.42792 115.229 6.32275 115.013C6.22141 114.805 6.09614 114.582 5.9376 114.429L5.41624 114.968C5.4736 115.023 5.55173 115.142 5.64832 115.341C5.74108 115.532 5.83229 115.755 5.93109 115.994C6.02721 116.227 6.13062 116.475 6.24084 116.69C6.34636 116.895 6.48097 117.118 6.65689 117.264L7.13664 116.688ZM5.78131 115.059C5.9613 115.006 6.81939 114.776 7.63995 114.556C8.04858 114.447 8.44568 114.341 8.74064 114.262C8.88811 114.223 9.01005 114.19 9.09511 114.167C9.13763 114.156 9.17094 114.147 9.19362 114.141C9.20496 114.138 9.21364 114.136 9.21948 114.134C9.2224 114.134 9.22462 114.133 9.2261 114.133C9.22684 114.132 9.2274 114.132 9.22777 114.132C9.22796 114.132 9.2281 114.132 9.22819 114.132C9.22824 114.132 9.22827 114.132 9.22829 114.132C9.22832 114.132 9.22833 114.132 9.13182 113.77C9.03532 113.407 9.03531 113.407 9.03529 113.407C9.03526 113.407 9.03523 113.407 9.03518 113.407C9.03508 113.407 9.03494 113.407 9.03476 113.407C9.03438 113.407 9.03382 113.408 9.03308 113.408C9.03159 113.408 9.02937 113.409 9.02644 113.41C9.02059 113.411 9.0119 113.413 9.00055 113.416C8.97785 113.423 8.94452 113.431 8.90196 113.443C8.81685 113.465 8.69486 113.498 8.54732 113.537C8.25225 113.616 7.85493 113.722 7.44605 113.832C6.63157 114.05 5.7622 114.283 5.57253 114.338L5.78131 115.059ZM9.13182 113.77C9.06887 114.139 9.06888 114.139 9.06888 114.139C9.06889 114.139 9.06891 114.139 9.06893 114.139C9.06897 114.139 9.06903 114.139 9.06911 114.139C9.06927 114.139 9.06952 114.139 9.06985 114.139C9.07052 114.14 9.07152 114.14 9.07285 114.14C9.0755 114.14 9.07945 114.141 9.08461 114.142C9.09494 114.144 9.11012 114.146 9.12949 114.15C9.16823 114.156 9.22369 114.166 9.29051 114.177C9.42421 114.2 9.60311 114.232 9.78435 114.264C9.96591 114.296 10.1484 114.329 10.2899 114.357C10.3609 114.37 10.4194 114.382 10.4615 114.391C10.4828 114.396 10.4972 114.399 10.5058 114.401C10.5258 114.406 10.5036 114.402 10.4735 114.389L10.7828 113.705C10.7427 113.687 10.7001 113.677 10.6906 113.674C10.6697 113.669 10.6455 113.664 10.6204 113.658C10.5698 113.647 10.5045 113.634 10.4315 113.62C10.2849 113.592 10.0983 113.558 9.9158 113.525C9.73292 113.493 9.55271 113.462 9.4183 113.438C9.35108 113.427 9.29525 113.417 9.25621 113.41C9.23669 113.407 9.22136 113.404 9.2109 113.403C9.20566 113.402 9.20165 113.401 9.19894 113.401C9.19758 113.4 9.19655 113.4 9.19585 113.4C9.1955 113.4 9.19524 113.4 9.19506 113.4C9.19497 113.4 9.1949 113.4 9.19485 113.4C9.19483 113.4 9.19481 113.4 9.1948 113.4C9.19479 113.4 9.19478 113.4 9.13182 113.77ZM10.4713 114.388C10.2978 114.308 10.2649 114.146 10.2588 114.101C10.2515 114.047 10.2587 114.006 10.2605 113.995C10.2652 113.968 10.2717 113.953 10.2689 113.961C10.2656 113.969 10.2553 113.994 10.234 114.038C10.1929 114.123 10.1269 114.248 10.0406 114.403C9.86888 114.711 9.62614 115.12 9.36554 115.526C9.10374 115.934 8.83002 116.329 8.5959 116.615C8.47766 116.759 8.37925 116.863 8.30499 116.926C8.26762 116.958 8.24718 116.97 8.24256 116.972C8.2332 116.977 8.27631 116.951 8.35099 116.961L8.25129 117.705C8.38816 117.723 8.5045 117.679 8.57773 117.643C8.6557 117.604 8.72722 117.551 8.78952 117.499C8.91459 117.393 9.04635 117.248 9.17582 117.091C9.43713 116.772 9.72903 116.348 9.99676 115.931C10.2657 115.512 10.5164 115.09 10.6958 114.768C10.785 114.608 10.8589 114.468 10.909 114.365C10.9332 114.315 10.9562 114.264 10.9724 114.221C10.9793 114.202 10.992 114.166 10.9993 114.124C11.0024 114.107 11.01 114.06 11.0021 114.001C10.9955 113.952 10.961 113.787 10.785 113.706L10.4713 114.388ZM8.35082 116.961C8.1879 116.939 7.99604 116.934 7.71424 116.885C7.43789 116.837 7.23165 116.767 7.13686 116.688L6.65667 117.264C6.91815 117.482 7.30417 117.575 7.58597 117.624C7.86233 117.672 8.19453 117.697 8.25145 117.705L8.35082 116.961ZM2.08473 121.159C2.31803 121.288 2.93959 121.622 3.55246 121.928C3.85857 122.081 4.16677 122.229 4.42515 122.341C4.55405 122.397 4.67504 122.446 4.77966 122.482C4.87379 122.515 4.98882 122.551 5.09157 122.558L5.14291 121.81C5.14975 121.81 5.11808 121.806 5.02714 121.774C4.94669 121.746 4.84424 121.705 4.72371 121.653C4.48326 121.549 4.18874 121.407 3.88744 121.257C3.28549 120.957 2.6735 120.627 2.44821 120.503L2.08473 121.159ZM5.09157 122.558C5.21591 122.566 5.47517 122.556 5.76086 122.54C6.05873 122.524 6.41817 122.5 6.76398 122.475C7.1101 122.45 7.44401 122.424 7.6913 122.405C7.81497 122.395 7.91705 122.387 7.98824 122.381C8.02384 122.378 8.05172 122.376 8.07072 122.374C8.08022 122.373 8.0875 122.373 8.09242 122.372C8.09488 122.372 8.09675 122.372 8.098 122.372C8.09863 122.372 8.09911 122.372 8.09943 122.372C8.09959 122.372 8.09972 122.372 8.0998 122.372C8.09984 122.372 8.09987 122.372 8.0999 122.372C8.09992 122.372 8.09993 122.372 8.06911 121.998C8.03828 121.624 8.03827 121.624 8.03826 121.624C8.03824 121.624 8.03821 121.624 8.03818 121.624C8.03811 121.624 8.03799 121.624 8.03784 121.624C8.03754 121.624 8.03709 121.625 8.03648 121.625C8.03527 121.625 8.03345 121.625 8.03103 121.625C8.02621 121.625 8.01902 121.626 8.00962 121.627C7.99082 121.628 7.96314 121.631 7.92777 121.633C7.85702 121.639 7.75546 121.647 7.63237 121.657C7.38612 121.676 7.05401 121.702 6.71013 121.727C6.36592 121.752 6.01138 121.775 5.71981 121.791C5.41605 121.808 5.21042 121.814 5.14291 121.81L5.09157 122.558ZM8.06911 121.998C7.85252 121.692 7.85252 121.692 7.85251 121.692C7.8525 121.692 7.85249 121.692 7.85247 121.692C7.85243 121.692 7.85237 121.692 7.85228 121.692C7.85212 121.692 7.85186 121.692 7.85152 121.693C7.85084 121.693 7.84981 121.694 7.84845 121.695C7.84573 121.697 7.84167 121.7 7.83636 121.703C7.82573 121.711 7.81008 121.722 7.79006 121.736C7.75001 121.764 7.69245 121.805 7.62252 121.854C7.48263 121.952 7.29344 122.085 7.09599 122.222C6.6891 122.504 6.28056 122.782 6.16783 122.845L6.52948 123.502C6.68593 123.415 7.13762 123.106 7.52366 122.838C7.72268 122.7 7.91313 122.567 8.05376 122.468C8.12409 122.418 8.18202 122.377 8.22238 122.349C8.24257 122.335 8.25836 122.324 8.26913 122.316C8.27451 122.312 8.27863 122.309 8.28142 122.307C8.28281 122.306 8.28387 122.306 8.28459 122.305C8.28494 122.305 8.28522 122.305 8.2854 122.304C8.28549 122.304 8.28556 122.304 8.28561 122.304C8.28563 122.304 8.28565 122.304 8.28566 122.304C8.28568 122.304 8.28569 122.304 8.06911 121.998ZM6.16841 122.844C6.17091 122.843 6.16347 122.847 6.13976 122.856C6.11804 122.865 6.08912 122.876 6.05266 122.888C5.97975 122.913 5.88509 122.943 5.77334 122.976C5.55028 123.041 5.26951 123.116 4.97942 123.187C4.38258 123.334 3.80145 123.453 3.58784 123.463L3.62353 124.212C3.92392 124.198 4.57968 124.058 5.15853 123.915C5.45629 123.842 5.74806 123.765 5.98423 123.696C6.1021 123.661 6.20873 123.628 6.29653 123.598C6.37667 123.57 6.46422 123.537 6.52891 123.502L6.16841 122.844ZM3.58741 123.463C3.31054 123.476 3.1079 123.638 2.9899 123.824C2.87503 124.006 2.82672 124.227 2.83653 124.436C2.84644 124.648 2.91703 124.876 3.07379 125.064C3.23559 125.258 3.47111 125.387 3.76292 125.417L3.84065 124.671C3.73295 124.66 3.67987 124.62 3.64959 124.584C3.61427 124.541 3.58928 124.478 3.58571 124.401C3.58205 124.323 3.60236 124.259 3.62382 124.225C3.64214 124.196 3.64352 124.211 3.62395 124.212L3.58741 123.463ZM3.76289 125.417C4.19131 125.462 4.996 125.455 5.7115 125.433C6.42315 125.411 7.10886 125.373 7.29611 125.344L7.18073 124.602C7.04947 124.623 6.41606 124.661 5.68862 124.684C4.96504 124.706 4.21066 124.71 3.84068 124.671L3.76289 125.417ZM7.2968 125.343C7.36244 125.333 7.42487 125.309 7.46574 125.292C7.5135 125.273 7.56607 125.248 7.6204 125.221C7.72943 125.166 7.86167 125.094 8.00559 125.011C8.29428 124.846 8.646 124.632 8.98454 124.422C9.32374 124.211 9.6526 124.002 9.89645 123.846C10.0184 123.768 10.1193 123.703 10.1897 123.657C10.2249 123.634 10.2525 123.616 10.2713 123.604C10.2808 123.598 10.288 123.593 10.2929 123.59C10.2953 123.589 10.2972 123.587 10.2984 123.587C10.2991 123.586 10.2995 123.586 10.2999 123.586C10.3 123.586 10.3002 123.585 10.3002 123.585C10.3003 123.585 10.3003 123.585 10.3003 123.585C10.3004 123.585 10.3004 123.585 10.0959 123.271C9.89138 122.957 9.89138 122.957 9.89137 122.957C9.89135 122.957 9.89133 122.957 9.89129 122.957C9.89123 122.957 9.89112 122.957 9.89097 122.957C9.89068 122.957 9.89024 122.957 9.88965 122.958C9.88846 122.959 9.88668 122.96 9.88431 122.961C9.87957 122.964 9.8725 122.969 9.86325 122.975C9.84473 122.987 9.81747 123.005 9.78263 123.027C9.71295 123.072 9.61296 123.137 9.49194 123.214C9.24979 123.369 8.924 123.576 8.58865 123.785C8.25263 123.994 7.90989 124.202 7.63295 124.36C7.49405 124.44 7.37568 124.505 7.28489 124.55C7.23932 124.573 7.20468 124.589 7.18026 124.599C7.14894 124.612 7.15421 124.607 7.18003 124.603L7.2968 125.343ZM10.0959 123.271C9.76266 123.099 9.76266 123.099 9.76265 123.099C9.76264 123.099 9.76263 123.099 9.76261 123.099C9.76258 123.099 9.76254 123.099 9.76248 123.099C9.76236 123.1 9.76217 123.1 9.76193 123.1C9.76146 123.101 9.76074 123.103 9.7598 123.105C9.75791 123.108 9.75512 123.114 9.75147 123.121C9.74419 123.135 9.7335 123.156 9.71989 123.182C9.69267 123.235 9.65377 123.31 9.607 123.401C9.51349 123.583 9.38851 123.825 9.26272 124.071C9.13699 124.316 9.0102 124.564 8.91317 124.756C8.86471 124.852 8.82325 124.934 8.79291 124.996C8.77782 125.026 8.76486 125.053 8.75495 125.074C8.75055 125.083 8.73284 125.12 8.72229 125.151L9.43418 125.387C9.42675 125.41 9.41972 125.422 9.4326 125.395C9.43998 125.38 9.4509 125.357 9.46535 125.328C9.49408 125.27 9.53426 125.19 9.58238 125.095C9.6785 124.905 9.80456 124.658 9.93013 124.413C10.0556 124.168 10.1804 123.926 10.2738 123.744C10.3205 123.654 10.3593 123.578 10.3865 123.526C10.4001 123.499 10.4107 123.479 10.418 123.465C10.4216 123.458 10.4244 123.452 10.4263 123.448C10.4272 123.447 10.4279 123.445 10.4284 123.444C10.4286 123.444 10.4288 123.444 10.4289 123.443C10.429 123.443 10.429 123.443 10.4291 123.443C10.4291 123.443 10.4291 123.443 10.4291 123.443C10.4291 123.443 10.4291 123.443 10.0959 123.271ZM8.72229 125.151C8.74614 125.079 8.78619 125.036 8.79077 125.031C8.80255 125.017 8.81155 125.009 8.81272 125.008C8.81562 125.006 8.8121 125.009 8.79739 125.02C8.76947 125.04 8.72455 125.069 8.66273 125.108C8.54062 125.184 8.372 125.283 8.18613 125.389C7.81415 125.602 7.38878 125.833 7.15876 125.95L7.49834 126.619C7.74335 126.494 8.18033 126.256 8.5582 126.04C8.74725 125.932 8.92542 125.828 9.05949 125.744C9.12576 125.703 9.18628 125.663 9.23334 125.63C9.25612 125.614 9.28248 125.594 9.30665 125.573C9.31846 125.562 9.33596 125.546 9.35395 125.526C9.36476 125.514 9.40876 125.464 9.43418 125.387L8.72229 125.151ZM7.15859 125.95C6.88854 126.087 6.77855 126.36 6.74391 126.577C6.70771 126.804 6.73625 127.054 6.82144 127.273C6.90559 127.49 7.06432 127.722 7.32614 127.841C7.60518 127.967 7.9166 127.928 8.21339 127.757L7.83956 127.107C7.69817 127.188 7.64396 127.161 7.63585 127.157C7.61052 127.146 7.56059 127.105 7.5205 127.002C7.48145 126.901 7.47018 126.785 7.48452 126.696C7.50044 126.596 7.53135 126.602 7.49852 126.619L7.15859 125.95ZM8.21356 127.757C8.42459 127.635 8.75326 127.463 9.14669 127.257C9.53619 127.053 9.98236 126.818 10.4165 126.577C10.8496 126.336 11.2776 126.085 11.6297 125.846C11.966 125.619 12.2853 125.37 12.448 125.126L11.8242 124.71C11.7526 124.817 11.5508 124.994 11.2095 125.225C10.8841 125.445 10.4782 125.684 10.0521 125.921C9.6269 126.157 9.18825 126.388 8.79822 126.593C8.41212 126.795 8.06654 126.976 7.83939 127.107L8.21356 127.757ZM12.4481 125.126C12.9244 124.411 16.8105 118.53 17.3978 117.758L16.8011 117.304C16.1948 118.1 12.2832 124.021 11.824 124.71L12.4481 125.126ZM17.3978 117.758C17.9384 117.049 18.8474 116.409 20.2386 115.845L19.9566 115.15C18.4989 115.741 17.4542 116.446 16.8011 117.304L17.3978 117.758ZM20.2386 115.845C21.6661 115.266 36.1621 109.156 39.7221 107.569L39.4168 106.884C35.8661 108.466 21.3781 114.573 19.9566 115.15L20.2386 115.845ZM39.722 107.569C40.1607 107.374 40.5907 107.197 41.0157 107.023C41.4391 106.849 41.8587 106.678 42.2676 106.495C43.0867 106.13 43.8779 105.715 44.6189 105.128C46.1126 103.946 47.3455 102.111 48.2834 98.7233L47.5606 98.5232C46.6502 101.811 45.4848 103.486 44.1533 104.54C43.4817 105.072 42.7536 105.457 41.962 105.81C41.5656 105.987 41.157 106.154 40.7313 106.329C40.3072 106.503 39.8673 106.683 39.4169 106.884L39.722 107.569ZM48.2834 98.7233C48.7687 96.9705 48.4643 95.7437 47.5935 94.9686C46.7625 94.2289 45.5038 93.9883 44.28 93.9583C43.0398 93.9278 41.7505 94.1123 40.7792 94.3011C40.2918 94.3959 39.8806 94.4926 39.5907 94.5657C39.4457 94.6023 39.3308 94.633 39.2518 94.6548C39.2123 94.6656 39.1817 94.6743 39.1607 94.6802C39.1502 94.6832 39.1421 94.6855 39.1366 94.6872C39.1338 94.688 39.1316 94.6886 39.1301 94.689C39.1293 94.6893 39.1287 94.6894 39.1283 94.6896C39.128 94.6896 39.1278 94.6897 39.1277 94.6897C39.1275 94.6898 39.1274 94.6898 39.2333 95.0496C39.3392 95.4093 39.3391 95.4093 39.3391 95.4093C39.3392 95.4093 39.3392 95.4093 39.3393 95.4093C39.3395 95.4092 39.3398 95.4091 39.3403 95.409C39.3414 95.4087 39.343 95.4082 39.3453 95.4075C39.3498 95.4062 39.3568 95.4042 39.3662 95.4015C39.385 95.3962 39.4134 95.3882 39.4506 95.378C39.5249 95.3575 39.6347 95.3281 39.7742 95.2929C40.0533 95.2225 40.4509 95.129 40.9224 95.0373C41.8691 94.8533 43.0985 94.6795 44.2616 94.708C45.4409 94.737 46.47 94.9727 47.0948 95.5288C47.6799 96.0496 47.9994 96.9383 47.5606 98.5232L48.2834 98.7233ZM38.958 94.7949L36.6328 97.3082L37.1834 97.8175L39.5085 95.3042L38.958 94.7949ZM36.8196 97.1984C36.3715 97.3072 35.7791 97.6018 35.1076 98.0028C34.4263 98.4097 33.6305 98.9467 32.7665 99.5684C31.038 100.812 29.0185 102.408 27.0647 104.011C23.1595 107.216 19.4928 110.47 18.9063 111.035L19.4266 111.575C19.9917 111.031 23.6405 107.792 27.5405 104.591C29.4893 102.992 31.4948 101.408 33.2046 100.177C34.0597 99.5618 34.8364 99.0383 35.4921 98.6467C36.1577 98.2492 36.6669 98.0073 36.9966 97.9272L36.8196 97.1984ZM18.9063 111.035C18.4488 111.476 17.6897 111.613 16.713 111.586C16.236 111.572 15.7332 111.521 15.2251 111.464C14.7226 111.407 14.209 111.343 13.7341 111.308L13.6793 112.056C14.1346 112.089 14.6248 112.151 15.1406 112.209C15.6507 112.267 16.1808 112.321 16.6922 112.335C17.6926 112.363 18.7331 112.243 19.4266 111.575L18.9063 111.035ZM13.7343 111.308C12.8102 111.24 11.9454 111.077 11.0535 110.97C10.191 110.867 9.32984 110.823 8.55049 111.04L8.75215 111.763C9.38083 111.587 10.1168 111.614 10.9646 111.715C11.7831 111.813 12.7421 111.987 13.6791 112.056L13.7343 111.308ZM8.5503 111.04C7.11458 111.442 4.9311 112.481 4.18285 112.79L4.46943 113.483C5.29364 113.142 7.37321 112.148 8.75233 111.763L8.5503 111.04ZM4.18298 112.79C3.89785 112.908 3.70571 113.108 3.63321 113.371C3.56709 113.611 3.61726 113.844 3.67839 114.015C3.74144 114.192 3.83248 114.347 3.90273 114.453C3.9387 114.508 3.97123 114.553 3.99528 114.584C4.00735 114.6 4.0174 114.613 4.02482 114.622C4.02853 114.627 4.0316 114.631 4.03394 114.633C4.03511 114.635 4.0361 114.636 4.03691 114.637C4.03731 114.638 4.03766 114.638 4.03797 114.638C4.03812 114.638 4.03826 114.639 4.03839 114.639C4.03845 114.639 4.03854 114.639 4.03857 114.639C4.03866 114.639 4.03874 114.639 4.32614 114.398C4.61354 114.157 4.61362 114.158 4.61369 114.158C4.61371 114.158 4.61378 114.158 4.61382 114.158C4.6139 114.158 4.61397 114.158 4.61403 114.158C4.61414 114.158 4.61422 114.158 4.61424 114.158C4.6143 114.158 4.61417 114.158 4.61388 114.158C4.6133 114.157 4.61205 114.156 4.6102 114.153C4.60649 114.149 4.60043 114.141 4.59255 114.131C4.57671 114.11 4.554 114.079 4.52859 114.04C4.47609 113.961 4.41983 113.861 4.38468 113.763C4.3476 113.659 4.34867 113.598 4.35621 113.57C4.35736 113.566 4.36162 113.528 4.4693 113.483L4.18298 112.79ZM4.32614 114.398C4.37005 114.026 4.36991 114.026 4.36976 114.026C4.3697 114.026 4.36955 114.026 4.36944 114.026C4.36922 114.026 4.36899 114.026 4.36875 114.026C4.36825 114.026 4.36771 114.026 4.3671 114.026C4.36589 114.025 4.36446 114.025 4.3628 114.025C4.3595 114.025 4.35533 114.024 4.35034 114.024C4.34039 114.023 4.32713 114.022 4.31108 114.021C4.27919 114.019 4.23527 114.017 4.18383 114.018C4.0855 114.02 3.93917 114.032 3.79256 114.083C3.6463 114.133 3.45839 114.237 3.35111 114.449C3.24229 114.665 3.25801 114.909 3.34284 115.15L4.05001 114.9C4.00573 114.774 4.03561 114.758 4.02066 114.787C4.00724 114.814 3.99289 114.807 4.03634 114.792C4.07944 114.777 4.13895 114.77 4.19904 114.768C4.22681 114.768 4.25024 114.769 4.2659 114.77C4.27363 114.77 4.27919 114.771 4.28212 114.771C4.28357 114.771 4.28435 114.771 4.2844 114.771C4.28442 114.771 4.28425 114.771 4.28389 114.771C4.28372 114.771 4.28349 114.771 4.28321 114.771C4.28307 114.771 4.28292 114.771 4.28276 114.771C4.28268 114.771 4.28254 114.771 4.2825 114.771C4.28237 114.771 4.28223 114.771 4.32614 114.398ZM3.3428 115.149C3.46572 115.498 3.63891 116.146 3.81343 116.799C3.98231 117.432 4.1558 118.081 4.27238 118.383L4.97185 118.112C4.87407 117.859 4.71382 117.264 4.538 116.606C4.36782 115.969 4.18535 115.283 4.05005 114.9L3.3428 115.149ZM4.27235 118.383C4.3355 118.546 4.4646 118.671 4.57244 118.758C4.68969 118.852 4.83262 118.942 4.98308 119.025C5.28495 119.192 5.65709 119.355 6.01116 119.495C6.36741 119.637 6.71555 119.76 6.97387 119.848C7.10326 119.892 7.21065 119.927 7.28593 119.951C7.32358 119.963 7.35322 119.973 7.3736 119.979C7.38379 119.983 7.39167 119.985 7.39708 119.987C7.39978 119.988 7.40187 119.988 7.40331 119.989C7.40404 119.989 7.4046 119.989 7.40501 119.989C7.40521 119.989 7.40537 119.989 7.40549 119.989C7.40555 119.989 7.40561 119.989 7.40564 119.989C7.40569 119.989 7.40573 119.989 7.51674 119.631C7.62774 119.273 7.62776 119.273 7.62777 119.273C7.62776 119.273 7.62776 119.273 7.62774 119.273C7.62769 119.273 7.62761 119.273 7.62749 119.273C7.62724 119.273 7.62683 119.273 7.62627 119.273C7.62514 119.272 7.62337 119.272 7.621 119.271C7.61625 119.269 7.60905 119.267 7.59955 119.264C7.58056 119.258 7.5524 119.249 7.51632 119.238C7.44415 119.214 7.34043 119.18 7.21515 119.138C6.96413 119.052 6.6287 118.933 6.28801 118.798C5.94515 118.662 5.60699 118.513 5.34608 118.369C5.21515 118.296 5.11357 118.231 5.0433 118.174C4.96362 118.11 4.96218 118.087 4.97188 118.112L4.27235 118.383ZM7.51674 119.631C7.41178 119.271 7.41178 119.271 7.41177 119.271C7.41176 119.271 7.41175 119.271 7.41173 119.271C7.41168 119.271 7.41161 119.271 7.4115 119.271C7.4113 119.271 7.411 119.271 7.41058 119.272C7.40975 119.272 7.4085 119.272 7.40683 119.273C7.40349 119.274 7.39851 119.275 7.39197 119.277C7.3789 119.281 7.35962 119.286 7.33494 119.293C7.28557 119.308 7.21458 119.328 7.12831 119.353C6.95569 119.402 6.7223 119.468 6.47873 119.535C6.23475 119.602 5.98249 119.669 5.77152 119.721C5.54824 119.777 5.40292 119.807 5.35303 119.811L5.42104 120.558C5.53924 120.547 5.74417 120.501 5.95173 120.449C6.17159 120.395 6.43075 120.326 6.67716 120.258C6.924 120.19 7.16001 120.124 7.33418 120.074C7.4213 120.049 7.49306 120.028 7.54309 120.014C7.5681 120.007 7.58769 120.001 7.60105 119.997C7.60773 119.995 7.61286 119.994 7.61633 119.993C7.61807 119.992 7.61939 119.992 7.62029 119.992C7.62074 119.991 7.62108 119.991 7.62131 119.991C7.62143 119.991 7.62152 119.991 7.62158 119.991C7.62161 119.991 7.62164 119.991 7.62165 119.991C7.62167 119.991 7.62169 119.991 7.51674 119.631ZM5.35309 119.811C5.35378 119.811 5.34378 119.812 5.31837 119.811C5.29463 119.81 5.26383 119.808 5.22561 119.805C5.14906 119.799 5.05202 119.787 4.93843 119.772C4.71162 119.741 4.43174 119.696 4.14258 119.646C3.55675 119.545 2.9721 119.433 2.69823 119.385L2.56796 120.124C2.8148 120.167 3.43872 120.286 4.01549 120.385C4.30763 120.435 4.59756 120.482 4.83732 120.515C5.05788 120.545 5.28567 120.57 5.42098 120.558L5.35309 119.811ZM2.69873 119.385C2.16927 119.291 1.83734 119.717 1.72747 120.042C1.61759 120.368 1.62324 120.902 2.0844 121.158L2.44855 120.503C2.44208 120.499 2.43065 120.493 2.42252 120.457C2.41297 120.416 2.41443 120.352 2.43809 120.282C2.46183 120.212 2.49853 120.163 2.52807 120.139C2.55153 120.12 2.56048 120.122 2.56747 120.123L2.69873 119.385Z" fill="black"/>
<g id="Group 38">
<path id="Fill 35" fill-rule="evenodd" clip-rule="evenodd" d="M85.3436 115.154C94.2375 115.208 108.751 113.285 113.57 113.559C118.389 113.832 119.71 119.789 119.767 122.537C119.824 125.283 117.816 130.309 113.659 131.411C109.502 132.513 72.3692 142.782 72.3692 142.782L66.1641 134.508C66.1641 134.508 92.4866 118.694 98.8922 117.356" fill="black"/>
<path id="Stroke 37" d="M85.3436 115.154C94.2375 115.208 108.751 113.285 113.57 113.559C118.389 113.832 119.71 119.789 119.767 122.537C119.824 125.283 117.816 130.309 113.659 131.411C109.502 132.513 72.3692 142.782 72.3692 142.782L66.1641 134.508C66.1641 134.508 92.4866 118.694 98.8922 117.356" stroke="white" stroke-width="0.75"/>
</g>
<path id="Stroke 39" d="M65.7549 134.508C65.7549 134.508 92.0774 118.693 98.483 117.356" stroke="#FF7900" stroke-width="2.25" stroke-linecap="round"/>
<g id="Group 44">
<path id="Fill 41" fill-rule="evenodd" clip-rule="evenodd" d="M52.3754 115.154C43.4814 115.208 28.9681 113.285 24.149 113.559C19.33 113.832 18.0096 119.789 17.9524 122.537C17.8945 125.283 19.903 130.309 24.0601 131.411C28.2172 132.513 73.8825 147.881 73.8825 147.881C73.8825 147.881 77.0512 147.307 78.1742 143.772C79.2978 140.237 78.1742 137.484 78.1742 137.484C78.1742 137.484 45.2329 118.694 38.8268 117.356" fill="black"/>
<path id="Stroke 43" d="M52.3754 115.154C43.4814 115.208 28.9681 113.285 24.149 113.559C19.33 113.832 18.0096 119.789 17.9524 122.537C17.8945 125.283 19.903 130.309 24.0601 131.411C28.2172 132.513 73.8825 147.881 73.8825 147.881C73.8825 147.881 77.0512 147.307 78.1742 143.772C79.2978 140.237 78.1742 137.484 78.1742 137.484C78.1742 137.484 45.2329 118.694 38.8268 117.356" stroke="white" stroke-width="0.75"/>
</g>
<path id="Stroke 45" d="M64.2113 144.566C50.5378 139.984 27.1781 132.184 24.2603 131.411C20.1038 130.309 18.0947 125.283 18.1526 122.537" stroke="#085EBD" stroke-width="2.25" stroke-linecap="round" stroke-linejoin="round"/>
<path id="Fill 47" fill-rule="evenodd" clip-rule="evenodd" d="M103.008 99.3098C103.21 99.4714 103.438 99.5706 103.663 99.6582C102.082 98.5365 100.775 97.7406 100.044 97.5631L97.7182 95.0498C97.7182 95.0498 87.1817 91.9482 89.0301 98.6235C90.2128 102.894 91.3863 104.074 93.2407 105.31C89.1707 102.599 98.8753 95.9921 103.008 99.3098Z" fill="black"/>
<path id="Fill 49" fill-rule="evenodd" clip-rule="evenodd" d="M33.944 99.3098C33.7424 99.4714 33.5134 99.5706 33.2881 99.6582C34.8697 98.5365 36.1772 97.7406 36.908 97.5631L39.2332 95.0498C39.2332 95.0498 49.7703 91.9482 47.9219 98.6235C46.7393 102.894 45.5651 104.074 43.7107 105.31C47.7807 102.599 38.0761 95.9921 33.944 99.3098Z" fill="black"/>
<g id="Group 54">
<path id="Fill 51" fill-rule="evenodd" clip-rule="evenodd" d="M68.7097 118.773C57.775 118.773 51.11 115.866 50.8786 113.074C50.6472 110.284 50.0339 97.3085 49.7002 97.1799C49.3664 97.0514 49.3311 97.1806 48.3896 98.6236C47.448 100.066 35.5681 98.5348 36.2819 96.0314C36.9956 93.5273 40.5863 78.0797 41.8513 73.9795C43.1174 69.8799 46.121 68.7167 48.1338 67.955C50.1466 67.1928 52.6411 66.3534 57.0631 64.8271C61.4851 63.3008 62.4272 62.9916 68.7097 62.9916C74.9923 62.9916 75.9344 63.3008 80.3564 64.8271C84.7784 66.3534 87.2729 67.1928 89.2863 67.955C91.2991 68.7167 94.3021 69.8799 95.5682 73.9795C96.8338 78.0797 100.424 93.5273 101.138 96.0314C101.851 98.5348 89.9714 100.066 89.0299 98.6236C88.0884 97.1806 88.0531 97.0514 87.7193 97.1799C87.3856 97.3085 86.7723 110.284 86.5409 113.074C86.3095 115.866 79.6445 118.773 68.7097 118.773Z" fill="white"/>
<path id="Stroke 53" d="M68.7097 118.773C57.775 118.773 51.11 115.866 50.8786 113.074C50.6472 110.284 50.0339 97.3085 49.7002 97.1799C49.3664 97.0514 49.3311 97.1806 48.3896 98.6236C47.448 100.066 35.5681 98.5348 36.2819 96.0314C36.9956 93.5273 40.5863 78.0797 41.8513 73.9795C43.1174 69.8799 46.121 68.7167 48.1338 67.955C50.1466 67.1928 52.6411 66.3534 57.0631 64.8271C61.4851 63.3008 62.4272 62.9916 68.7097 62.9916C74.9923 62.9916 75.9344 63.3008 80.3564 64.8271C84.7784 66.3534 87.2729 67.1928 89.2863 67.955C91.2991 68.7167 94.3021 69.8799 95.5682 73.9795C96.8338 78.0797 100.424 93.5273 101.138 96.0314C101.851 98.5348 89.9714 100.066 89.0299 98.6236C88.0884 97.1806 88.0531 97.0514 87.7193 97.1799C87.3856 97.3085 86.7723 110.284 86.5409 113.074C86.3095 115.866 79.6445 118.773 68.7097 118.773" stroke="black" stroke-width="0.75"/>
</g>
<path id="Fill 55" fill-rule="evenodd" clip-rule="evenodd" d="M80.3296 65.1966C75.9076 63.6703 74.896 62.9913 68.6135 62.9913C62.331 62.9913 61.6684 63.5454 57.247 65.0717C52.8243 66.5981 50.0278 67.6542 48.015 68.4158C46.0022 69.1775 43.0205 69.8797 41.755 73.9799C41.0498 76.266 39.6296 84.0262 38.3799 89.1575C38.3799 89.1575 40.0254 87.1634 43.8603 85.2115C47.6947 83.2591 51.501 82.146 51.501 82.146L82.1043 65.7911C82.0939 65.7881 80.34 65.1997 80.3296 65.1966Z" fill="#FF7900"/>
<path id="Fill 57" fill-rule="evenodd" clip-rule="evenodd" d="M60.7326 53.7661L60.4092 64.3077C60.4092 64.3077 62.4457 67.9549 68.6022 67.9549C74.7586 67.9549 76.4718 64.1369 76.4718 64.1369L76.543 54.6637L60.7326 53.7661Z" fill="white"/>
<path id="Stroke 59" fill-rule="evenodd" clip-rule="evenodd" d="M60.7326 53.7661L60.4092 64.3077C60.4092 64.3077 62.4457 67.9549 68.6022 67.9549C74.7586 67.9549 76.4718 64.1369 76.4718 64.1369L76.543 54.6637L60.7326 53.7661Z" stroke="black" stroke-width="0.75"/>
<path id="Fill 61" fill-rule="evenodd" clip-rule="evenodd" d="M61.0604 53.7845L60.7334 64.2252C60.7334 64.2252 61.3455 65.6125 63.8466 66.6925V53.9425L61.0604 53.7845Z" fill="#4BB4E6"/>
<path id="Fill 63" fill-rule="evenodd" clip-rule="evenodd" d="M60.4738 45.3495C59.4147 44.5016 57.8751 45.6813 58.2417 48.224C58.6084 50.7673 60.4098 50.6197 60.4098 50.6197" fill="#4BB4E6"/>
<g id="Group 68">
<path id="Fill 65" fill-rule="evenodd" clip-rule="evenodd" d="M77.0107 45.3495C78.0692 44.5016 79.6094 45.6813 79.2428 48.224C78.8755 50.7673 77.0747 50.6197 77.0747 50.6197" fill="white"/>
<path id="Stroke 67" d="M77.0107 45.3495C78.0692 44.5016 79.6094 45.6813 79.2428 48.224C78.8755 50.7673 77.0747 50.6197 77.0747 50.6197" stroke="black" stroke-width="0.75"/>
</g>
<g id="Group 72">
<path id="Fill 69" fill-rule="evenodd" clip-rule="evenodd" d="M68.7097 60.4314C68.7097 60.4314 72.8126 60.2452 75.2785 58.561C77.7444 56.8773 76.8095 51.6897 76.946 43.6889C77.0824 35.6887 72.6324 35.0979 68.7097 35.0979C64.7871 35.0979 60.3371 35.6887 60.4735 43.6889C60.6099 51.6897 59.6751 56.8773 62.141 58.561C64.6068 60.2452 68.7097 60.4314 68.7097 60.4314Z" fill="white"/>
<path id="Stroke 71" d="M68.7097 60.4314C68.7097 60.4314 72.8126 60.2452 75.2785 58.561C77.7444 56.8773 76.8095 51.6897 76.946 43.6889C77.0824 35.6887 72.6324 35.0979 68.7097 35.0979C64.7871 35.0979 60.3371 35.6887 60.4735 43.6889C60.6099 51.6897 59.6751 56.8773 62.141 58.561C64.6068 60.2452 68.7097 60.4314 68.7097 60.4314" stroke="black" stroke-width="0.75"/>
</g>
<path id="Fill 73" fill-rule="evenodd" clip-rule="evenodd" d="M64.3591 55.6249C64.3591 53.6266 62.9249 38.5758 66.2282 38.8623L65.1228 35.4729C62.5315 36.1788 60.4444 38.1717 60.5382 43.6892C60.6746 51.69 60.0145 56.7147 62.4803 58.3984C64.9456 60.0827 68.7105 60.109 68.7105 60.109C68.7105 60.109 69.5357 59.9939 70.3043 59.8905C70.3043 59.8905 70.5503 59.4778 70.3043 59.8905C68.1605 60.3056 64.3591 57.6233 64.3591 55.6249Z" fill="#4BB4E6"/>
<path id="Fill 75" fill-rule="evenodd" clip-rule="evenodd" d="M68.4981 35.0977C64.5755 35.0977 60.1254 35.6885 60.2618 43.6893C60.2923 45.4985 60.5804 47.1552 60.5536 48.6693L76.3013 39.717C75.1034 35.4797 71.6333 35.0977 68.4981 35.0977Z" fill="#4BB4E6"/>
<g id="Group 80">
<path id="Fill 77" fill-rule="evenodd" clip-rule="evenodd" d="M70.49 39.9153C67.42 39.9153 66.2428 38.4294 64.1411 38.4294C62.04 38.4294 60.2227 38.9975 61.068 47.2151H60.1381C60.1381 47.2151 60.4438 46.1938 57.8981 43.9622C55.3531 41.7312 49.302 41.4471 49.7746 26.8561C50.2478 12.2651 40.8867 16.0573 48.2825 0.918335" fill="black"/>
<path id="Stroke 79" d="M70.49 39.9153C67.42 39.9153 66.2428 38.4294 64.1411 38.4294C62.04 38.4294 60.2227 38.9975 61.068 47.2151H60.1381C60.1381 47.2151 60.4438 46.1938 57.8981 43.9622C55.3531 41.7312 49.302 41.4471 49.7746 26.8561C50.2478 12.2651 40.8867 16.0573 48.2825 0.918335" stroke="#085EBD" stroke-width="0.75" stroke-linecap="round"/>
</g>
<g id="Group 84">
<path id="Fill 81" fill-rule="evenodd" clip-rule="evenodd" d="M48.2832 0.918091C48.2832 0.918091 56.6906 17.1787 71.0954 13.0418C85.5003 8.90483 91.4631 30.1638 83.7732 37.0736C76.0826 43.9834 78.2409 44.9618 77.4444 46.6632H76.4036C76.4036 46.6632 76.5881 43.2958 76.1484 40.5738C75.7093 37.8512 74.6112 38.666 73.8439 39.0138C73.0759 39.3616 72.3439 39.915 70.4907 39.915" fill="black"/>
<path id="Stroke 83" d="M48.2832 0.918091C48.2832 0.918091 56.6906 17.1787 71.0954 13.0418C85.5003 8.90483 91.4631 30.1638 83.7732 37.0736C76.0826 43.9834 78.2409 44.9618 77.4444 46.6632H76.4036C76.4036 46.6632 76.5881 43.2958 76.1484 40.5738C75.7093 37.8512 74.6112 38.6661 73.8439 39.0138C73.0759 39.3616 72.3439 39.915 70.4907 39.915" stroke="white" stroke-width="0.75" stroke-linecap="round"/>
</g>
<path id="Fill 85" fill-rule="evenodd" clip-rule="evenodd" d="M61.3219 28.8129L61.8134 30.8229L63.8383 31.1982L61.839 31.6929L61.465 33.728L60.9736 31.718L58.9492 31.3427L60.9486 30.8486L61.3219 28.8129Z" fill="white"/>
<path id="Fill 87" fill-rule="evenodd" clip-rule="evenodd" d="M78.7236 32.9781L79.0488 34.3196L80.3989 34.5724L79.0646 34.8994L78.8125 36.2567L78.4873 34.9153L77.1377 34.6618L78.4714 34.3355L78.7236 32.9781Z" fill="white"/>
<path id="Fill 89" fill-rule="evenodd" clip-rule="evenodd" d="M75.1971 20.4224C75.1971 20.8564 74.8469 21.2085 74.4151 21.2085C73.9834 21.2085 73.6338 20.8564 73.6338 20.4224C73.6338 19.9883 73.9834 19.6362 74.4151 19.6362C74.8469 19.6362 75.1971 19.9883 75.1971 20.4224Z" fill="white"/>
<path id="Fill 91" fill-rule="evenodd" clip-rule="evenodd" d="M56.5672 13.8877C56.5672 14.3218 56.2171 14.6738 55.7853 14.6738C55.3535 14.6738 55.0039 14.3218 55.0039 13.8877C55.0039 13.4536 55.3535 13.1016 55.7853 13.1016C56.2171 13.1016 56.5672 13.4536 56.5672 13.8877Z" fill="white"/>
<path id="Fill 93" fill-rule="evenodd" clip-rule="evenodd" d="M57.0184 28.2093C57.0184 28.6434 56.6682 28.9955 56.2364 28.9955C55.8046 28.9955 55.4551 28.6434 55.4551 28.2093C55.4551 27.7753 55.8046 27.4232 56.2364 27.4232C56.6682 27.4232 57.0184 27.7753 57.0184 28.2093Z" fill="white"/>
<path id="Fill 95" fill-rule="evenodd" clip-rule="evenodd" d="M81.1625 24.8528C81.1625 25.1105 80.9548 25.3193 80.6984 25.3193C80.4414 25.3193 80.2344 25.1105 80.2344 24.8528C80.2344 24.595 80.4414 24.3862 80.6984 24.3862C80.9548 24.3862 81.1625 24.595 81.1625 24.8528Z" fill="white"/>
<path id="Fill 97" fill-rule="evenodd" clip-rule="evenodd" d="M59.1156 38.4579C59.1156 38.7156 58.908 38.9244 58.6516 38.9244C58.3952 38.9244 58.1875 38.7156 58.1875 38.4579C58.1875 38.2001 58.3952 37.9913 58.6516 37.9913C58.908 37.9913 59.1156 38.2001 59.1156 38.4579Z" fill="white"/>
<path id="Fill 99" fill-rule="evenodd" clip-rule="evenodd" d="M82.0912 32.5112C82.0912 32.769 81.8835 32.9784 81.6272 32.9784C81.3701 32.9784 81.1631 32.769 81.1631 32.5112C81.1631 32.2535 81.3701 32.0447 81.6272 32.0447C81.8835 32.0447 82.0912 32.2535 82.0912 32.5112Z" fill="white"/>
<path id="Fill 101" fill-rule="evenodd" clip-rule="evenodd" d="M70.9545 31.1213C70.9545 31.3791 70.7468 31.5878 70.4904 31.5878C70.234 31.5878 70.0264 31.3791 70.0264 31.1213C70.0264 30.8636 70.234 30.6548 70.4904 30.6548C70.7468 30.6548 70.9545 30.8636 70.9545 31.1213Z" fill="white"/>
<path id="Fill 103" fill-rule="evenodd" clip-rule="evenodd" d="M52.7543 11.3095C52.7543 11.5673 52.5466 11.7761 52.2902 11.7761C52.0338 11.7761 51.8262 11.5673 51.8262 11.3095C51.8262 11.0518 52.0338 10.843 52.2902 10.843C52.5466 10.843 52.7543 11.0518 52.7543 11.3095Z" fill="white"/>
<path id="Stroke 105" d="M37.3643 92.8591C38.7071 87.4052 41.1322 77.1973 42.1255 73.9799C43.391 69.8797 46.3946 68.7165 48.4074 67.9548" stroke="#085EBD" stroke-width="2.25" stroke-linecap="round" stroke-linejoin="round"/>
<path id="Stroke 107" d="M95.6982 73.9797C96.9638 78.0793 100.554 93.5275 101.268 96.0316" stroke="#FFB4E6" stroke-width="2.25" stroke-linecap="round"/>
<path id="Stroke 109" d="M65.7725 53.7845H70.4898C71.2779 53.7845 72.0532 53.28 72.0781 52.9629" stroke="black" stroke-width="0.75" stroke-linecap="round"/>
<path id="Fill 111" fill-rule="evenodd" clip-rule="evenodd" d="M86.2268 112.929C86.4417 110.335 86.9862 98.95 87.3303 97.2516C86.0441 101.001 82.1172 113.513 63.6758 118.232C65.2166 118.373 66.8773 118.451 68.6526 118.451C79.5873 118.451 85.9953 115.721 86.2268 112.929Z" fill="#FF7900"/>
</g>
<defs>
<clipPath id="clip0_283_7435">
<rect width="134.605" height="158.703" fill="white" transform="translate(0.304688 0.918091)"/>
</clipPath>
</defs>
</svg>
