<svg width="24" height="24" viewBox="0 0 24 24" fill="none" xmlns="http://www.w3.org/2000/svg">
<path fill-rule="evenodd" clip-rule="evenodd" d="M21.9395 17.6774L13.9676 4.03099C13.5597 3.33224 12.8103 2.90247 12.0001 2.90247C11.1898 2.90247 10.4406 3.33224 10.0328 4.03099L2.08003 17.6438L2.07918 17.6452L2.06045 17.6773C1.6493 18.3805 1.6464 19.2495 2.05255 19.9556C2.4587 20.6618 3.21212 21.0973 4.02795 21.0977H19.9722C20.788 21.0973 21.5414 20.6618 21.9475 19.9556C22.3537 19.2495 22.3506 18.3806 21.9395 17.6774ZM15.5233 17.4122C15.3477 17.5876 15.1093 17.6862 14.8608 17.6862C14.6123 17.6862 14.374 17.5876 14.1983 17.4122L12.0001 15.2173L9.8019 17.4122C9.56578 17.6518 9.21902 17.7466 8.89354 17.6604C8.56807 17.5743 8.31392 17.3205 8.22781 16.9956C8.1417 16.6707 8.23686 16.3247 8.47709 16.0892L10.6752 13.8945L8.55523 11.7776C8.19327 11.4117 8.19509 10.8229 8.5593 10.4592C8.92352 10.0956 9.51355 10.0935 9.88032 10.4546L12.0003 12.5714L14.1202 10.4546C14.3562 10.2147 14.7032 10.1197 15.0289 10.2058C15.3545 10.2919 15.6089 10.5458 15.695 10.8709C15.781 11.196 15.6857 11.5422 15.4451 11.7776L13.3252 13.8945L15.5233 16.0891C15.8891 16.4546 15.8891 17.0467 15.5233 17.4122Z" fill="black"/>
</svg>
