<svg width="24" height="24" viewBox="0 0 24 24" fill="none" xmlns="http://www.w3.org/2000/svg">
<path d="M11.3849 1.59255C11.7847 1.46334 12.2155 1.46324 12.6153 1.59255L12.8126 1.66872L12.9561 1.74099C13.2758 1.92338 13.4944 2.19079 13.6524 2.41384C13.8359 2.67289 14.0327 3.01498 14.2501 3.3904L22.4747 17.5974L22.7823 18.1345C22.8761 18.3032 22.9596 18.4608 23.0265 18.6052C23.1415 18.8539 23.2642 19.1776 23.2628 19.5466L23.255 19.7078C23.2034 20.2012 22.9701 20.655 22.6056 20.9841L22.4415 21.1179C22.087 21.3756 21.6848 21.4429 21.3731 21.4715C21.0561 21.5005 20.6602 21.4998 20.2247 21.4998H3.7745C3.33914 21.4998 2.94299 21.5005 2.62606 21.4715C2.35344 21.4464 2.01189 21.3916 1.69345 21.2058L1.5577 21.1179C1.15629 20.826 0.880569 20.3965 0.778408 19.9158L0.745205 19.7078C0.699756 19.2719 0.84227 18.8894 0.97372 18.6052C1.10737 18.3164 1.30637 17.9742 1.5245 17.5974L9.75009 3.3904L10.0616 2.85817C10.1609 2.69349 10.2561 2.54327 10.3477 2.41384C10.5283 2.15889 10.7881 1.84634 11.1876 1.66872L11.3849 1.59255ZM11.9796 3.57009C11.8617 3.73649 11.7176 3.983 11.4806 4.39235L3.25595 18.5994C3.01803 19.0103 2.87516 19.2592 2.78915 19.4451C2.78426 19.4557 2.78056 19.4661 2.77645 19.4754C2.78651 19.4765 2.79712 19.4792 2.80868 19.4802C3.01258 19.499 3.2998 19.4998 3.7745 19.4998H20.2247C20.6996 19.4998 20.9866 19.499 21.1905 19.4802C21.2021 19.4792 21.2127 19.4765 21.2227 19.4754C21.2187 19.4661 21.2159 19.4556 21.211 19.4451C21.125 19.2592 20.9822 19.0104 20.7442 18.5994L12.5186 4.39235C12.2817 3.98302 12.1375 3.73647 12.0196 3.57009C12.0129 3.5606 12.0051 3.55286 11.9991 3.5447C11.9932 3.55269 11.9861 3.56083 11.9796 3.57009Z" fill="#FFD000"/>
<path d="M12.0099 15.859C12.5622 15.859 13.0099 16.3067 13.0099 16.859C13.0099 17.4113 12.5622 17.859 12.0099 17.859H12.0001C11.4479 17.859 11.0001 17.4113 11.0001 16.859C11.0001 16.3067 11.4479 15.859 12.0001 15.859H12.0099ZM11.0001 12.859V8.85899C11.0001 8.30671 11.4479 7.85899 12.0001 7.85899C12.5524 7.85899 13.0001 8.30671 13.0001 8.85899V12.859C13.0001 13.4113 12.5524 13.859 12.0001 13.859C11.4479 13.859 11.0001 13.4113 11.0001 12.859Z" fill="#FFD000"/>
</svg>
