<svg width="64" height="64" viewBox="0 0 64 64" fill="none" xmlns="http://www.w3.org/2000/svg">
<path d="M46.5088 29.8558L37.4404 26.5596L34.1442 17.4912C33.9817 17.0535 33.6892 16.676 33.3059 16.4095C32.9226 16.1429 32.4669 16 32 16C31.5331 16 31.0774 16.1429 30.6941 16.4095C30.3108 16.676 30.0183 17.0535 29.8558 17.4912L26.5596 26.5596L17.4912 29.8558C17.0535 30.0183 16.676 30.3108 16.4095 30.6941C16.1429 31.0774 16 31.5331 16 32C16 32.4669 16.1429 32.9226 16.4095 33.3059C16.676 33.6892 17.0535 33.9817 17.4912 34.1442L26.5596 37.4419L29.8558 46.5088C30.0183 46.9465 30.3108 47.324 30.6941 47.5905C31.0774 47.8571 31.5331 48 32 48C32.4669 48 32.9226 47.8571 33.3059 47.5905C33.6892 47.324 33.9817 46.9465 34.1442 46.5088L37.4419 37.4404L46.5088 34.1442C46.9465 33.9817 47.324 33.6892 47.5905 33.3059C47.8571 32.9226 48 32.4669 48 32C48 31.5331 47.8571 31.0774 47.5905 30.6941C47.324 30.3108 46.9465 30.0183 46.5088 29.8558ZM36.1568 35.4735C35.9999 35.5306 35.8575 35.6214 35.7395 35.7395C35.6214 35.8575 35.5306 35.9999 35.4735 36.1568L32 45.7083L28.5265 36.1568C28.4694 35.9999 28.3786 35.8575 28.2605 35.7395C28.1425 35.6214 28.0001 35.5306 27.8432 35.4735L18.2917 32L27.8432 28.5265C28.0001 28.4694 28.1425 28.3786 28.2605 28.2605C28.3786 28.1425 28.4694 28.0001 28.5265 27.8432L32 18.2917L35.4735 27.8432C35.5306 28.0001 35.6214 28.1425 35.7395 28.2605C35.8575 28.3786 35.9999 28.4694 36.1568 28.5265L45.7083 32L36.1568 35.4735Z" fill="black"/>
</svg>
