<svg width="24" height="24" viewBox="0 0 24 24" fill="none" xmlns="http://www.w3.org/2000/svg">
<path d="M21 12C21 7.02944 16.9706 3 12 3C7.02944 3 3 7.02944 3 12C3 16.9706 7.02944 21 12 21C16.9706 21 21 16.9706 21 12ZM23 12C23 18.0751 18.0751 23 12 23C5.92487 23 1 18.0751 1 12C1 5.92487 5.92487 1 12 1C18.0751 1 23 5.92487 23 12Z" fill="black"/>
<path d="M12 8.80463C11.4477 8.80463 11 8.35692 11 7.80463C11 7.25235 11.4477 6.80463 12 6.80463H12.0098C12.5621 6.80463 13.0098 7.25235 13.0098 7.80463C13.0098 8.35692 12.5621 8.80463 12.0098 8.80463H12ZM13.0098 11.8046V15.8046C13.0098 16.3569 12.5621 16.8046 12.0098 16.8046C11.4575 16.8046 11.0098 16.3569 11.0098 15.8046V11.8046C11.0098 11.2523 11.4575 10.8046 12.0098 10.8046C12.5621 10.8046 13.0098 11.2523 13.0098 11.8046Z" fill="black"/>
</svg>
