<svg width="58" height="36" viewBox="0 0 58 36" fill="none" xmlns="http://www.w3.org/2000/svg">
<path d="M0.966 13.004H3.164V21.152H8.036V23H0.966V13.004ZM9.14583 17.988C9.17383 17.5213 9.2905 17.134 9.49583 16.826C9.70116 16.518 9.9625 16.2707 10.2798 16.084C10.5972 15.8973 10.9518 15.7667 11.3438 15.692C11.7452 15.608 12.1465 15.566 12.5478 15.566C12.9118 15.566 13.2805 15.594 13.6538 15.65C14.0272 15.6967 14.3678 15.7947 14.6758 15.944C14.9838 16.0933 15.2358 16.3033 15.4318 16.574C15.6278 16.8353 15.7258 17.1853 15.7258 17.624V21.39C15.7258 21.7167 15.7445 22.0293 15.7818 22.328C15.8192 22.6267 15.8845 22.8507 15.9778 23H13.9618C13.9245 22.888 13.8918 22.776 13.8638 22.664C13.8452 22.5427 13.8312 22.4213 13.8218 22.3C13.5045 22.6267 13.1312 22.8553 12.7018 22.986C12.2725 23.1167 11.8338 23.182 11.3858 23.182C11.0405 23.182 10.7185 23.14 10.4198 23.056C10.1212 22.972 9.85983 22.8413 9.63583 22.664C9.41183 22.4867 9.2345 22.2627 9.10383 21.992C8.9825 21.7213 8.92183 21.3993 8.92183 21.026C8.92183 20.6153 8.99183 20.2793 9.13183 20.018C9.28116 19.7473 9.46783 19.5327 9.69183 19.374C9.92516 19.2153 10.1865 19.0987 10.4758 19.024C10.7745 18.94 11.0732 18.8747 11.3718 18.828C11.6705 18.7813 11.9645 18.744 12.2538 18.716C12.5432 18.688 12.7998 18.646 13.0238 18.59C13.2478 18.534 13.4252 18.4547 13.5558 18.352C13.6865 18.24 13.7472 18.0813 13.7378 17.876C13.7378 17.6613 13.7005 17.4933 13.6258 17.372C13.5605 17.2413 13.4672 17.1433 13.3458 17.078C13.2338 17.0033 13.0985 16.9567 12.9398 16.938C12.7905 16.91 12.6272 16.896 12.4498 16.896C12.0578 16.896 11.7498 16.98 11.5258 17.148C11.3018 17.316 11.1712 17.596 11.1338 17.988H9.14583ZM13.7378 19.458C13.6538 19.5327 13.5465 19.5933 13.4158 19.64C13.2945 19.6773 13.1592 19.71 13.0098 19.738C12.8698 19.766 12.7205 19.7893 12.5618 19.808C12.4032 19.8267 12.2445 19.85 12.0858 19.878C11.9365 19.906 11.7872 19.9433 11.6378 19.99C11.4978 20.0367 11.3718 20.102 11.2598 20.186C11.1572 20.2607 11.0732 20.3587 11.0078 20.48C10.9425 20.6013 10.9098 20.7553 10.9098 20.942C10.9098 21.1193 10.9425 21.2687 11.0078 21.39C11.0732 21.5113 11.1618 21.6093 11.2738 21.684C11.3858 21.7493 11.5165 21.796 11.6658 21.824C11.8152 21.852 11.9692 21.866 12.1278 21.866C12.5198 21.866 12.8232 21.8007 13.0378 21.67C13.2525 21.5393 13.4112 21.3853 13.5138 21.208C13.6165 21.0213 13.6772 20.8347 13.6958 20.648C13.7238 20.4613 13.7378 20.312 13.7378 20.2V19.458ZM22.7499 19.388C22.7499 19.08 22.7172 18.786 22.6519 18.506C22.5866 18.226 22.4839 17.9787 22.3439 17.764C22.2039 17.5493 22.0266 17.3813 21.8119 17.26C21.6066 17.1293 21.3546 17.064 21.0559 17.064C20.7666 17.064 20.5146 17.1293 20.2999 17.26C20.0852 17.3813 19.9079 17.5493 19.7679 17.764C19.6279 17.9787 19.5252 18.226 19.4599 18.506C19.3946 18.786 19.3619 19.08 19.3619 19.388C19.3619 19.6867 19.3946 19.976 19.4599 20.256C19.5252 20.536 19.6279 20.7833 19.7679 20.998C19.9079 21.2127 20.0852 21.3853 20.2999 21.516C20.5146 21.6373 20.7666 21.698 21.0559 21.698C21.3546 21.698 21.6066 21.6373 21.8119 21.516C22.0266 21.3853 22.2039 21.2127 22.3439 20.998C22.4839 20.7833 22.5866 20.536 22.6519 20.256C22.7172 19.976 22.7499 19.6867 22.7499 19.388ZM17.4439 13.004H19.4319V16.644H19.4599C19.7026 16.2707 20.0292 16 20.4399 15.832C20.8599 15.6547 21.2939 15.566 21.7419 15.566C22.1059 15.566 22.4652 15.6407 22.8199 15.79C23.1746 15.9393 23.4919 16.168 23.7719 16.476C24.0612 16.784 24.2946 17.1807 24.4719 17.666C24.6492 18.142 24.7379 18.7113 24.7379 19.374C24.7379 20.0367 24.6492 20.6107 24.4719 21.096C24.2946 21.572 24.0612 21.964 23.7719 22.272C23.4919 22.58 23.1746 22.8087 22.8199 22.958C22.4652 23.1073 22.1059 23.182 21.7419 23.182C21.2099 23.182 20.7339 23.098 20.3139 22.93C19.8939 22.762 19.5766 22.4773 19.3619 22.076H19.3339V23H17.4439V13.004ZM31.0495 18.604C30.9562 18.1 30.7882 17.7173 30.5455 17.456C30.3122 17.1947 29.9528 17.064 29.4675 17.064C29.1502 17.064 28.8842 17.12 28.6695 17.232C28.4642 17.3347 28.2962 17.4653 28.1655 17.624C28.0442 17.7827 27.9555 17.9507 27.8995 18.128C27.8528 18.3053 27.8248 18.464 27.8155 18.604H31.0495ZM27.8155 19.864C27.8435 20.508 28.0068 20.9747 28.3055 21.264C28.6042 21.5533 29.0335 21.698 29.5935 21.698C29.9948 21.698 30.3402 21.6 30.6295 21.404C30.9188 21.1987 31.0962 20.984 31.1615 20.76H32.9115C32.6315 21.628 32.2022 22.2487 31.6235 22.622C31.0448 22.9953 30.3448 23.182 29.5235 23.182C28.9542 23.182 28.4408 23.0933 27.9835 22.916C27.5262 22.7293 27.1388 22.468 26.8215 22.132C26.5042 21.796 26.2568 21.3947 26.0795 20.928C25.9115 20.4613 25.8275 19.948 25.8275 19.388C25.8275 18.8467 25.9162 18.3427 26.0935 17.876C26.2708 17.4093 26.5228 17.008 26.8495 16.672C27.1762 16.3267 27.5635 16.056 28.0115 15.86C28.4688 15.664 28.9728 15.566 29.5235 15.566C30.1395 15.566 30.6762 15.6873 31.1335 15.93C31.5908 16.1633 31.9642 16.4807 32.2535 16.882C32.5522 17.2833 32.7668 17.7407 32.8975 18.254C33.0282 18.7673 33.0748 19.304 33.0375 19.864H27.8155ZM34.4475 13.004H36.4355V23H34.4475V13.004Z" fill="black"/>
<path d="M48.651 22.75L53.5 18L48.651 13.25L47.2656 14.6065L50.7299 18L47.2656 21.3922L48.651 22.75Z" fill="#F15E00"/>
</svg>
