<svg width="70" height="48" viewBox="0 0 70 48" fill="none" xmlns="http://www.w3.org/2000/svg">
<path d="M1.604 18.576H4.116V27.888H9.684V30H1.604V18.576ZM10.9524 24.272C10.9844 23.7387 11.1177 23.296 11.3524 22.944C11.587 22.592 11.8857 22.3093 12.2484 22.096C12.611 21.8827 13.0164 21.7333 13.4644 21.648C13.923 21.552 14.3817 21.504 14.8404 21.504C15.2564 21.504 15.6777 21.536 16.1044 21.6C16.531 21.6533 16.9204 21.7653 17.2724 21.936C17.6244 22.1067 17.9124 22.3467 18.1364 22.656C18.3604 22.9547 18.4724 23.3547 18.4724 23.856V28.16C18.4724 28.5333 18.4937 28.8907 18.5364 29.232C18.579 29.5733 18.6537 29.8293 18.7604 30H16.4564C16.4137 29.872 16.3764 29.744 16.3444 29.616C16.323 29.4773 16.307 29.3387 16.2964 29.2C15.9337 29.5733 15.507 29.8347 15.0164 29.984C14.5257 30.1333 14.0244 30.208 13.5124 30.208C13.1177 30.208 12.7497 30.16 12.4084 30.064C12.067 29.968 11.7684 29.8187 11.5124 29.616C11.2564 29.4133 11.0537 29.1573 10.9044 28.848C10.7657 28.5387 10.6964 28.1707 10.6964 27.744C10.6964 27.2747 10.7764 26.8907 10.9364 26.592C11.107 26.2827 11.3204 26.0373 11.5764 25.856C11.843 25.6747 12.1417 25.5413 12.4724 25.456C12.8137 25.36 13.155 25.2853 13.4964 25.232C13.8377 25.1787 14.1737 25.136 14.5044 25.104C14.835 25.072 15.1284 25.024 15.3844 24.96C15.6404 24.896 15.843 24.8053 15.9924 24.688C16.1417 24.56 16.211 24.3787 16.2004 24.144C16.2004 23.8987 16.1577 23.7067 16.0724 23.568C15.9977 23.4187 15.891 23.3067 15.7524 23.232C15.6244 23.1467 15.4697 23.0933 15.2884 23.072C15.1177 23.04 14.931 23.024 14.7284 23.024C14.2804 23.024 13.9284 23.12 13.6724 23.312C13.4164 23.504 13.267 23.824 13.2244 24.272H10.9524ZM16.2004 25.952C16.1044 26.0373 15.9817 26.1067 15.8324 26.16C15.6937 26.2027 15.539 26.24 15.3684 26.272C15.2084 26.304 15.0377 26.3307 14.8564 26.352C14.675 26.3733 14.4937 26.4 14.3124 26.432C14.1417 26.464 13.971 26.5067 13.8004 26.56C13.6404 26.6133 13.4964 26.688 13.3684 26.784C13.251 26.8693 13.155 26.9813 13.0804 27.12C13.0057 27.2587 12.9684 27.4347 12.9684 27.648C12.9684 27.8507 13.0057 28.0213 13.0804 28.16C13.155 28.2987 13.2564 28.4107 13.3844 28.496C13.5124 28.5707 13.6617 28.624 13.8324 28.656C14.003 28.688 14.179 28.704 14.3604 28.704C14.8084 28.704 15.155 28.6293 15.4004 28.48C15.6457 28.3307 15.827 28.1547 15.9444 27.952C16.0617 27.7387 16.131 27.5253 16.1524 27.312C16.1844 27.0987 16.2004 26.928 16.2004 26.8V25.952ZM26.4999 25.872C26.4999 25.52 26.4625 25.184 26.3879 24.864C26.3132 24.544 26.1959 24.2613 26.0359 24.016C25.8759 23.7707 25.6732 23.5787 25.4279 23.44C25.1932 23.2907 24.9052 23.216 24.5639 23.216C24.2332 23.216 23.9452 23.2907 23.6999 23.44C23.4545 23.5787 23.2519 23.7707 23.0919 24.016C22.9319 24.2613 22.8145 24.544 22.7399 24.864C22.6652 25.184 22.6279 25.52 22.6279 25.872C22.6279 26.2133 22.6652 26.544 22.7399 26.864C22.8145 27.184 22.9319 27.4667 23.0919 27.712C23.2519 27.9573 23.4545 28.1547 23.6999 28.304C23.9452 28.4427 24.2332 28.512 24.5639 28.512C24.9052 28.512 25.1932 28.4427 25.4279 28.304C25.6732 28.1547 25.8759 27.9573 26.0359 27.712C26.1959 27.4667 26.3132 27.184 26.3879 26.864C26.4625 26.544 26.4999 26.2133 26.4999 25.872ZM20.4359 18.576H22.7079V22.736H22.7399C23.0172 22.3093 23.3905 22 23.8599 21.808C24.3399 21.6053 24.8359 21.504 25.3479 21.504C25.7639 21.504 26.1745 21.5893 26.5799 21.76C26.9852 21.9307 27.3479 22.192 27.6679 22.544C27.9985 22.896 28.2652 23.3493 28.4679 23.904C28.6705 24.448 28.7719 25.0987 28.7719 25.856C28.7719 26.6133 28.6705 27.2693 28.4679 27.824C28.2652 28.368 27.9985 28.816 27.6679 29.168C27.3479 29.52 26.9852 29.7813 26.5799 29.952C26.1745 30.1227 25.7639 30.208 25.3479 30.208C24.7399 30.208 24.1959 30.112 23.7159 29.92C23.2359 29.728 22.8732 29.4027 22.6279 28.944H22.5959V30H20.4359V18.576ZM35.9851 24.976C35.8785 24.4 35.6865 23.9627 35.4091 23.664C35.1425 23.3653 34.7318 23.216 34.1771 23.216C33.8145 23.216 33.5105 23.28 33.2651 23.408C33.0305 23.5253 32.8385 23.6747 32.6891 23.856C32.5505 24.0373 32.4491 24.2293 32.3851 24.432C32.3318 24.6347 32.2998 24.816 32.2891 24.976H35.9851ZM32.2891 26.416C32.3211 27.152 32.5078 27.6853 32.8491 28.016C33.1905 28.3467 33.6811 28.512 34.3211 28.512C34.7798 28.512 35.1745 28.4 35.5051 28.176C35.8358 27.9413 36.0385 27.696 36.1131 27.44H38.1131C37.7931 28.432 37.3025 29.1413 36.6411 29.568C35.9798 29.9947 35.1798 30.208 34.2411 30.208C33.5905 30.208 33.0038 30.1067 32.4811 29.904C31.9585 29.6907 31.5158 29.392 31.1531 29.008C30.7905 28.624 30.5078 28.1653 30.3051 27.632C30.1131 27.0987 30.0171 26.512 30.0171 25.872C30.0171 25.2533 30.1185 24.6773 30.3211 24.144C30.5238 23.6107 30.8118 23.152 31.1851 22.768C31.5585 22.3733 32.0011 22.064 32.5131 21.84C33.0358 21.616 33.6118 21.504 34.2411 21.504C34.9451 21.504 35.5585 21.6427 36.0811 21.92C36.6038 22.1867 37.0305 22.5493 37.3611 23.008C37.7025 23.4667 37.9478 23.9893 38.0971 24.576C38.2465 25.1627 38.2998 25.776 38.2571 26.416H32.2891ZM39.8686 18.576H42.1406V30H39.8686V18.576Z" fill="#EEEEEE"/>
<path d="M57.8138 29.9375L63.875 24L57.8138 18.0625L56.082 19.7581L60.4123 24L56.082 28.2402L57.8138 29.9375Z" fill="#FF7900"/>
</svg>
