<svg width="24" height="24" viewBox="0 0 24 24" fill="none" xmlns="http://www.w3.org/2000/svg">
<path fill-rule="evenodd" clip-rule="evenodd" d="M11.9999 2.39999C17.3018 2.39999 21.5999 6.69806 21.5999 12C21.5999 17.3019 17.3018 21.6 11.9999 21.6C6.69797 21.6 2.3999 17.3019 2.3999 12C2.3999 6.69806 6.69797 2.39999 11.9999 2.39999ZM10.8001 9.83999V16.9752C10.8304 17.545 11.3565 18 11.9992 18C12.642 18 13.1697 17.545 13.1999 16.9752V9.83999H10.8001ZM11.9999 6.00015C11.6654 6.00015 11.3822 6.11739 11.1492 6.35265C10.9162 6.58719 10.7999 6.87002 10.7999 7.19992C10.7999 7.51993 10.9162 7.79975 11.1492 8.03976C11.3822 8.27942 11.6654 8.39999 11.9999 8.39999C12.3337 8.39999 12.6176 8.27941 12.8502 8.03976C13.0832 7.79975 13.1999 7.51993 13.1999 7.19992C13.1999 6.87002 13.0832 6.58719 12.8502 6.35265C12.6315 6.12342 12.3223 5.99522 11.9999 6.00015Z" fill="black"/>
</svg>
