<svg xmlns="http://www.w3.org/2000/svg" width="24" height="24" fill="currentColor" viewBox="0 0 24 24">
  <path fill="#08090D" d="m17.44 11.196-3.4-1.236-1.236-3.4a.858.858 0 0 0-1.609 0L9.96 9.96l-3.4 1.236a.858.858 0 0 0 0 1.608l3.4 1.237 1.236 3.4a.858.858 0 0 0 1.609 0l1.236-3.4 3.4-1.237a.859.859 0 0 0 0-1.608Zm-3.882 2.107a.427.427 0 0 0-.256.256l-1.303 3.582-1.302-3.582a.43.43 0 0 0-.256-.256L6.859 12l3.582-1.303a.429.429 0 0 0 .256-.256L12 6.86l1.302 3.582a.43.43 0 0 0 .256.256L17.14 12l-3.582 1.303Z"/>
</svg>
