<svg width="80" height="80" viewBox="0 0 80 80" fill="none" xmlns="http://www.w3.org/2000/svg">
<g clip-path="url(#clip0_659_4141)">
<path d="M40.4798 58.7874C40.5026 52.2869 45.9347 47.0672 52.5148 47.0672H65.6867C75.1001 47.0672 81.998 38.2155 79.4755 29.2556C77.6087 22.6252 74.0328 16.5856 69.0966 11.7262C53.2605 -3.91141 27.6886 -3.90831 11.8563 11.7329C-3.95209 27.3501 -3.95209 52.67 11.8563 68.2875C23.1497 79.4444 39.4559 82.6305 53.6126 77.8461C57.6444 76.4835 56.6468 70.5909 52.3856 70.5909C49.2196 70.5897 46.1842 69.3442 43.9502 67.1294C41.7163 64.9146 40.4675 61.9129 40.4798 58.7874ZM55.7625 14.1372C58.2065 14.0565 60.4523 15.4584 61.4262 17.6728C62.4001 19.8872 61.9042 22.4642 60.1757 24.1719C58.4471 25.8795 55.837 26.3709 53.5932 25.4111C51.3493 24.4513 49.9275 22.2353 50.0075 19.8225C50.1093 16.7267 52.6266 14.2399 55.7625 14.1372ZM9.52769 36.6741C9.44943 34.2637 10.8708 32.0508 13.1126 31.0927C15.3544 30.1346 17.9617 30.6259 19.6885 32.3317C21.4153 34.0375 21.9112 36.6116 20.9392 38.8241C19.9672 41.0365 17.7247 42.4382 15.2831 42.3594C12.147 42.257 9.62945 39.77 9.52769 36.6741ZM18.0535 58.826C15.6095 58.9067 13.3637 57.5048 12.3898 55.2904C11.4159 53.0761 11.9117 50.4991 13.6402 48.7914C15.3687 47.0838 17.9788 46.5923 20.2226 47.552C22.4665 48.5117 23.8883 50.7276 23.8085 53.1404C23.7069 56.2363 21.1895 58.7233 18.0535 58.826ZM22.8158 25.893C20.3718 25.9738 18.126 24.5719 17.1521 22.3575C16.1782 20.1431 16.674 17.5661 18.4025 15.8585C20.131 14.1508 22.7411 13.6593 24.9849 14.619C27.2288 15.5787 28.6507 17.7947 28.5708 20.2074C28.4691 23.3032 25.9518 25.7904 22.8158 25.893ZM39.484 18.8359C37.04 18.9165 34.7943 17.5144 33.8206 15.3C32.8468 13.0856 33.3428 10.5086 35.0714 8.80107C36.8 7.09353 39.4101 6.60223 41.6539 7.56206C43.8977 8.52188 45.3194 10.7378 45.2394 13.1506C45.1375 16.2465 42.62 18.7335 39.484 18.8359Z" fill="#EEEEEE"/>
</g>
<defs>
<clipPath id="clip0_659_4141">
<rect width="80" height="80" fill="white"/>
</clipPath>
</defs>
</svg>
