<svg width="64" height="64" viewBox="0 0 64 64" fill="none" xmlns="http://www.w3.org/2000/svg">
<path d="M41.9376 49.9556C42.6179 49.286 43 48.3784 43 47.432C43 46.4856 42.6179 45.578 41.9376 44.9084L28.7634 31.957L41.9376 19.0057C42.5793 18.3287 42.9286 17.4333 42.912 16.5082C42.8954 15.583 42.5142 14.7003 41.8486 14.046C41.1831 13.3917 40.2852 13.0169 39.3441 13.0006C38.403 12.9842 37.4922 13.3277 36.8036 13.9585L21.0624 29.4334C20.3821 30.103 20 31.0107 20 31.957C20 32.9034 20.3821 33.8111 21.0624 34.4806L36.8036 49.9556C37.4847 50.6244 38.408 51 39.3706 51C40.3332 51 41.2565 50.6244 41.9376 49.9556Z" fill="black"/>
</svg>
