<svg xmlns="http://www.w3.org/2000/svg" width="24" height="24" fill="currentColor" viewBox="0 0 24 24">
  <path d="M12 14c3.501 0 6.61 1.692 8.582 4.303.177.234.371.488.508.732.138.246.244.526.264.857l.003.144a2.026 2.026 0 0 1-.22.85 2.073 2.073 0 0 1-.454.611l-.091.076c-.333.262-.696.354-1.019.393-.295.035-.648.034-1 .034H5.426c-.352 0-.705.001-1-.034a2.044 2.044 0 0 1-.893-.302l-.126-.09a2.022 2.022 0 0 1-.546-.687 2.073 2.073 0 0 1-.212-.733l-.007-.118a1.93 1.93 0 0 1 .266-1c.137-.245.332-.499.51-.733l.188-.242C5.586 15.588 8.609 14 12 14Zm0 2c-2.662 0-5.052 1.204-6.673 3.117l-.313.392c-.099.13-.175.231-.237.32a2.505 2.505 0 0 0-.102.151c.148.017.36.02.752.02h13.145c.391 0 .603-.003.751-.02a1.861 1.861 0 0 0-.1-.152 15.605 15.605 0 0 0-.236-.32C17.37 17.37 14.838 16 12 16Zm3.5-8.5a3.5 3.5 0 1 0-7 0 3.5 3.5 0 0 0 7 0Zm2 0a5.5 5.5 0 1 1-11 0 5.5 5.5 0 0 1 11 0Z"/>
</svg>
