<svg xmlns="http://www.w3.org/2000/svg" width="24" height="24" fill="none" viewBox="0 0 24 24">
  <path fill="#000" d="M21.852 16.98 14.205 3.064a2.556 2.556 0 0 0-4.41 0L2.17 16.942l-.001.002-.021.036a2.54 2.54 0 0 0-.009 2.552 2.55 2.55 0 0 0 2.214 1.276h15.293a2.549 2.549 0 0 0 2.214-1.276 2.542 2.542 0 0 0-.008-2.553ZM10.8 8.031c0-1.187.4-1.758 1.2-1.758.8 0 1.2.57 1.2 1.758v4.535c0 1.188-.384 1.774-1.2 1.774s-1.2-.585-1.2-1.774V8.031Zm1.188 10.119a1.394 1.394 0 0 1-1.388-1.407 1.38 1.38 0 0 1 1.388-1.391 1.39 1.39 0 0 1 1.387 1.39c0 .768-.622 1.408-1.387 1.408Z"/>
</svg>
