<svg xmlns="http://www.w3.org/2000/svg" width="24" height="24" fill="currentColor" viewBox="0 0 24 24">
  <path fill="#08090D" d="M11.385 1.593a2 2 0 0 1 1.23 0l.197.076.144.072c.32.182.538.45.696.673.184.259.38.601.598.976l8.225 14.207.307.537c.094.17.177.327.244.471.115.249.238.573.237.942l-.008.16a2 2 0 0 1-.65 1.277l-.164.134c-.354.258-.756.325-1.068.354-.317.028-.713.028-1.148.028H3.775c-.436 0-.832 0-1.15-.029-.272-.025-.613-.08-.932-.265l-.135-.088a2 2 0 0 1-.78-1.202l-.033-.208c-.045-.436.097-.819.229-1.103.133-.289.332-.63.55-1.008L9.75 3.39l.312-.532c.099-.165.194-.315.286-.444.18-.255.44-.568.84-.745l.197-.076Zm.595 1.977c-.118.166-.263.413-.5.822L3.256 18.6c-.238.411-.381.66-.467.846l-.013.03.033.005c.203.019.49.02.965.02h16.45c.476 0 .762-.001.966-.02.012 0 .023-.003.033-.005-.005-.009-.007-.02-.012-.03a12.286 12.286 0 0 0-.467-.846L12.518 4.392c-.237-.409-.38-.656-.498-.822-.007-.01-.015-.017-.021-.025l-.02.025Z"/>
  <path fill="#08090D" d="M12.01 15.859a1 1 0 1 1 0 2H12a1 1 0 1 1 0-2h.01Zm-1.01-3v-4a1 1 0 1 1 2 0v4a1 1 0 1 1-2 0Z"/>
</svg>
