<svg width="288" height="68" viewBox="0 0 288 68" fill="none" xmlns="http://www.w3.org/2000/svg">
<path fill-rule="evenodd" clip-rule="evenodd" d="M13.8743 23.875H34.1243V44.125H13.8743V23.875ZM14.8868 24.8875H33.1118V43.1125H14.8868V24.8875ZM23.2843 37.7461L28.8705 31.266L28.8703 31.2659C28.99 31.1273 29.0618 30.9515 29.0618 30.76C29.0618 30.3127 28.671 29.95 28.1889 29.95C27.958 29.95 27.7482 30.0334 27.5921 30.1693L27.592 30.1691L22.4281 34.81L20.7268 33.061L20.7266 33.0612C20.574 32.9396 20.3757 32.866 20.1588 32.866C19.9177 32.866 19.6995 32.9567 19.5416 33.1033L19.1924 33.4273C19.0345 33.5739 18.9368 33.7763 18.9368 34C18.9368 34.1915 19.0085 34.3673 19.1282 34.5059L19.128 34.506L21.9211 37.746L21.9213 37.7459C22.0812 37.9312 22.327 38.05 22.6027 38.05C22.8784 38.05 23.1242 37.9312 23.2841 37.7459L23.2843 37.7461Z" fill="#F15E00"/>
<path d="M53.248 18.576H54.768V28.72H60.816V30H53.248V18.576ZM69.4426 29.968C69.208 30.1067 68.8826 30.176 68.4666 30.176C68.1146 30.176 67.832 30.08 67.6186 29.888C67.416 29.6853 67.3146 29.36 67.3146 28.912C66.9413 29.36 66.504 29.6853 66.0026 29.888C65.512 30.08 64.9786 30.176 64.4026 30.176C64.0293 30.176 63.672 30.1333 63.3306 30.048C63 29.9627 62.712 29.8293 62.4666 29.648C62.2213 29.4667 62.024 29.232 61.8746 28.944C61.736 28.6453 61.6666 28.288 61.6666 27.872C61.6666 27.4027 61.7466 27.0187 61.9066 26.72C62.0666 26.4213 62.2746 26.1813 62.5306 26C62.7973 25.808 63.096 25.664 63.4266 25.568C63.768 25.472 64.1146 25.392 64.4666 25.328C64.84 25.2533 65.192 25.2 65.5226 25.168C65.864 25.1253 66.1626 25.072 66.4186 25.008C66.6746 24.9333 66.8773 24.832 67.0266 24.704C67.176 24.5653 67.2506 24.368 67.2506 24.112C67.2506 23.8133 67.192 23.5733 67.0746 23.392C66.968 23.2107 66.824 23.072 66.6426 22.976C66.472 22.88 66.2746 22.816 66.0506 22.784C65.8373 22.752 65.624 22.736 65.4106 22.736C64.8346 22.736 64.3546 22.848 63.9706 23.072C63.5866 23.2853 63.3786 23.696 63.3466 24.304H61.9866C62.008 23.792 62.1146 23.36 62.3066 23.008C62.4986 22.656 62.7546 22.3733 63.0746 22.16C63.3946 21.936 63.7573 21.776 64.1626 21.68C64.5786 21.584 65.0213 21.536 65.4906 21.536C65.864 21.536 66.232 21.5627 66.5946 21.616C66.968 21.6693 67.304 21.7813 67.6026 21.952C67.9013 22.112 68.1413 22.3413 68.3226 22.64C68.504 22.9387 68.5946 23.328 68.5946 23.808V28.064C68.5946 28.384 68.6106 28.6187 68.6426 28.768C68.6853 28.9173 68.8133 28.992 69.0266 28.992C69.144 28.992 69.2826 28.9653 69.4426 28.912V29.968ZM67.2346 25.728C67.064 25.856 66.84 25.952 66.5626 26.016C66.2853 26.0693 65.992 26.1173 65.6826 26.16C65.384 26.192 65.08 26.2347 64.7706 26.288C64.4613 26.3307 64.184 26.4053 63.9386 26.512C63.6933 26.6187 63.4906 26.7733 63.3306 26.976C63.1813 27.168 63.1066 27.4347 63.1066 27.776C63.1066 28 63.1493 28.192 63.2346 28.352C63.3306 28.5013 63.448 28.624 63.5866 28.72C63.736 28.816 63.9066 28.8853 64.0986 28.928C64.2906 28.9707 64.4933 28.992 64.7066 28.992C65.1546 28.992 65.5386 28.9333 65.8586 28.816C66.1786 28.688 66.44 28.5333 66.6426 28.352C66.8453 28.16 66.9946 27.9573 67.0906 27.744C67.1866 27.52 67.2346 27.312 67.2346 27.12V25.728ZM70.9564 18.576H72.3164V22.848H72.3484C72.5724 22.3893 72.9244 22.0587 73.4044 21.856C73.8844 21.6427 74.4124 21.536 74.9884 21.536C75.6284 21.536 76.183 21.6533 76.6524 21.888C77.1324 22.1227 77.527 22.4427 77.8364 22.848C78.1564 23.2427 78.3964 23.7013 78.5564 24.224C78.7164 24.7467 78.7964 25.3013 78.7964 25.888C78.7964 26.4747 78.7164 27.0293 78.5564 27.552C78.407 28.0747 78.1724 28.5333 77.8524 28.928C77.543 29.312 77.1484 29.616 76.6684 29.84C76.199 30.064 75.6497 30.176 75.0204 30.176C74.8177 30.176 74.5884 30.1547 74.3324 30.112C74.087 30.0693 73.8417 30 73.5964 29.904C73.351 29.808 73.1164 29.68 72.8924 29.52C72.679 29.3493 72.4977 29.1413 72.3484 28.896H72.3164V30H70.9564V18.576ZM77.3564 25.792C77.3564 25.408 77.303 25.0347 77.1964 24.672C77.1004 24.2987 76.9457 23.968 76.7324 23.68C76.5297 23.392 76.263 23.1627 75.9324 22.992C75.6124 22.8213 75.2337 22.736 74.7964 22.736C74.3377 22.736 73.9484 22.8267 73.6284 23.008C73.3084 23.1893 73.047 23.4293 72.8444 23.728C72.6417 24.016 72.4924 24.3467 72.3964 24.72C72.311 25.0933 72.2684 25.472 72.2684 25.856C72.2684 26.2613 72.3164 26.656 72.4124 27.04C72.5084 27.4133 72.6577 27.744 72.8604 28.032C73.0737 28.32 73.3457 28.5547 73.6764 28.736C74.007 28.9067 74.407 28.992 74.8764 28.992C75.3457 28.992 75.735 28.9013 76.0444 28.72C76.3644 28.5387 76.6204 28.2987 76.8124 28C77.0044 27.7013 77.143 27.36 77.2284 26.976C77.3137 26.592 77.3564 26.1973 77.3564 25.792ZM86.3368 25.072C86.3154 24.752 86.2408 24.448 86.1128 24.16C85.9954 23.872 85.8301 23.6267 85.6168 23.424C85.4141 23.2107 85.1688 23.0453 84.8808 22.928C84.6034 22.8 84.2941 22.736 83.9528 22.736C83.6008 22.736 83.2808 22.8 82.9928 22.928C82.7154 23.0453 82.4754 23.2107 82.2728 23.424C82.0701 23.6373 81.9101 23.888 81.7928 24.176C81.6754 24.4533 81.6061 24.752 81.5848 25.072H86.3368ZM87.6488 27.376C87.4674 28.304 87.0674 29.0027 86.4488 29.472C85.8301 29.9413 85.0514 30.176 84.1128 30.176C83.4514 30.176 82.8754 30.0693 82.3848 29.856C81.9048 29.6427 81.4994 29.344 81.1688 28.96C80.8381 28.576 80.5874 28.1173 80.4168 27.584C80.2568 27.0507 80.1661 26.4693 80.1448 25.84C80.1448 25.2107 80.2408 24.6347 80.4328 24.112C80.6248 23.5893 80.8914 23.136 81.2328 22.752C81.5848 22.368 81.9954 22.0693 82.4648 21.856C82.9448 21.6427 83.4674 21.536 84.0328 21.536C84.7688 21.536 85.3768 21.6907 85.8568 22C86.3474 22.2987 86.7368 22.6827 87.0248 23.152C87.3234 23.6213 87.5261 24.1333 87.6328 24.688C87.7501 25.2427 87.7981 25.7707 87.7768 26.272H81.5848C81.5741 26.6347 81.6168 26.9813 81.7128 27.312C81.8088 27.632 81.9634 27.92 82.1768 28.176C82.3901 28.4213 82.6621 28.6187 82.9928 28.768C83.3234 28.9173 83.7128 28.992 84.1608 28.992C84.7368 28.992 85.2061 28.8587 85.5688 28.592C85.9421 28.3253 86.1874 27.92 86.3048 27.376H87.6488ZM89.4665 18.576H90.8265V30H89.4665V18.576Z" fill="black"/>
<path d="M53.092 41.004H54.422V45.302H59.686V41.004H61.016V51H59.686V46.422H54.422V51H53.092V41.004ZM68.2005 46.688C68.1818 46.408 68.1165 46.142 68.0045 45.89C67.9018 45.638 67.7572 45.4233 67.5705 45.246C67.3932 45.0593 67.1785 44.9147 66.9265 44.812C66.6838 44.7 66.4132 44.644 66.1145 44.644C65.8065 44.644 65.5265 44.7 65.2745 44.812C65.0318 44.9147 64.8218 45.0593 64.6445 45.246C64.4672 45.4327 64.3272 45.652 64.2245 45.904C64.1218 46.1467 64.0612 46.408 64.0425 46.688H68.2005ZM69.3485 48.704C69.1898 49.516 68.8398 50.1273 68.2985 50.538C67.7572 50.9487 67.0758 51.154 66.2545 51.154C65.6758 51.154 65.1718 51.0607 64.7425 50.874C64.3225 50.6873 63.9678 50.426 63.6785 50.09C63.3892 49.754 63.1698 49.3527 63.0205 48.886C62.8805 48.4193 62.8012 47.9107 62.7825 47.36C62.7825 46.8093 62.8665 46.3053 63.0345 45.848C63.2025 45.3907 63.4358 44.994 63.7345 44.658C64.0425 44.322 64.4018 44.0607 64.8125 43.874C65.2325 43.6873 65.6898 43.594 66.1845 43.594C66.8285 43.594 67.3605 43.7293 67.7805 44C68.2098 44.2613 68.5505 44.5973 68.8025 45.008C69.0638 45.4187 69.2412 45.8667 69.3345 46.352C69.4372 46.8373 69.4792 47.2993 69.4605 47.738H64.0425C64.0332 48.0553 64.0705 48.3587 64.1545 48.648C64.2385 48.928 64.3738 49.18 64.5605 49.404C64.7472 49.6187 64.9852 49.7913 65.2745 49.922C65.5638 50.0527 65.9045 50.118 66.2965 50.118C66.8005 50.118 67.2112 50.0013 67.5285 49.768C67.8552 49.5347 68.0698 49.18 68.1725 48.704H69.3485ZM70.939 41.004H72.129V51H70.939V41.004ZM74.1896 43.762H75.3796V44.742H75.4076C75.6036 44.3407 75.9116 44.0513 76.3316 43.874C76.7516 43.6873 77.2136 43.594 77.7176 43.594C78.2776 43.594 78.7629 43.6967 79.1736 43.902C79.5936 44.1073 79.9389 44.3873 80.2096 44.742C80.4896 45.0873 80.6996 45.4887 80.8396 45.946C80.9796 46.4033 81.0496 46.8887 81.0496 47.402C81.0496 47.9153 80.9796 48.4007 80.8396 48.858C80.7089 49.3153 80.5036 49.7167 80.2236 50.062C79.9529 50.398 79.6076 50.664 79.1876 50.86C78.7769 51.056 78.2962 51.154 77.7456 51.154C77.5682 51.154 77.3676 51.1353 77.1436 51.098C76.9289 51.0607 76.7142 51 76.4996 50.916C76.2849 50.832 76.0796 50.72 75.8836 50.58C75.6969 50.4307 75.5382 50.2487 75.4076 50.034H75.3796V53.758H74.1896V43.762ZM79.7896 47.318C79.7896 46.982 79.7429 46.6553 79.6496 46.338C79.5656 46.0113 79.4302 45.722 79.2436 45.47C79.0662 45.218 78.8329 45.0173 78.5436 44.868C78.2636 44.7187 77.9322 44.644 77.5496 44.644C77.1482 44.644 76.8076 44.7233 76.5276 44.882C76.2476 45.0407 76.0189 45.2507 75.8416 45.512C75.6642 45.764 75.5336 46.0533 75.4496 46.38C75.3749 46.7067 75.3376 47.038 75.3376 47.374C75.3376 47.7287 75.3796 48.074 75.4636 48.41C75.5476 48.7367 75.6782 49.026 75.8556 49.278C76.0422 49.53 76.2802 49.7353 76.5696 49.894C76.8589 50.0433 77.2089 50.118 77.6196 50.118C78.0302 50.118 78.3709 50.0387 78.6416 49.88C78.9216 49.7213 79.1456 49.5113 79.3136 49.25C79.4816 48.9887 79.6029 48.69 79.6776 48.354C79.7522 48.018 79.7896 47.6727 79.7896 47.318ZM87.6474 46.688C87.6287 46.408 87.5634 46.142 87.4514 45.89C87.3487 45.638 87.2041 45.4233 87.0174 45.246C86.8401 45.0593 86.6254 44.9147 86.3734 44.812C86.1307 44.7 85.8601 44.644 85.5614 44.644C85.2534 44.644 84.9734 44.7 84.7214 44.812C84.4787 44.9147 84.2687 45.0593 84.0914 45.246C83.9141 45.4327 83.7741 45.652 83.6714 45.904C83.5687 46.1467 83.5081 46.408 83.4894 46.688H87.6474ZM88.7954 48.704C88.6367 49.516 88.2867 50.1273 87.7454 50.538C87.2041 50.9487 86.5227 51.154 85.7014 51.154C85.1227 51.154 84.6187 51.0607 84.1894 50.874C83.7694 50.6873 83.4147 50.426 83.1254 50.09C82.8361 49.754 82.6167 49.3527 82.4674 48.886C82.3274 48.4193 82.2481 47.9107 82.2294 47.36C82.2294 46.8093 82.3134 46.3053 82.4814 45.848C82.6494 45.3907 82.8827 44.994 83.1814 44.658C83.4894 44.322 83.8487 44.0607 84.2594 43.874C84.6794 43.6873 85.1367 43.594 85.6314 43.594C86.2754 43.594 86.8074 43.7293 87.2274 44C87.6567 44.2613 87.9974 44.5973 88.2494 45.008C88.5107 45.4187 88.6881 45.8667 88.7814 46.352C88.8841 46.8373 88.9261 47.2993 88.9074 47.738H83.4894C83.4801 48.0553 83.5174 48.3587 83.6014 48.648C83.6854 48.928 83.8207 49.18 84.0074 49.404C84.1941 49.6187 84.4321 49.7913 84.7214 49.922C85.0107 50.0527 85.3514 50.118 85.7434 50.118C86.2474 50.118 86.6581 50.0013 86.9754 49.768C87.3021 49.5347 87.5167 49.18 87.6194 48.704H88.7954ZM90.2739 43.762H91.3939V45.288H91.4219C91.7113 44.7 92.0659 44.266 92.4859 43.986C92.9059 43.706 93.4379 43.5753 94.0819 43.594V44.854C93.6059 44.854 93.1999 44.9193 92.8639 45.05C92.5279 45.1807 92.2573 45.372 92.0519 45.624C91.8466 45.876 91.6973 46.184 91.6039 46.548C91.5106 46.9027 91.4639 47.3133 91.4639 47.78V51H90.2739V43.762ZM100.877 43.762H102.319V44.812H100.877V49.306C100.877 49.446 100.886 49.558 100.905 49.642C100.933 49.726 100.979 49.7913 101.045 49.838C101.11 49.8847 101.199 49.9173 101.311 49.936C101.432 49.9453 101.586 49.95 101.773 49.95H102.319V51H101.409C101.101 51 100.835 50.9813 100.611 50.944C100.396 50.8973 100.219 50.818 100.079 50.706C99.9478 50.594 99.8498 50.4353 99.7845 50.23C99.7192 50.0247 99.6865 49.754 99.6865 49.418V44.812H98.4545V43.762H99.6865V41.592H100.877V43.762ZM108.842 46.688C108.823 46.408 108.758 46.142 108.646 45.89C108.543 45.638 108.398 45.4233 108.212 45.246C108.034 45.0593 107.82 44.9147 107.568 44.812C107.325 44.7 107.054 44.644 106.756 44.644C106.448 44.644 106.168 44.7 105.916 44.812C105.673 44.9147 105.463 45.0593 105.286 45.246C105.108 45.4327 104.968 45.652 104.866 45.904C104.763 46.1467 104.702 46.408 104.684 46.688H108.842ZM109.99 48.704C109.831 49.516 109.481 50.1273 108.94 50.538C108.398 50.9487 107.717 51.154 106.896 51.154C106.317 51.154 105.813 51.0607 105.384 50.874C104.964 50.6873 104.609 50.426 104.32 50.09C104.03 49.754 103.811 49.3527 103.662 48.886C103.522 48.4193 103.442 47.9107 103.424 47.36C103.424 46.8093 103.508 46.3053 103.676 45.848C103.844 45.3907 104.077 44.994 104.376 44.658C104.684 44.322 105.043 44.0607 105.454 43.874C105.874 43.6873 106.331 43.594 106.826 43.594C107.47 43.594 108.002 43.7293 108.422 44C108.851 44.2613 109.192 44.5973 109.444 45.008C109.705 45.4187 109.882 45.8667 109.976 46.352C110.078 46.8373 110.12 47.2993 110.102 47.738H104.684C104.674 48.0553 104.712 48.3587 104.796 48.648C104.88 48.928 105.015 49.18 105.202 49.404C105.388 49.6187 105.626 49.7913 105.916 49.922C106.205 50.0527 106.546 50.118 106.938 50.118C107.442 50.118 107.852 50.0013 108.17 49.768C108.496 49.5347 108.711 49.18 108.814 48.704H109.99ZM113.456 47.192L110.936 43.762H112.462L114.198 46.296L116.004 43.762H117.432L114.94 47.094L117.74 51H116.214L114.198 48.004L112.182 51H110.74L113.456 47.192ZM120.583 43.762H122.025V44.812H120.583V49.306C120.583 49.446 120.592 49.558 120.611 49.642C120.639 49.726 120.686 49.7913 120.751 49.838C120.816 49.8847 120.905 49.9173 121.017 49.936C121.138 49.9453 121.292 49.95 121.479 49.95H122.025V51H121.115C120.807 51 120.541 50.9813 120.317 50.944C120.102 50.8973 119.925 50.818 119.785 50.706C119.654 50.594 119.556 50.4353 119.491 50.23C119.426 50.0247 119.393 49.754 119.393 49.418V44.812H118.161V43.762H119.393V41.592H120.583V43.762Z" fill="black" fill-opacity="0.68"/>
<path fill-rule="evenodd" clip-rule="evenodd" d="M269.663 33.3192L262 41.8071L254.337 33.3192L254.333 33.3149C252.849 31.6677 252.982 29.1293 254.629 27.6452C256.216 26.2159 258.645 26.2788 260.155 27.7892C260.159 27.7934 260.163 27.7973 260.167 27.8013L261.339 28.9153L262 29.5516L262.661 28.9156L263.833 27.8013C263.837 27.7973 263.841 27.7934 263.845 27.7892C264.597 27.0338 265.618 26.6108 266.684 26.6136C268.901 26.6136 270.698 28.4105 270.699 30.6279C270.699 31.6204 270.331 32.5777 269.667 33.3149L269.663 33.3192ZM271.416 25.897C268.818 23.2996 264.617 23.2847 262 25.8505C259.383 23.2847 255.182 23.2996 252.585 25.897C250.015 28.4674 249.972 32.6086 252.459 35.2302L262 45.7496V45.7492V45.7496L271.541 35.2302C274.028 32.6086 273.986 28.4674 271.416 25.897Z" fill="black"/>
</svg>
