<svg width="116" height="48" viewBox="0 0 116 48" fill="none" xmlns="http://www.w3.org/2000/svg">
<rect width="116" height="48" fill="#FF7900"/>
<path d="M38.496 18.576C40.9173 18.576 42.128 19.5147 42.128 21.392C42.128 22.4693 41.6107 23.2693 40.576 23.792C41.28 23.9947 41.8027 24.352 42.144 24.864C42.496 25.3653 42.672 25.9733 42.672 26.688C42.672 27.712 42.2987 28.5227 41.552 29.12C40.816 29.7067 39.8453 30 38.64 30H33.104V18.576H38.496ZM38.176 23.2C39.1893 23.2 39.696 22.7467 39.696 21.84C39.696 20.9653 39.1307 20.528 38 20.528H35.616V23.2H38.176ZM38.32 28.048C39.5467 28.048 40.16 27.5467 40.16 26.544C40.16 25.456 39.5627 24.912 38.368 24.912H35.616V28.048H38.32ZM46.4016 21.728V26.416C46.4016 27.056 46.503 27.552 46.7056 27.904C46.9083 28.256 47.2923 28.432 47.8576 28.432C48.487 28.432 48.935 28.2453 49.2016 27.872C49.479 27.4987 49.6176 26.9013 49.6176 26.08V21.728H51.8896V30H49.7296V28.848H49.6816C49.1163 29.7653 48.2683 30.224 47.1376 30.224C46.0603 30.224 45.287 29.952 44.8176 29.408C44.359 28.8533 44.1296 28.0053 44.1296 26.864V21.728H46.4016ZM56.494 19.248V21.728H58.158V23.248H56.494V27.344C56.494 27.728 56.558 27.984 56.686 28.112C56.814 28.24 57.07 28.304 57.454 28.304C57.7313 28.304 57.966 28.2827 58.158 28.24V30.016C57.838 30.0693 57.39 30.096 56.814 30.096C55.9393 30.096 55.2887 29.9467 54.862 29.648C54.4353 29.3493 54.222 28.832 54.222 28.096V23.248H52.846V21.728H54.222V19.248H56.494ZM62.119 19.248V21.728H63.783V23.248H62.119V27.344C62.119 27.728 62.183 27.984 62.311 28.112C62.439 28.24 62.695 28.304 63.079 28.304C63.3563 28.304 63.591 28.2827 63.783 28.24V30.016C63.463 30.0693 63.015 30.096 62.439 30.096C61.5643 30.096 60.9137 29.9467 60.487 29.648C60.0603 29.3493 59.847 28.832 59.847 28.096V23.248H58.471V21.728H59.847V19.248H62.119ZM68.8019 21.504C70.1245 21.504 71.1699 21.9093 71.9379 22.72C72.7059 23.52 73.0899 24.5707 73.0899 25.872C73.0899 27.184 72.6952 28.24 71.9059 29.04C71.1272 29.8293 70.0925 30.224 68.8019 30.224C67.4899 30.224 66.4499 29.824 65.6819 29.024C64.9139 28.2133 64.5299 27.1627 64.5299 25.872C64.5299 24.5387 64.9192 23.4773 65.6979 22.688C66.4872 21.8987 67.5219 21.504 68.8019 21.504ZM66.8019 25.872C66.8019 26.7147 66.9725 27.3653 67.3139 27.824C67.6552 28.2827 68.1512 28.512 68.8019 28.512C69.4739 28.512 69.9752 28.2773 70.3059 27.808C70.6472 27.3387 70.8179 26.6933 70.8179 25.872C70.8179 25.0187 70.6419 24.3627 70.2899 23.904C69.9485 23.4453 69.4472 23.216 68.7859 23.216C68.1459 23.216 67.6552 23.4453 67.3139 23.904C66.9725 24.3627 66.8019 25.0187 66.8019 25.872ZM79.3191 21.504C80.3751 21.504 81.1378 21.7707 81.6071 22.304C82.0871 22.8373 82.3271 23.6853 82.3271 24.848V30H80.0551V25.312C80.0551 24.6293 79.9431 24.1227 79.7191 23.792C79.5058 23.4613 79.1325 23.296 78.5991 23.296C77.9805 23.296 77.5325 23.4827 77.2551 23.856C76.9778 24.2293 76.8391 24.8427 76.8391 25.696V30H74.5671V21.728H76.7271V22.88H76.7751C77.3405 21.9627 78.1885 21.504 79.3191 21.504Z" fill="black"/>
</svg>
