<svg xmlns="http://www.w3.org/2000/svg" width="24" height="24" fill="currentColor" viewBox="0 0 24 24">
  <path fill="#08090D" d="M19 14.8c0-.857 0-1.439-.037-1.889-.036-.438-.101-.663-.18-.82a2 2 0 0 0-.875-.873c-.156-.08-.38-.145-.82-.18C16.639 11 16.058 11 15.2 11H8.8c-.857 0-1.439 0-1.889.037-.438.036-.663.101-.82.18a2 2 0 0 0-.873.875c-.08.156-.145.38-.18.82C5 13.361 5 13.942 5 14.8v1.4c0 .857 0 1.439.037 1.889.036.438.101.663.18.82a2 2 0 0 0 .875.873c.156.08.38.145.82.18C7.361 20 7.942 20 8.8 20h6.4c.857 0 1.439 0 1.889-.037.438-.036.663-.101.82-.18a2 2 0 0 0 .873-.875c.08-.156.145-.38.18-.82.038-.45.038-1.031.038-1.888v-1.4Zm-8 1.7v-2a1 1 0 1 1 2 0v2a1 1 0 1 1-2 0ZM16 8a4 4 0 0 0-8 0v1.003C8.25 9 8.516 9 8.8 9h6.4c.284 0 .55.001.8.003V8Zm2 1.151c.282.062.554.151.816.285a4.001 4.001 0 0 1 1.748 1.748c.248.485.346 1.002.392 1.564.045.55.044 1.228.044 2.052v1.4c0 .824.001 1.502-.044 2.052-.046.562-.144 1.08-.392 1.564a4.002 4.002 0 0 1-1.748 1.748c-.485.248-1.002.346-1.564.392-.55.045-1.228.044-2.052.044H8.8c-.824 0-1.502.001-2.052-.044-.562-.046-1.08-.144-1.564-.392a4.001 4.001 0 0 1-1.748-1.748c-.248-.485-.346-1.002-.392-1.564C2.999 17.702 3 17.024 3 16.2v-1.4c0-.824-.001-1.502.044-2.052.046-.562.144-1.08.392-1.564a4.001 4.001 0 0 1 1.748-1.748c.262-.134.533-.223.816-.285V8a6 6 0 1 1 12 0v1.151Z"/>
</svg>
