<svg xmlns="http://www.w3.org/2000/svg" width="24" height="24" fill="currentColor" viewBox="0 0 24 24">
  <path fill="#08090D" d="M2.293 2.293a1 1 0 0 1 1.339-.068l.076.068 3.64 3.64a.996.996 0 0 1 .151.151L17.9 16.485c.063.049.12.107.171.171l3.637 3.637a1 1 0 0 1-1.415 1.414l-3.155-3.155C15.693 19.397 13.97 20 12 20c-2.861 0-5.194-1.265-6.923-2.707-1.726-1.44-2.91-3.107-3.503-4.046-.105-.166-.247-.378-.337-.67l-.034-.13a2.16 2.16 0 0 1 0-.894l.035-.13c.09-.292.232-.505.337-.672l.305-.465c.668-.987 1.785-2.424 3.317-3.675L2.293 3.707l-.068-.076a1 1 0 0 1 .068-1.338Zm4.325 5.74c-1.407 1.11-2.45 2.443-3.076 3.366l-.275.42a9.401 9.401 0 0 0-.11.18 9.5 9.5 0 0 0 .11.18c.531.844 1.585 2.32 3.091 3.578C7.862 17.012 9.757 18 12 18c1.353 0 2.577-.359 3.667-.919l-1.636-1.636a4 4 0 0 1-5.477-5.477L6.619 8.033Zm14.365 7.19a1 1 0 0 1-1.533-1.285l1.533 1.285ZM12 4c2.862 0 5.195 1.264 6.924 2.707 1.726 1.44 2.909 3.107 3.502 4.046l.097.154c.085.14.176.307.24.516l.035.13.035.216a2.23 2.23 0 0 1 0 .462l-.035.216c-.062.27-.173.48-.276.648l-.097.155a18.526 18.526 0 0 1-1.442 1.973l-1.533-1.285a16.503 16.503 0 0 0 1.283-1.756l.082-.131.03-.051-.029-.05-.08-.13c-.533-.843-1.588-2.32-3.094-3.577C16.14 6.988 14.243 6 12 6c-.382 0-.752.029-1.11.082a1 1 0 0 1-.293-1.979A9.587 9.587 0 0 1 12 4Zm-8.843 8.024v-.004.004ZM10 12a2 2 0 0 0 2 2c.178 0 .351-.027.516-.07l-2.447-2.447A2.003 2.003 0 0 0 10 12Z"/>
</svg>
