<svg width="24" height="24" viewBox="0 0 24 24" fill="none" xmlns="http://www.w3.org/2000/svg">
<path d="M20.9981 8.27927C20.998 8.27806 20.9971 8.27648 20.9971 8.27537C20.9963 8.27455 20.9959 8.27331 20.9951 8.27244C20.9631 8.23733 20.9168 8.19117 20.8242 8.09861L15.9014 3.17576C15.8088 3.08319 15.7626 3.0369 15.7275 3.00486C15.7263 3.00371 15.7248 3.00294 15.7236 3.00193H15.7207C15.6733 2.99978 15.6079 2.99997 15.4775 2.99997H8.52247C8.39207 2.99997 8.32672 2.99978 8.2793 3.00193C8.27811 3.00198 8.2765 3.00187 8.2754 3.00193C8.27443 3.0028 8.27352 3.00389 8.27247 3.00486L8.09864 3.17576L3.17579 8.09861C3.08322 8.19117 3.03693 8.23733 3.00489 8.27244C3.00393 8.27349 3.00283 8.2744 3.00196 8.27537C3.0019 8.27647 3.00201 8.27808 3.00196 8.27927C2.99981 8.32669 3.00001 8.39203 3.00001 8.52244V15.4775C3.00001 15.6079 2.99981 15.6733 3.00196 15.7207V15.7236C3.00297 15.7247 3.00374 15.7263 3.00489 15.7275C3.03693 15.7626 3.08322 15.8088 3.17579 15.9013L8.09864 20.8242C8.1912 20.9168 8.23736 20.9631 8.27247 20.9951C8.27334 20.9959 8.27458 20.9963 8.2754 20.997C8.27651 20.9971 8.27809 20.998 8.2793 20.998C8.32672 21.0002 8.39207 21 8.52247 21H15.4775C15.6079 21 15.6733 21.0002 15.7207 20.998L15.7236 20.997C15.7246 20.9962 15.7265 20.9961 15.7275 20.9951C15.7626 20.9631 15.8088 20.9168 15.9014 20.8242L20.8242 15.9013C20.9168 15.8088 20.9631 15.7626 20.9951 15.7275C20.9961 15.7264 20.9962 15.7246 20.9971 15.7236L20.9981 15.7207C21.0002 15.6733 21 15.6079 21 15.4775V8.52244C21 8.39203 21.0002 8.32669 20.9981 8.27927ZM12.0098 15C12.5621 15 13.0098 15.4477 13.0098 16C13.0098 16.5523 12.5621 17 12.0098 17H12C11.4477 17 11 16.5523 11 16C11 15.4477 11.4477 15 12 15H12.0098ZM11 12V7.99997C11 7.44769 11.4477 6.99997 12 6.99997C12.5523 6.99997 13 7.44769 13 7.99997V12C13 12.5523 12.5523 13 12 13C11.4477 13 11 12.5523 11 12ZM23 15.4775C23 15.6744 23.006 15.9356 22.9443 16.1924C22.8954 16.3964 22.8147 16.5916 22.7051 16.7705C22.567 16.9958 22.3776 17.1761 22.2383 17.3154L17.3154 22.2383C17.1762 22.3775 16.9958 22.567 16.7705 22.7051C16.5916 22.8147 16.3964 22.8953 16.1924 22.9443C15.9356 23.0059 15.6745 23 15.4775 23H8.52247C8.32556 23 8.06438 23.0059 7.80762 22.9443C7.60359 22.8953 7.40841 22.8147 7.2295 22.7051C7.00422 22.567 6.82386 22.3775 6.68458 22.2383L1.76172 17.3154C1.62243 17.1761 1.43298 16.9958 1.29493 16.7705C1.1853 16.5916 1.10465 16.3964 1.05567 16.1924C0.994059 15.9356 0.999999 15.6744 1.00001 15.4775V8.52244C0.999999 8.32552 0.994059 8.06435 1.05567 7.80759C1.10465 7.60356 1.1853 7.40838 1.29493 7.22947L1.40626 7.06833C1.52427 6.91611 1.65729 6.78898 1.76172 6.68455L6.68458 1.76169L6.92481 1.52732C7.01539 1.44539 7.11698 1.36385 7.2295 1.2949L7.36622 1.21775C7.50615 1.14645 7.65455 1.09239 7.80762 1.05564C8.06438 0.994029 8.32555 0.999969 8.52247 0.999975H15.4775C15.6745 0.999969 15.9356 0.994029 16.1924 1.05564C16.3455 1.09239 16.4939 1.14645 16.6338 1.21775L16.7705 1.2949L16.9316 1.40622C17.0839 1.52424 17.211 1.65726 17.3154 1.76169L22.2383 6.68455C22.3776 6.82383 22.567 7.00419 22.7051 7.22947C22.7873 7.36372 22.8538 7.50683 22.9023 7.65622L22.9443 7.80759L22.9795 7.99997C23.0037 8.19095 23 8.37479 23 8.52244V15.4775Z" fill="black"/>
</svg>
