<svg width="64" height="64" viewBox="0 0 64 64" fill="none" xmlns="http://www.w3.org/2000/svg">
<path fill-rule="evenodd" clip-rule="evenodd" d="M53.1668 20.1865L28.891 48.1865C28.1959 48.9872 27.1273 49.5 25.9291 49.5C24.7307 49.5 23.6629 48.9867 22.9677 48.1861L10.8293 34.1865C10.3092 33.5873 9.99805 32.8273 9.99805 32C9.99805 31.0335 10.4226 30.1586 11.109 29.5252L12.6263 28.1252C13.3127 27.4917 14.261 27.1 15.3084 27.1C16.251 27.1 17.1129 27.4181 17.7763 27.9433L25.1704 35.5001L47.6107 15.4467C48.289 14.8595 49.2015 14.5 50.2048 14.5C52.2998 14.5 53.998 16.067 53.998 18.0001C53.998 18.8272 53.6869 19.5873 53.1668 20.1865Z" fill="black"/>
</svg>
