<svg width="64" height="64" viewBox="0 0 64 64" fill="none" xmlns="http://www.w3.org/2000/svg">
<path fill-rule="evenodd" clip-rule="evenodd" d="M6.00195 31.9999C6.00195 17.6407 17.6425 6 32.0018 6C46.3614 6 58.002 17.6407 58.002 31.9999C58.002 46.3593 46.3614 57.9999 32.0018 57.9999C17.6425 57.9999 6.00195 46.3593 6.00195 31.9999ZM28.752 18.5257C28.8338 16.9824 30.2633 15.75 32.0041 15.75C33.7449 15.75 35.1701 16.9824 35.252 18.5257L34.6013 37.85H29.4026L28.752 18.5257ZM34.306 47.2948C33.675 47.932 32.908 48.2496 32.002 48.2496C31.1288 48.263 30.2912 47.9157 29.6989 47.2948C29.068 46.6596 28.752 45.8938 28.752 45.0003C28.752 44.1336 29.068 43.3756 29.6989 42.7256C30.3289 42.0765 31.0979 41.75 32.002 41.75C32.908 41.75 33.675 42.0765 34.306 42.7256C34.937 43.3756 35.252 44.1336 35.252 45.0003C35.252 45.8938 34.937 46.6596 34.306 47.2948Z" fill="black"/>
</svg>
