<svg width="24" height="24" viewBox="0 0 24 24" fill="none" xmlns="http://www.w3.org/2000/svg">
<path fill-rule="evenodd" clip-rule="evenodd" d="M11.9999 2.39999C17.3019 2.40001 21.6 6.69806 21.6 11.9999C21.6 17.3018 17.3019 21.5999 11.9999 21.5999C6.698 21.5999 2.3999 17.3018 2.3999 11.9999C2.39992 6.69805 6.69801 2.39999 11.9999 2.39999ZM12.0001 15.6C11.6663 15.6 11.3823 15.7206 11.1497 15.9602C10.9168 16.2002 10.8001 16.4801 10.8001 16.8001C10.8001 17.13 10.9168 17.4127 11.1497 17.6473C11.3684 17.8765 11.6777 18.0048 12.0001 17.9998C12.3346 17.9998 12.6178 17.8825 12.8508 17.6473C13.0837 17.4127 13.2001 17.13 13.2001 16.8001C13.2001 16.4801 13.0837 16.2002 12.8508 15.9602C12.6178 15.7206 12.3346 15.6 12.0001 15.6ZM12.0008 5.99999C11.3581 6 10.8303 6.45502 10.8001 7.02484L11.0403 14.16H12.9598L13.2001 7.02484C13.1698 6.45501 12.6436 5.99999 12.0008 5.99999Z" fill="black"/>
</svg>
