<svg xmlns="http://www.w3.org/2000/svg" width="24" height="24" fill="currentColor" viewBox="0 0 24 24">
  <path fill="#08090D" d="M20.998 8.28v-.005c-.002 0-.002-.002-.003-.003-.032-.035-.078-.08-.17-.173L15.9 3.176c-.092-.093-.138-.14-.173-.171l-.004-.003h-.003C15.673 3 15.608 3 15.478 3H8.523c-.13 0-.196 0-.244.002h-.004l-.002.003-.174.17L3.176 8.1a5.56 5.56 0 0 0-.171.173l-.003.003v.004C3 8.327 3 8.392 3 8.522v6.955c0 .13 0 .196.002.244v.003l.003.003c.032.036.078.082.17.174L8.1 20.824c.092.093.138.14.174.171l.002.002.004.001c.048.002.113.002.244.002h6.955c.13 0 .195 0 .243-.002h.003c0-.002.002-.002.004-.003.035-.032.08-.078.173-.17l4.923-4.924c.093-.092.14-.138.171-.174l.002-.003.001-.003c.002-.048.002-.113.002-.244V8.522c0-.13 0-.195-.002-.243ZM12.01 15a1 1 0 1 1 0 2H12a1 1 0 0 1 0-2h.01ZM11 12V8a1 1 0 0 1 2 0v4a1 1 0 1 1-2 0Zm12 3.477c0 .197.006.459-.056.715-.049.204-.13.4-.239.578-.138.226-.327.406-.467.545l-4.922 4.923c-.14.14-.32.329-.546.467-.178.11-.373.19-.578.24-.256.061-.518.055-.714.055H8.523c-.197 0-.459.006-.715-.056-.204-.049-.4-.13-.578-.239-.226-.138-.406-.327-.545-.467l-4.923-4.923c-.14-.139-.329-.32-.467-.545a2 2 0 0 1-.24-.578c-.06-.256-.055-.518-.055-.715V8.522c0-.196-.006-.458.056-.714a2 2 0 0 1 .239-.579l.111-.16c.118-.153.251-.28.356-.384l4.923-4.923.24-.235a2.02 2.02 0 0 1 .305-.232l.136-.077c.14-.072.289-.126.442-.162C8.064.994 8.326 1 8.523 1h6.955c.197 0 .458-.006.714.056a2 2 0 0 1 .442.162l.136.077.162.111c.152.118.279.251.384.356l4.922 4.923c.14.139.33.32.467.545.082.134.149.277.197.426l.042.152.036.192c.024.191.02.375.02.522v6.955Z"/>
</svg>
