<svg width="24" height="24" viewBox="0 0 24 24" fill="none" xmlns="http://www.w3.org/2000/svg">
<path d="M10.7998 7.50487C10.83 6.93503 11.3578 6.47998 12.0006 6.47998C12.6434 6.47998 13.1696 6.93503 13.1998 7.50487L12.9596 14.64H11.04L10.7998 7.50487Z" fill="#856A00"/>
<path d="M12.8505 18.1273C12.6176 18.3626 12.3344 18.4798 11.9998 18.4798C11.6774 18.4848 11.3681 18.3565 11.1495 18.1273C10.9165 17.8928 10.7998 17.61 10.7998 17.2801C10.7998 16.9601 10.9165 16.6802 11.1495 16.4402C11.3821 16.2005 11.666 16.08 11.9998 16.08C12.3344 16.08 12.6176 16.2005 12.8505 16.4402C13.0835 16.6802 13.1998 16.9601 13.1998 17.2801C13.1998 17.61 13.0835 17.8928 12.8505 18.1273Z" fill="#856A00"/>
</svg>
