<svg width="24" height="24" viewBox="0 0 24 24" fill="none" xmlns="http://www.w3.org/2000/svg">
<path fill-rule="evenodd" clip-rule="evenodd" d="M11.9999 2.39999C17.3018 2.39999 21.5999 6.69806 21.5999 12C21.5999 17.3019 17.3018 21.6 11.9999 21.6C6.69797 21.6 2.3999 17.3019 2.3999 12C2.3999 6.69806 6.69797 2.39999 11.9999 2.39999ZM16.702 7.4907C16.3427 7.19408 15.811 7.24498 15.5144 7.60437L9.99303 14.294L8.5924 11.3276C8.46375 11.0549 8.19947 10.8715 7.89904 10.8466C7.59862 10.8217 7.3077 10.959 7.13592 11.2068C6.96414 11.4546 6.93758 11.7753 7.06623 12.048L9.03443 16.2163C9.15785 16.4775 9.40626 16.6574 9.69287 16.6932C9.97945 16.7293 10.2645 16.616 10.4482 16.393L16.8156 8.6782C16.9581 8.50573 17.0263 8.2836 17.005 8.06085C16.9837 7.83811 16.8746 7.63299 16.702 7.4907Z" fill="black"/>
</svg>
