<svg width="24" height="24" viewBox="0 0 24 24" fill="none" xmlns="http://www.w3.org/2000/svg">
<path fill-rule="evenodd" clip-rule="evenodd" d="M19.6319 16.2399C20.1001 16.7083 20.1001 17.4675 19.6319 17.9358L17.936 19.6318C17.4676 20.1 16.7084 20.1 16.24 19.6318L12.0001 15.3918L7.7601 19.6318C7.29173 20.1 6.53254 20.1 6.06417 19.6318L4.36823 17.9358C3.90004 17.4675 3.90004 16.7083 4.36823 16.2399L8.60819 11.9999L4.36823 7.75998C3.90004 7.29161 3.90004 6.53242 4.36823 6.06404L6.06417 4.36811C6.53254 3.89992 7.29173 3.89992 7.7601 4.36811L12.0001 8.60807L16.24 4.36811C16.7084 3.89992 17.4676 3.89992 17.936 4.36811L19.6319 6.06404C20.1001 6.53242 20.1001 7.29161 19.6319 7.75998L15.3919 11.9999L19.6319 16.2399Z" fill="black"/>
</svg>
