<svg width="96" height="96" viewBox="0 0 96 96" fill="none" xmlns="http://www.w3.org/2000/svg">
<path d="M80.3996 26.3998H43.1996L35.9996 16.7998H9.59961V73.1998C9.59961 74.7911 10.2318 76.3172 11.357 77.4424C12.4822 78.5677 14.0083 79.1998 15.5996 79.1998H86.3996V32.3998C86.3996 30.8085 85.7675 29.2824 84.6422 28.1572C83.517 27.0319 81.9909 26.3998 80.3996 26.3998ZM26.3996 59.9998H16.7996L26.3996 43.1998L35.9996 59.9998H26.3996ZM57.5996 59.9998H40.7996V43.1998H57.5996V59.9998ZM70.7996 59.9998C69.1382 59.9998 67.5142 59.5072 66.1328 58.5842C64.7514 57.6611 63.6748 56.3492 63.039 54.8143C62.4032 53.2794 62.2369 51.5905 62.561 49.961C62.8851 48.3316 63.6852 46.8349 64.8599 45.6601C66.0347 44.4853 67.5314 43.6853 69.1609 43.3612C70.7903 43.0371 72.4793 43.2034 74.0142 43.8392C75.5491 44.475 76.861 45.5516 77.784 46.933C78.707 48.3144 79.1996 49.9384 79.1996 51.5998C79.1996 53.8276 78.3146 55.9642 76.7393 57.5395C75.164 59.1148 73.0274 59.9998 70.7996 59.9998Z" fill="black" fill-opacity="0.68"/>
</svg>
