<svg width="64" height="64" viewBox="0 0 64 64" fill="none" xmlns="http://www.w3.org/2000/svg">
<path d="M46.1882 29.4137L37.6802 26.3198L34.5863 17.8118C34.3933 17.2809 34.0416 16.8222 33.5789 16.498C33.1162 16.1739 32.5649 16 32 16C31.4351 16 30.8838 16.1739 30.4211 16.498C29.9584 16.8222 29.6067 17.2809 29.4137 17.8118L26.3198 26.3198L17.8118 29.4137C17.2809 29.6067 16.8222 29.9584 16.498 30.4211C16.1739 30.8838 16 31.4351 16 32C16 32.5649 16.1739 33.1162 16.498 33.5789C16.8222 34.0416 17.2809 34.3933 17.8118 34.5863L26.3198 37.6802L29.4137 46.1882C29.6067 46.7191 29.9584 47.1778 30.4211 47.502C30.8838 47.8261 31.4351 48 32 48C32.5649 48 33.1162 47.8261 33.5789 47.502C34.0416 47.1778 34.3933 46.7191 34.5863 46.1882L37.6802 37.6802L46.1882 34.5863C46.7191 34.3933 47.1778 34.0416 47.502 33.5789C47.8261 33.1162 48 32.5649 48 32C48 31.4351 47.8261 30.8838 47.502 30.4211C47.1778 29.9584 46.7191 29.6067 46.1882 29.4137ZM34.8236 33.8332C34.5962 33.9159 34.3896 34.0474 34.2185 34.2185C34.0474 34.3896 33.9159 34.5962 33.8332 34.8236L32 42.6156L30.1668 34.8236C30.0841 34.5962 29.9526 34.3896 29.7815 34.2185C29.6104 34.0474 29.4038 33.9159 29.1764 33.8332L21.3844 32L29.1764 30.1668C29.4038 30.0841 29.6104 29.9526 29.7815 29.7815C29.9526 29.6104 30.0841 29.4038 30.1668 29.1764L32 21.3844L33.8332 29.1764C33.9159 29.4038 34.0474 29.6104 34.2185 29.7815C34.3896 29.9526 34.5962 30.0841 34.8236 30.1668L42.6156 32L34.8236 33.8332Z" fill="black"/>
</svg>
