<svg width="64" height="64" viewBox="0 0 64 64" fill="none" xmlns="http://www.w3.org/2000/svg">
<path fill-rule="evenodd" clip-rule="evenodd" d="M32.0205 36.8379L44.144 48.9476C44.7873 49.5902 45.6599 49.9512 46.5697 49.9512C47.4794 49.9512 48.352 49.5902 48.9953 48.9476C49.6386 48.305 50 47.4335 50 46.5248C50 45.616 49.6386 44.7445 48.9953 44.1019L36.8672 31.9922L48.993 19.8825C49.3114 19.5643 49.5639 19.1866 49.7362 18.7709C49.9084 18.3553 49.997 17.9098 49.9969 17.46C49.9968 17.0101 49.908 16.5647 49.7355 16.1491C49.5631 15.7335 49.3104 15.3559 48.9918 15.0379C48.6733 14.7199 48.2952 14.4676 47.879 14.2956C47.4629 14.1235 47.0169 14.035 46.5666 14.0351C46.1162 14.0352 45.6702 14.124 45.2542 14.2962C44.8381 14.4685 44.4601 14.7209 44.1417 15.039L32.0205 27.1488L19.897 15.039C19.5808 14.7117 19.2025 14.4506 18.7842 14.2709C18.3659 14.0912 17.916 13.9965 17.4607 13.9923C17.0053 13.9882 16.5537 14.0746 16.1322 14.2467C15.7107 14.4187 15.3277 14.6728 15.0055 14.9943C14.6834 15.3158 14.4286 15.6981 14.256 16.119C14.0834 16.5398 13.9964 16.9909 14.0001 17.4457C14.0039 17.9005 14.0982 18.35 14.2778 18.768C14.4573 19.186 14.7184 19.5641 15.0457 19.8802L27.1738 31.9922L15.048 44.1042C14.7206 44.4203 14.4596 44.7984 14.2801 45.2164C14.1005 45.6344 14.0061 46.0839 14.0024 46.5387C13.9987 46.9935 14.0856 47.4445 14.2583 47.8654C14.4309 48.2863 14.6857 48.6686 15.0078 48.9901C15.33 49.3115 15.713 49.5657 16.1345 49.7377C16.556 49.9098 17.0076 49.9962 17.4629 49.992C17.9183 49.9879 18.3682 49.8932 18.7865 49.7135C19.2048 49.5338 19.5831 49.2726 19.8993 48.9453L32.0205 36.8379Z" fill="black"/>
</svg>
